<?xml version="1.0" standalone="no"?>
<!DOCTYPE svg PUBLIC "-//W3C//DTD SVG 20010904//EN"
 "http://www.w3.org/TR/2001/REC-SVG-20010904/DTD/svg10.dtd">
<svg version="1.0" xmlns="http://www.w3.org/2000/svg"
 width="635.000000pt" height="635.000000pt" viewBox="0 0 635.000000 635.000000"
 preserveAspectRatio="xMidYMid meet">
<metadata>
Created by potrace 1.14, written by Peter Selinger 2001-2017
</metadata>
<g transform="translate(0.000000,635.000000) scale(0.100000,-0.100000)"
fill="#000000" stroke="none">
<path d="M1193 6340 c-413 -58 -747 -362 -854 -776 -33 -128 -33 -340 0 -468
51 -198 142 -356 283 -491 45 -45 97 -91 113 -103 l30 -21 -32 -1 c-103 -1
-228 -55 -303 -130 -54 -53 -107 -149 -115 -207 l-5 -38 624 -545 c534 -466
627 -552 644 -590 39 -87 433 -1122 429 -1126 -2 -3 -339 289 -748 648 -874
767 -945 828 -953 828 -12 0 -7 -2915 5 -2972 36 -166 171 -301 337 -337 76
-16 4958 -16 5034 0 170 36 305 175 337 344 9 44 11 463 9 1521 l-3 1461 -850
-747 c-467 -411 -851 -746 -853 -745 -2 2 97 265 220 585 l223 582 625 550
c606 533 625 551 623 584 -1 18 -16 61 -33 95 -61 119 -178 205 -315 230 l-67
13 29 20 c15 11 66 56 111 101 141 135 232 293 283 491 33 128 33 340 0 468
-98 381 -376 659 -757 757 -73 19 -115 23 -234 23 -119 0 -161 -4 -234 -23
-189 -49 -336 -130 -469 -260 -89 -86 -132 -141 -192 -246 l-42 -74 -54 91
c-104 178 -294 346 -477 423 -143 60 -239 79 -402 79 -163 0 -259 -19 -402
-79 -172 -73 -361 -235 -462 -398 l-48 -77 -51 82 c-102 166 -290 329 -465
403 -162 68 -377 98 -539 75z m337 -231 c95 -26 228 -95 306 -158 110 -89 212
-250 254 -403 29 -104 28 -313 -1 -418 -26 -95 -95 -228 -158 -306 -89 -110
-250 -212 -403 -254 -103 -28 -313 -28 -416 0 -153 42 -314 144 -403 254 -63
78 -132 211 -158 306 -29 105 -30 314 -1 418 42 153 144 314 254 403 77 62
199 127 296 156 106 31 321 33 430 2z m1850 0 c95 -26 228 -95 306 -158 110
-89 212 -250 254 -403 29 -104 28 -313 -1 -418 -26 -95 -95 -228 -158 -306
-89 -110 -250 -212 -403 -254 -103 -28 -313 -28 -416 0 -153 42 -314 144 -403
254 -63 78 -132 211 -158 306 -29 105 -30 314 -1 418 42 153 144 314 254 403
77 62 199 127 296 156 106 31 321 33 430 2z m1841 9 l52 -12 -86 -13 c-114
-16 -187 -51 -263 -127 -175 -175 -175 -437 0 -612 35 -35 85 -72 117 -87 171
-80 360 -47 495 87 136 136 169 332 84 499 -16 31 -25 57 -20 57 17 0 101
-117 144 -200 68 -130 86 -208 86 -370 0 -161 -18 -239 -85 -370 -83 -159
-185 -260 -347 -341 -123 -62 -201 -79 -358 -79 -157 0 -235 17 -358 79 -162
81 -264 182 -347 341 -67 131 -85 209 -85 370 0 157 17 235 79 358 80 159 182
263 336 344 131 69 207 87 367 87 75 1 160 -4 189 -11z m-1070 -1300 c39 -67
82 -121 154 -194 55 -56 114 -111 130 -122 l30 -21 -363 -1 -364 0 49 39 c112
89 234 239 289 354 10 20 18 37 19 37 1 0 26 -42 56 -92z m-1737 -186 c39 -41
93 -92 119 -114 l49 -38 -344 0 -343 1 30 21 c75 55 201 190 258 275 l60 92
50 -81 c27 -44 82 -115 121 -156z m367 -2692 c204 -179 375 -326 379 -328 5
-2 178 146 386 329 267 235 381 329 390 323 32 -23 374 -426 369 -434 -3 -5
-245 -220 -538 -477 -293 -258 -548 -482 -568 -500 l-35 -32 -565 495 c-310
272 -568 500 -573 508 -6 9 44 74 180 229 104 119 192 216 197 214 4 -1 174
-148 378 -327z"/>
<path d="M1230 5766 c-85 -18 -149 -54 -216 -120 -134 -135 -167 -324 -87
-495 34 -72 132 -170 204 -204 171 -80 360 -47 495 87 175 175 175 437 0 612
-68 68 -141 107 -230 123 -72 13 -95 13 -166 -3z"/>
<path d="M3070 5766 c-85 -18 -149 -54 -216 -120 -134 -135 -167 -324 -87
-495 34 -72 132 -170 204 -204 171 -80 360 -47 495 87 175 175 175 437 0 612
-68 68 -141 107 -230 123 -72 13 -95 13 -166 -3z"/>
</g>
</svg>
