<svg id="svg" version="1.1" xmlns="http://www.w3.org/2000/svg" xmlns:xlink="http://www.w3.org/1999/xlink" width="400" height="81.00793280447971" viewBox="0, 0, 400,81.00793280447971"><g id="svgg"><path id="path0" d="M78.500 7.145 C 78.500 7.225,78.148 7.330,77.718 7.378 C 77.281 7.427,76.851 7.584,76.742 7.733 C 76.634 7.880,76.424 8.000,76.273 8.000 C 76.123 8.000,76.000 8.067,76.000 8.149 C 76.000 8.230,75.807 8.346,75.572 8.405 C 75.336 8.464,74.926 8.734,74.661 9.006 C 74.395 9.278,74.119 9.500,74.047 9.501 C 73.800 9.502,72.667 10.650,72.667 10.899 C 72.667 11.036,72.527 11.246,72.357 11.366 C 72.187 11.485,71.995 11.752,71.929 11.958 C 71.864 12.165,71.703 12.333,71.572 12.333 C 71.441 12.333,71.333 12.458,71.333 12.611 C 71.333 13.327,70.776 14.167,70.301 14.167 C 70.044 14.167,69.833 14.223,69.832 14.292 C 69.831 14.360,69.368 14.561,68.803 14.737 C 68.238 14.913,67.639 15.195,67.471 15.362 C 67.304 15.530,67.054 15.667,66.917 15.667 C 66.779 15.667,66.667 15.736,66.667 15.820 C 66.667 15.904,66.442 16.023,66.167 16.083 C 65.892 16.144,65.667 16.256,65.667 16.333 C 65.667 16.410,65.445 16.522,65.174 16.582 C 64.898 16.642,64.637 16.831,64.580 17.012 C 64.523 17.189,64.376 17.333,64.252 17.333 C 64.127 17.333,63.803 17.521,63.530 17.750 C 63.258 17.979,62.957 18.167,62.862 18.167 C 62.767 18.167,62.642 18.317,62.583 18.500 C 62.525 18.683,62.388 18.833,62.278 18.833 C 62.169 18.833,61.938 19.021,61.766 19.250 C 61.594 19.479,61.359 19.667,61.244 19.667 C 61.129 19.667,60.637 20.079,60.152 20.583 C 59.569 21.188,59.135 21.500,58.874 21.500 C 58.591 21.500,58.492 21.583,58.525 21.792 C 58.587 22.185,58.094 22.906,57.042 23.958 C 56.560 24.440,56.167 24.911,56.167 25.005 C 56.167 25.100,55.904 25.407,55.583 25.689 C 55.262 25.971,55.000 26.347,55.000 26.525 C 55.000 26.709,54.787 26.971,54.508 27.131 C 54.237 27.287,53.969 27.601,53.911 27.830 C 53.854 28.059,53.755 28.285,53.691 28.332 C 53.463 28.499,53.000 29.326,53.000 29.566 C 53.000 29.701,52.850 29.858,52.667 29.917 C 52.483 29.975,52.333 30.121,52.333 30.241 C 52.333 30.361,52.221 30.553,52.083 30.667 C 51.946 30.781,51.833 30.975,51.833 31.098 C 51.833 31.221,51.590 31.587,51.293 31.911 L 50.752 32.500 45.305 32.500 C 39.567 32.500,39.333 32.470,39.333 31.738 C 39.333 31.607,39.258 31.500,39.167 31.500 C 39.075 31.500,39.000 31.399,39.000 31.276 C 39.000 31.153,38.850 30.916,38.667 30.750 C 38.483 30.584,38.333 30.355,38.333 30.242 C 38.333 30.129,38.221 29.992,38.083 29.940 C 37.946 29.887,37.833 29.697,37.833 29.517 C 37.833 29.337,37.608 29.029,37.333 28.833 C 37.058 28.638,36.833 28.366,36.833 28.231 C 36.833 28.095,36.646 27.810,36.417 27.598 C 36.187 27.386,36.000 27.168,36.000 27.115 C 36.000 27.062,35.738 26.733,35.417 26.384 C 35.097 26.035,34.835 25.688,34.834 25.613 C 34.834 25.537,34.383 25.018,33.833 24.460 C 33.283 23.901,32.833 23.388,32.833 23.320 C 32.833 23.141,30.512 20.833,30.332 20.833 C 30.249 20.833,29.822 20.458,29.384 20.000 C 28.946 19.542,28.496 19.167,28.383 19.167 C 28.270 19.167,27.919 18.923,27.604 18.625 C 26.742 17.812,26.538 17.667,26.258 17.667 C 26.118 17.667,25.909 17.517,25.795 17.333 C 25.680 17.150,25.492 17.000,25.377 17.000 C 25.261 17.000,25.167 16.925,25.167 16.833 C 25.167 16.742,25.026 16.667,24.854 16.667 C 24.682 16.667,24.449 16.556,24.337 16.421 C 24.225 16.286,23.878 16.128,23.567 16.069 C 23.255 16.011,23.000 15.896,23.000 15.815 C 23.000 15.733,22.813 15.667,22.583 15.667 C 22.336 15.667,22.167 15.571,22.167 15.431 C 22.167 15.289,21.917 15.154,21.532 15.089 C 20.812 14.967,19.833 14.217,19.833 13.787 C 19.833 13.629,19.758 13.500,19.667 13.500 C 19.575 13.500,19.500 13.397,19.500 13.270 C 19.500 13.144,19.388 12.947,19.250 12.833 C 19.113 12.719,19.000 12.478,19.000 12.297 C 19.000 12.117,18.869 11.932,18.708 11.886 C 18.548 11.841,18.158 11.398,17.841 10.902 C 17.509 10.381,17.144 10.000,16.978 10.000 C 16.820 10.000,16.578 9.887,16.440 9.750 C 16.303 9.612,16.110 9.500,16.012 9.500 C 15.914 9.500,15.833 9.423,15.833 9.330 C 15.833 9.236,15.627 9.069,15.375 8.958 C 15.123 8.847,14.871 8.693,14.816 8.616 C 14.760 8.538,14.404 8.433,14.024 8.382 C 13.644 8.331,13.333 8.224,13.333 8.145 C 13.333 8.065,12.996 8.000,12.583 8.000 C 12.028 8.000,11.833 7.935,11.833 7.750 C 11.833 7.545,11.546 7.500,10.250 7.500 C 8.954 7.500,8.667 7.545,8.667 7.750 C 8.667 7.935,8.472 8.000,7.917 8.000 C 7.504 8.000,7.167 8.066,7.167 8.148 C 7.167 8.229,6.829 8.346,6.417 8.408 C 6.004 8.470,5.667 8.587,5.667 8.669 C 5.667 8.751,5.404 8.867,5.083 8.928 C 4.762 8.988,4.500 9.109,4.500 9.197 C 4.500 9.410,4.069 9.833,3.852 9.833 C 3.612 9.833,1.860 11.654,1.742 12.027 C 1.688 12.195,1.545 12.333,1.424 12.333 C 1.303 12.333,1.155 12.596,1.094 12.917 C 1.034 13.237,0.932 13.501,0.867 13.501 C 0.246 13.509,-0.326 21.079,0.266 21.465 C 0.366 21.530,0.496 21.883,0.554 22.249 C 0.611 22.615,0.736 22.940,0.829 22.971 C 0.923 23.002,1.000 23.171,1.000 23.346 C 1.000 23.521,1.150 23.758,1.333 23.872 C 1.517 23.987,1.667 24.167,1.667 24.272 C 1.667 24.378,1.779 24.508,1.917 24.560 C 2.054 24.613,2.167 24.734,2.167 24.828 C 2.167 25.042,2.612 25.491,3.211 25.879 C 3.462 26.041,3.667 26.266,3.668 26.379 C 3.669 26.584,4.214 26.952,5.375 27.530 C 5.719 27.701,6.000 27.909,6.000 27.992 C 6.000 28.075,6.431 28.195,6.958 28.259 C 7.485 28.322,8.005 28.445,8.112 28.530 C 8.646 28.956,14.096 28.410,14.383 27.902 C 14.457 27.773,14.655 27.667,14.824 27.667 C 14.993 27.667,15.174 27.554,15.227 27.417 C 15.280 27.279,15.466 27.167,15.641 27.167 C 15.816 27.167,16.053 27.054,16.167 26.917 C 16.281 26.779,16.477 26.667,16.604 26.667 C 16.730 26.667,16.833 26.554,16.833 26.417 C 16.833 26.279,16.906 26.167,16.994 26.167 C 17.204 26.167,18.333 25.037,18.333 24.828 C 18.333 24.739,18.446 24.667,18.583 24.667 C 18.721 24.667,18.833 24.563,18.833 24.437 C 18.833 24.311,18.946 24.114,19.083 24.000 C 19.221 23.886,19.333 23.652,19.333 23.480 C 19.333 23.278,19.452 23.167,19.667 23.167 C 19.852 23.167,20.000 23.278,20.000 23.417 C 20.000 23.570,20.156 23.667,20.405 23.667 C 20.627 23.667,20.911 23.769,21.036 23.893 C 21.160 24.018,21.552 24.224,21.907 24.351 C 22.262 24.479,22.585 24.708,22.625 24.861 C 22.665 25.014,22.894 25.188,23.133 25.248 C 23.373 25.308,23.670 25.502,23.794 25.678 C 23.918 25.855,24.118 26.000,24.239 26.000 C 24.467 26.000,26.699 28.201,26.817 28.543 C 26.854 28.649,27.063 28.927,27.281 29.160 C 27.499 29.393,27.720 29.752,27.773 29.958 C 27.826 30.165,27.957 30.333,28.064 30.333 C 28.171 30.333,28.407 30.670,28.588 31.082 C 28.769 31.493,28.964 31.831,29.022 31.832 C 29.080 31.833,29.167 31.983,29.215 32.167 C 29.301 32.494,29.220 32.500,24.651 32.500 C 20.773 32.500,20.000 32.539,20.000 32.734 C 20.000 32.895,19.691 33.003,19.000 33.083 C 18.450 33.147,18.000 33.267,18.000 33.350 C 18.000 33.432,17.887 33.500,17.750 33.500 C 17.612 33.500,17.500 33.566,17.500 33.646 C 17.500 33.726,17.273 33.837,16.996 33.892 C 16.503 33.991,13.833 36.480,13.833 36.841 C 13.833 36.928,13.767 37.000,13.685 37.000 C 13.604 37.000,13.488 37.262,13.428 37.583 C 13.367 37.904,13.254 38.167,13.175 38.167 C 13.097 38.167,12.981 38.613,12.918 39.159 C 12.854 39.705,12.697 40.239,12.568 40.346 C 12.389 40.494,12.333 41.034,12.333 42.604 L 12.333 44.667 12.833 44.667 C 13.108 44.667,13.333 44.742,13.333 44.833 C 13.333 44.925,13.558 45.000,13.833 45.000 C 14.161 45.000,14.333 45.084,14.333 45.244 C 14.333 45.411,14.593 45.523,15.152 45.597 L 15.970 45.706 16.085 46.853 C 16.149 47.485,16.268 48.043,16.350 48.094 C 16.433 48.145,16.500 48.440,16.500 48.750 C 16.500 49.060,16.575 49.360,16.667 49.417 C 16.758 49.473,16.833 49.806,16.833 50.156 C 16.833 51.659,17.574 52.578,17.917 51.500 C 17.975 51.317,18.092 51.167,18.178 51.167 C 18.263 51.167,18.333 51.057,18.333 50.923 C 18.333 50.788,18.483 50.598,18.667 50.500 C 18.850 50.402,19.000 50.202,19.000 50.055 C 19.000 49.908,19.187 49.614,19.417 49.402 C 19.646 49.190,19.833 48.947,19.833 48.862 C 19.833 48.777,19.954 48.608,20.101 48.486 C 20.248 48.364,20.436 48.085,20.519 47.866 C 20.660 47.495,20.726 47.477,21.543 47.587 C 22.624 47.733,22.667 47.758,22.667 48.260 C 22.667 48.484,22.735 48.667,22.818 48.667 C 22.901 48.667,23.023 49.717,23.089 51.000 L 23.209 53.333 23.691 53.333 C 24.074 53.333,24.227 53.218,24.443 52.766 C 24.592 52.453,24.890 52.103,25.107 51.987 C 25.323 51.872,25.501 51.658,25.501 51.514 C 25.502 51.369,25.765 50.974,26.085 50.636 C 26.405 50.298,26.667 49.957,26.667 49.878 C 26.667 49.495,27.046 49.387,27.867 49.536 C 28.948 49.733,29.320 50.154,29.328 51.191 C 29.332 51.721,29.412 51.995,29.583 52.060 C 29.722 52.113,29.834 52.363,29.835 52.620 C 29.841 54.150,30.328 54.770,31.049 54.164 C 31.810 53.524,32.116 53.206,32.212 52.955 C 32.273 52.796,32.419 52.666,32.536 52.665 C 32.654 52.663,32.912 52.412,33.110 52.107 L 33.469 51.551 34.401 51.720 C 34.914 51.813,35.333 51.952,35.333 52.028 C 35.333 52.104,35.540 52.168,35.792 52.169 C 36.505 52.172,37.000 52.350,37.000 52.603 C 37.000 52.730,37.102 52.833,37.227 52.833 C 37.388 52.833,37.497 53.229,37.602 54.192 C 37.786 55.882,38.023 56.110,38.902 55.439 C 39.231 55.188,39.500 54.871,39.500 54.734 C 39.500 53.894,40.970 53.464,42.000 54.003 C 42.137 54.075,42.601 54.186,43.030 54.251 C 43.460 54.315,43.851 54.473,43.900 54.601 C 44.064 55.026,44.750 54.843,46.676 53.858 C 47.725 53.322,50.533 51.889,52.917 50.674 C 55.300 49.459,57.288 48.413,57.333 48.351 C 57.379 48.288,57.904 48.022,58.500 47.759 C 59.096 47.495,60.780 46.645,62.244 45.869 C 63.707 45.093,65.226 44.320,65.620 44.151 C 66.014 43.982,66.429 43.769,66.543 43.678 C 66.833 43.446,71.214 41.218,71.965 40.921 L 72.583 40.677 72.090 41.047 C 71.819 41.250,71.249 41.735,70.823 42.125 C 70.397 42.515,69.995 42.833,69.929 42.833 C 69.808 42.833,68.345 44.043,67.461 44.875 C 67.194 45.127,66.937 45.333,66.890 45.333 C 66.788 45.333,65.488 46.385,64.677 47.124 C 64.350 47.422,64.027 47.665,63.959 47.666 C 63.890 47.666,63.553 47.937,63.209 48.267 C 62.865 48.597,62.302 49.048,61.958 49.269 C 61.615 49.490,61.333 49.743,61.333 49.830 C 61.333 49.918,61.150 50.086,60.925 50.203 C 60.701 50.321,60.195 50.697,59.800 51.040 C 59.406 51.382,58.333 52.265,57.417 53.000 C 56.500 53.736,55.600 54.472,55.417 54.636 C 55.233 54.801,54.810 55.135,54.477 55.379 C 54.143 55.623,53.643 56.031,53.366 56.286 C 53.088 56.541,52.461 57.069,51.972 57.459 C 50.961 58.265,48.777 60.040,48.192 60.531 C 47.801 60.859,47.799 60.859,47.557 60.513 C 47.424 60.323,47.218 60.167,47.100 60.167 C 46.810 60.167,46.000 59.457,46.000 59.203 C 46.000 59.091,45.903 59.000,45.785 59.000 C 45.667 59.000,45.311 58.778,44.994 58.507 C 44.676 58.235,44.323 58.010,44.208 58.007 C 44.094 58.003,44.000 57.887,44.000 57.750 C 44.000 57.277,43.083 57.442,42.842 57.958 C 42.724 58.210,42.567 58.539,42.492 58.688 C 42.417 58.837,42.305 59.231,42.243 59.563 C 42.181 59.895,42.061 60.167,41.977 60.167 C 41.894 60.167,41.748 60.373,41.654 60.625 C 41.149 61.981,40.974 62.158,40.132 62.164 C 39.975 62.166,38.947 61.267,37.847 60.167 C 35.456 57.776,35.000 57.594,35.000 59.030 C 35.000 59.505,34.927 60.123,34.837 60.405 C 34.748 60.686,34.630 61.416,34.576 62.025 C 34.446 63.483,34.130 63.603,33.176 62.555 C 32.804 62.146,32.500 61.776,32.500 61.732 C 32.500 61.688,32.331 61.468,32.125 61.244 C 31.144 60.179,31.000 60.001,31.000 59.857 C 31.000 59.772,30.887 59.659,30.749 59.606 C 30.610 59.553,30.411 59.320,30.305 59.088 C 29.937 58.279,29.167 58.501,29.167 59.417 C 29.167 59.829,29.092 60.167,29.000 60.167 C 28.908 60.167,28.833 60.425,28.833 60.740 C 28.833 61.056,28.767 61.355,28.686 61.405 C 28.605 61.454,28.489 61.969,28.427 62.547 C 28.301 63.725,27.802 64.355,27.571 63.627 C 27.507 63.426,27.278 63.123,27.061 62.953 C 26.844 62.782,26.667 62.533,26.667 62.399 C 26.667 62.266,26.404 61.926,26.083 61.644 C 25.762 61.363,25.500 61.017,25.500 60.877 C 25.500 60.617,24.896 60.000,24.641 60.000 C 24.564 60.000,24.500 59.913,24.500 59.807 C 24.500 59.701,24.326 59.383,24.113 59.099 C 23.900 58.815,23.677 58.452,23.618 58.292 C 23.559 58.131,23.396 58.000,23.255 58.000 C 23.115 58.000,23.000 57.887,23.000 57.750 C 23.000 57.594,22.843 57.500,22.583 57.500 C 22.231 57.500,22.167 57.578,22.167 58.000 C 22.167 58.317,22.081 58.500,21.934 58.500 C 21.767 58.500,21.667 58.834,21.583 59.667 C 21.519 60.309,21.405 60.873,21.329 60.919 C 21.254 60.966,21.141 61.490,21.077 62.085 C 21.013 62.680,20.895 63.167,20.814 63.167 C 20.733 63.167,20.667 63.377,20.667 63.633 C 20.667 64.090,20.332 65.001,20.167 64.993 C 19.812 64.976,18.833 63.414,18.833 62.864 C 18.833 62.755,18.721 62.667,18.583 62.667 C 18.446 62.667,18.333 62.560,18.333 62.429 C 18.333 62.299,18.156 61.980,17.939 61.721 C 17.723 61.462,17.493 61.081,17.428 60.875 C 17.364 60.669,17.221 60.500,17.112 60.500 C 17.002 60.500,16.838 60.332,16.748 60.126 C 16.372 59.270,15.667 59.916,15.667 61.117 C 15.667 61.419,15.592 61.667,15.500 61.667 C 15.408 61.667,15.333 62.000,15.333 62.407 C 15.333 62.814,15.266 63.188,15.184 63.239 C 15.103 63.290,14.982 64.009,14.916 64.838 C 14.777 66.600,14.620 66.833,13.571 66.833 C 13.026 66.833,12.833 66.899,12.833 67.083 C 12.833 67.221,12.721 67.333,12.583 67.333 C 12.233 67.333,12.208 71.916,12.558 72.051 C 12.696 72.103,12.825 72.546,12.893 73.193 C 12.954 73.775,13.078 74.275,13.168 74.306 C 13.259 74.336,13.333 74.496,13.333 74.660 C 13.333 74.825,13.446 75.053,13.583 75.167 C 13.721 75.281,13.833 75.477,13.833 75.604 C 13.833 75.730,13.908 75.833,14.000 75.833 C 14.092 75.833,14.170 75.965,14.174 76.125 C 14.179 76.285,14.447 76.642,14.770 76.917 C 15.094 77.192,15.634 77.660,15.971 77.958 C 16.308 78.255,16.677 78.499,16.792 78.499 C 16.906 78.500,17.000 78.575,17.000 78.667 C 17.000 78.758,17.131 78.834,17.292 78.834 C 17.452 78.835,17.798 78.947,18.061 79.084 C 18.323 79.221,18.717 79.333,18.936 79.333 C 19.154 79.333,19.333 79.408,19.333 79.500 C 19.333 79.610,28.194 79.667,45.583 79.667 C 62.972 79.667,71.833 79.610,71.833 79.500 C 71.833 79.408,72.021 79.333,72.250 79.333 C 72.479 79.333,72.667 79.258,72.667 79.167 C 72.667 79.075,72.882 79.000,73.144 79.000 C 73.407 79.000,73.812 78.850,74.045 78.667 C 74.279 78.483,74.570 78.333,74.693 78.332 C 74.816 78.331,75.104 78.092,75.333 77.801 C 75.563 77.510,75.849 77.192,75.969 77.094 C 76.576 76.603,77.167 75.925,77.167 75.720 C 77.167 75.593,77.279 75.446,77.417 75.394 C 77.554 75.341,77.667 75.156,77.667 74.982 C 77.667 74.809,77.742 74.667,77.833 74.667 C 77.925 74.667,78.000 74.532,78.000 74.367 C 78.000 74.202,78.094 73.973,78.208 73.858 C 78.514 73.553,78.514 38.643,78.208 38.542 C 78.094 38.503,78.000 38.366,78.000 38.236 C 78.000 38.106,77.940 38.000,77.867 38.000 C 77.794 38.000,77.634 37.725,77.513 37.390 C 77.392 37.054,77.114 36.614,76.896 36.412 C 76.678 36.210,76.500 35.955,76.500 35.845 C 76.500 35.616,75.596 34.809,75.140 34.630 C 74.971 34.565,74.833 34.396,74.833 34.255 C 74.833 34.114,74.690 34.000,74.512 34.000 C 74.335 34.000,74.085 33.895,73.957 33.766 C 73.645 33.455,72.280 33.000,71.656 33.000 C 71.365 33.000,71.116 32.895,71.060 32.750 C 70.978 32.536,70.277 32.500,66.164 32.500 C 61.447 32.500,61.366 32.494,61.452 32.167 C 61.500 31.983,61.599 31.833,61.673 31.833 C 61.747 31.833,61.860 31.592,61.925 31.297 C 61.989 31.002,62.258 30.560,62.521 30.314 C 62.785 30.068,63.000 29.746,63.000 29.600 C 63.000 29.453,63.075 29.333,63.167 29.333 C 63.258 29.333,63.333 29.223,63.333 29.087 C 63.333 28.952,63.521 28.718,63.750 28.568 C 63.979 28.418,64.167 28.187,64.167 28.056 C 64.167 27.768,65.204 26.667,65.475 26.667 C 65.580 26.667,65.667 26.588,65.667 26.492 C 65.667 26.246,66.741 25.167,66.986 25.167 C 67.097 25.167,67.378 24.942,67.609 24.667 C 67.840 24.392,68.142 24.167,68.280 24.167 C 68.418 24.167,68.721 24.017,68.955 23.833 C 69.188 23.650,69.481 23.500,69.606 23.500 C 69.731 23.500,69.833 23.430,69.833 23.345 C 69.833 23.259,70.002 23.136,70.208 23.072 C 70.415 23.008,70.625 22.891,70.675 22.813 C 70.873 22.507,71.833 22.442,71.833 22.734 C 71.833 22.886,71.946 23.054,72.083 23.106 C 72.221 23.159,72.333 23.341,72.333 23.511 C 72.333 23.680,72.596 24.029,72.917 24.285 C 73.237 24.541,73.500 24.800,73.500 24.862 C 73.500 25.104,74.509 25.966,74.910 26.067 C 75.143 26.125,75.333 26.278,75.333 26.407 C 75.333 26.535,75.577 26.693,75.875 26.758 C 76.173 26.822,76.454 26.922,76.500 26.979 C 76.746 27.286,77.471 27.525,78.426 27.615 C 79.169 27.684,79.500 27.784,79.500 27.941 C 79.500 28.266,82.093 28.265,82.218 27.940 C 82.274 27.794,82.731 27.671,83.486 27.596 C 84.135 27.532,84.667 27.428,84.667 27.364 C 84.667 27.228,85.392 26.898,86.026 26.745 C 86.269 26.686,86.506 26.495,86.552 26.319 C 86.598 26.144,86.774 26.000,86.943 26.000 C 87.269 26.000,88.167 25.155,88.167 24.848 C 88.167 24.748,88.227 24.667,88.301 24.667 C 88.597 24.667,89.500 23.765,89.500 23.471 C 89.500 23.298,89.608 23.115,89.740 23.064 C 89.872 23.014,90.028 22.753,90.086 22.486 C 90.145 22.219,90.255 22.000,90.330 22.000 C 90.537 22.000,90.899 20.972,90.853 20.516 C 90.831 20.296,90.907 20.057,91.023 19.986 C 91.274 19.831,91.317 14.873,91.069 14.693 C 90.985 14.633,90.893 14.433,90.863 14.250 C 90.705 13.262,90.607 13.000,90.398 13.000 C 90.271 13.000,90.167 12.861,90.167 12.692 C 90.167 12.522,89.942 12.073,89.667 11.693 C 89.392 11.313,89.167 10.943,89.167 10.870 C 89.167 10.797,88.829 10.455,88.417 10.110 C 88.004 9.766,87.667 9.375,87.667 9.242 C 87.667 9.109,87.522 9.000,87.345 9.000 C 87.168 9.000,86.925 8.905,86.804 8.789 C 86.682 8.673,86.246 8.429,85.835 8.247 C 85.423 8.065,84.954 7.785,84.793 7.625 C 84.628 7.461,84.250 7.333,83.927 7.333 C 83.611 7.333,83.307 7.258,83.250 7.167 C 83.123 6.960,78.500 6.939,78.500 7.145 M82.978 10.075 C 86.393 10.984,88.616 13.650,88.794 17.047 C 89.276 26.270,76.400 28.382,73.769 19.511 C 72.174 14.136,77.547 8.630,82.978 10.075 M12.539 10.847 C 18.185 12.749,19.529 20.319,14.891 24.098 C 10.788 27.440,4.384 25.524,2.816 20.485 C 0.940 14.458,6.601 8.846,12.539 10.847 M308.167 49.102 C 306.909 49.326,305.500 49.722,305.500 49.851 C 305.500 49.933,305.389 50.000,305.253 50.000 C 304.865 50.000,302.975 50.963,302.506 51.399 C 302.274 51.616,301.933 51.870,301.750 51.964 C 300.680 52.516,298.623 55.609,297.962 57.661 C 297.680 58.535,297.388 59.376,297.314 59.531 C 296.133 61.965,296.606 69.572,298.194 73.700 C 299.206 76.332,302.206 79.291,304.747 80.166 C 308.845 81.575,316.409 81.157,318.442 79.409 C 318.703 79.184,319.008 79.000,319.119 79.000 C 319.399 79.000,321.833 76.664,321.833 76.395 C 321.833 76.276,321.971 76.105,322.140 76.014 C 322.909 75.603,324.450 71.922,324.744 69.792 L 324.854 69.000 320.615 69.000 L 316.377 69.000 316.295 69.727 C 316.204 70.536,315.380 72.348,314.796 73.022 C 313.363 74.678,309.040 74.573,307.583 72.848 C 307.308 72.522,306.968 72.139,306.828 71.997 C 305.105 70.257,304.914 60.276,306.571 58.619 C 306.687 58.504,306.972 58.107,307.206 57.737 C 308.868 55.104,314.038 55.238,315.455 57.950 C 315.709 58.435,315.973 58.833,316.042 58.833 C 316.110 58.833,316.167 58.927,316.168 59.042 C 316.168 59.156,316.247 59.531,316.342 59.875 L 316.516 60.500 320.697 60.500 L 324.879 60.500 324.770 59.542 C 324.638 58.382,324.021 55.822,323.812 55.563 C 323.729 55.460,323.434 54.921,323.156 54.365 C 322.627 53.306,321.003 51.500,320.580 51.500 C 320.444 51.500,320.333 51.420,320.333 51.322 C 320.333 51.125,318.004 50.000,317.594 50.000 C 317.451 50.000,317.333 49.931,317.333 49.847 C 317.333 49.329,310.165 48.747,308.167 49.102 M336.333 49.239 C 334.716 49.540,334.723 49.538,332.425 50.599 C 331.507 51.023,329.167 52.736,329.167 52.984 C 329.167 53.044,328.919 53.353,328.616 53.672 C 328.041 54.274,327.000 55.884,327.000 56.169 C 327.000 56.259,326.937 56.333,326.860 56.333 C 326.388 56.333,325.042 60.804,324.815 63.128 C 324.603 65.303,324.845 68.894,325.260 69.734 C 325.392 70.000,325.500 70.315,325.500 70.434 C 325.500 70.803,326.524 73.500,326.750 73.726 C 326.868 73.844,327.158 74.323,327.395 74.790 C 327.982 75.949,330.265 78.320,331.364 78.913 C 331.851 79.175,332.292 79.452,332.342 79.527 C 332.513 79.781,334.799 80.492,336.261 80.747 C 340.107 81.418,347.936 80.607,348.306 79.500 C 348.336 79.408,348.442 79.333,348.541 79.333 C 349.707 79.333,353.089 75.700,354.118 73.341 C 354.340 72.833,354.665 72.136,354.841 71.793 C 356.171 69.193,356.221 60.950,354.920 58.509 C 354.795 58.275,354.413 57.465,354.070 56.708 C 353.728 55.952,353.398 55.333,353.338 55.333 C 353.277 55.333,353.060 55.035,352.855 54.670 C 352.477 53.997,350.841 52.282,349.808 51.475 C 349.299 51.077,348.778 50.810,346.580 49.818 C 344.894 49.056,339.079 48.728,336.333 49.239 M370.333 49.118 C 369.487 49.267,368.167 49.694,368.167 49.820 C 368.167 49.891,367.864 50.086,367.495 50.252 C 366.818 50.557,365.102 52.181,364.723 52.876 C 364.549 53.195,364.511 52.992,364.468 51.500 L 364.417 49.750 360.458 49.705 L 356.500 49.661 356.500 64.914 L 356.500 80.167 360.583 80.167 L 364.667 80.167 364.672 70.708 C 364.679 58.272,364.742 57.832,366.712 56.590 C 368.077 55.730,370.313 55.532,371.536 56.162 C 372.357 56.585,373.167 57.300,373.167 57.603 C 373.167 57.716,373.273 57.916,373.404 58.046 C 373.920 58.563,374.000 60.193,374.000 70.197 L 374.000 80.167 378.160 80.167 L 382.319 80.167 382.368 69.792 L 382.417 59.417 382.986 58.417 C 384.638 55.516,387.845 54.893,390.269 57.001 C 391.458 58.035,391.411 57.550,391.465 69.458 L 391.514 80.167 395.654 80.167 L 399.793 80.167 399.918 70.561 C 400.079 58.055,399.826 54.509,398.686 53.347 C 398.538 53.197,398.305 52.859,398.168 52.597 C 397.836 51.961,396.242 50.557,395.461 50.213 C 395.116 50.060,394.833 49.884,394.833 49.820 C 394.833 49.478,392.147 49.000,390.224 49.000 C 386.254 49.000,383.383 50.387,381.436 53.244 L 381.122 53.705 380.739 52.911 C 380.528 52.474,380.182 51.934,379.970 51.710 C 378.955 50.644,378.417 50.167,378.229 50.167 C 378.116 50.167,377.902 50.044,377.752 49.895 C 377.055 49.198,372.562 48.728,370.333 49.118 M343.244 56.489 C 345.108 57.402,346.306 58.944,346.749 61.000 C 346.819 61.321,346.960 61.637,347.063 61.702 C 347.328 61.870,347.320 67.806,347.054 68.349 C 346.946 68.570,346.729 69.157,346.572 69.655 C 344.619 75.851,336.141 75.807,334.002 69.589 C 333.196 67.245,333.191 63.073,333.992 60.481 C 335.208 56.547,339.544 54.677,343.244 56.489 M287.500 76.000 L 287.500 80.167 291.833 80.167 L 296.167 80.167 296.167 76.000 L 296.167 71.833 291.833 71.833 L 287.500 71.833 287.500 76.000 " stroke="none" fill="#fc0434" fill-rule="evenodd"></path><path id="path1" d="M79.352 10.097 C 70.562 12.461,72.239 25.271,81.322 25.147 L 82.750 25.128 81.842 24.977 C 77.761 24.300,77.115 18.905,80.958 17.595 C 85.017 16.212,87.988 20.972,84.965 24.013 L 84.417 24.564 84.977 24.240 C 92.581 19.848,87.799 7.825,79.352 10.097 M7.657 10.814 C 1.220 12.874,0.644 22.206,6.780 25.021 C 12.014 27.421,17.667 23.818,17.667 18.081 C 17.667 12.862,12.647 9.218,7.657 10.814 M10.024 11.027 C 11.988 11.615,13.093 13.787,12.476 15.846 C 11.567 18.883,7.147 19.384,5.453 16.644 C 3.558 13.579,6.495 9.970,10.024 11.027 " stroke="none" fill="#faf8f8" fill-rule="evenodd"></path><path id="path2" d="M219.333 20.500 L 219.333 41.000 223.500 41.000 L 227.667 41.000 227.692 33.625 C 227.709 28.569,227.755 26.863,227.839 28.199 C 228.375 36.685,233.355 41.530,241.809 41.790 C 245.136 41.892,249.667 41.160,249.667 40.521 C 249.667 40.449,250.059 40.209,250.538 39.987 C 251.601 39.495,254.067 37.115,254.755 35.917 C 255.019 35.458,255.293 35.042,255.364 34.992 C 255.532 34.874,256.083 33.268,256.233 32.458 L 256.348 31.833 252.118 31.833 C 247.892 31.833,247.887 31.834,247.715 32.208 C 246.248 35.419,241.326 36.228,238.410 33.737 C 237.124 32.639,236.000 30.142,236.000 28.386 C 236.000 28.207,237.905 28.167,246.359 28.167 L 256.718 28.167 256.613 25.292 C 256.481 21.677,255.817 17.833,255.325 17.833 C 255.224 17.833,254.833 16.954,254.833 16.725 C 254.833 16.693,255.508 16.667,256.333 16.667 L 257.833 16.667 257.833 26.303 C 257.833 35.364,257.931 37.727,258.316 38.000 C 258.381 38.046,258.562 38.358,258.718 38.695 C 259.020 39.343,259.778 40.074,260.332 40.250 C 260.516 40.308,260.667 40.416,260.667 40.489 C 260.667 41.037,265.029 41.523,268.500 41.362 L 270.917 41.250 270.962 38.125 L 271.007 35.000 269.181 35.000 C 267.229 35.000,266.546 34.847,266.400 34.378 C 266.350 34.216,266.239 33.953,266.155 33.794 C 266.065 33.627,266.000 29.937,266.000 25.086 L 266.000 16.667 268.917 16.667 L 271.833 16.667 271.833 26.303 C 271.833 35.364,271.931 37.727,272.316 38.000 C 272.381 38.046,272.562 38.358,272.718 38.695 C 273.020 39.343,273.778 40.074,274.332 40.250 C 274.516 40.308,274.667 40.416,274.667 40.489 C 274.667 41.037,279.029 41.523,282.500 41.362 L 284.917 41.250 285.000 38.783 L 285.083 36.316 285.612 37.005 C 286.213 37.788,288.060 39.309,288.971 39.773 C 289.307 39.944,289.845 40.248,290.166 40.450 C 292.647 42.006,299.057 42.319,302.992 41.076 C 303.730 40.843,304.333 40.594,304.333 40.522 C 304.333 40.451,304.700 40.227,305.148 40.024 C 307.581 38.925,310.340 35.267,310.918 32.375 L 311.026 31.833 306.774 31.833 C 302.542 31.833,302.522 31.835,302.406 32.200 C 302.342 32.401,301.906 32.974,301.437 33.473 C 298.312 36.798,292.277 35.186,291.238 30.750 C 291.173 30.475,291.064 30.175,290.996 30.083 C 290.927 29.992,290.818 29.524,290.753 29.044 L 290.636 28.172 301.068 28.127 L 311.500 28.083 311.500 34.542 L 311.500 41.000 315.568 41.000 L 319.636 41.000 319.712 32.375 C 319.794 22.956,319.853 22.329,320.790 20.917 C 321.333 20.098,322.015 19.333,322.201 19.333 C 322.277 19.333,322.620 19.158,322.962 18.944 C 323.840 18.395,324.774 18.202,327.208 18.068 L 329.333 17.951 329.333 13.872 L 329.333 9.793 327.292 9.871 C 325.140 9.954,323.652 10.348,322.990 11.010 C 322.822 11.178,322.459 11.432,322.183 11.575 C 321.908 11.717,321.450 12.171,321.167 12.584 C 320.883 12.996,320.591 13.333,320.518 13.333 C 320.446 13.333,320.168 13.727,319.901 14.208 L 319.417 15.083 319.370 12.792 L 319.324 10.500 315.412 10.500 L 311.500 10.500 311.500 17.343 C 311.500 23.796,311.348 25.842,311.113 22.548 C 310.854 18.913,309.491 15.855,307.054 13.441 C 304.357 10.769,301.904 9.916,296.917 9.918 C 293.678 9.919,291.236 10.274,290.837 10.802 C 290.789 10.865,290.262 11.156,289.667 11.449 C 288.097 12.220,286.095 13.956,285.333 15.206 L 285.001 15.750 285.001 13.375 L 285.000 11.000 282.500 11.000 L 280.000 11.000 280.000 6.750 L 280.000 2.500 275.917 2.500 L 271.833 2.500 271.833 6.750 L 271.833 11.000 268.917 11.000 L 266.000 11.000 266.000 6.750 L 266.000 2.500 261.917 2.500 L 257.833 2.500 257.833 6.750 L 257.833 11.000 255.833 11.000 L 253.833 11.000 253.824 13.042 L 253.815 15.083 253.366 14.512 C 252.915 13.938,252.480 13.492,251.508 12.607 C 250.779 11.943,248.119 10.606,246.827 10.254 C 244.098 9.511,236.937 9.888,236.167 10.816 C 236.121 10.871,235.583 11.157,234.973 11.450 C 233.726 12.048,231.839 13.601,231.083 14.650 C 230.808 15.032,230.416 15.546,230.212 15.793 C 230.008 16.040,229.678 16.656,229.478 17.163 C 229.279 17.669,228.976 18.399,228.807 18.784 C 228.331 19.865,227.984 21.719,227.844 23.917 C 227.767 25.127,227.707 20.799,227.692 12.958 L 227.667 0.000 223.500 0.000 L 219.333 0.000 219.333 20.500 M110.530 10.077 C 109.367 10.373,108.655 10.672,108.273 11.024 C 108.102 11.181,107.746 11.415,107.481 11.543 C 106.975 11.788,105.335 13.517,105.072 14.083 C 104.964 14.316,104.902 13.823,104.870 12.458 L 104.823 10.500 100.911 10.500 L 97.000 10.500 97.000 25.750 L 97.000 41.000 101.083 41.000 L 105.167 41.000 105.170 31.792 C 105.173 20.483,105.365 19.365,107.575 17.813 C 107.946 17.553,108.334 17.269,108.436 17.183 C 109.276 16.482,113.199 16.511,113.915 17.224 C 114.022 17.330,114.392 17.664,114.737 17.967 C 116.082 19.146,116.070 19.036,116.134 30.708 L 116.189 41.000 120.428 41.000 L 124.667 41.000 124.686 35.792 C 124.697 32.927,124.738 30.733,124.778 30.917 C 125.279 33.218,125.388 33.518,126.514 35.664 C 127.643 37.815,131.382 40.499,134.435 41.350 C 137.594 42.230,144.782 41.778,146.041 40.620 C 146.162 40.508,146.673 40.204,147.176 39.943 C 149.175 38.908,152.332 35.193,152.333 33.875 C 152.333 33.760,152.405 33.667,152.492 33.667 C 152.580 33.667,152.699 33.385,152.757 33.042 C 152.815 32.698,152.898 32.285,152.942 32.125 C 153.017 31.853,152.736 31.833,148.698 31.833 L 144.374 31.833 144.153 32.375 C 142.849 35.573,137.327 36.216,134.734 33.472 C 133.464 32.128,133.021 31.140,132.749 29.042 L 132.635 28.167 143.011 28.167 L 153.386 28.167 153.272 25.208 C 153.210 23.581,153.124 22.025,153.082 21.750 C 153.040 21.475,153.203 22.000,153.445 22.917 C 153.688 23.833,153.937 24.621,154.000 24.667 C 154.062 24.712,154.397 25.912,154.745 27.333 C 155.092 28.754,155.476 30.142,155.598 30.417 C 155.720 30.692,156.087 31.990,156.414 33.301 C 156.741 34.613,157.081 35.813,157.170 35.968 C 157.258 36.123,157.523 37.037,157.758 38.000 C 157.993 38.962,158.259 40.031,158.349 40.375 L 158.513 41.000 162.826 41.000 L 167.139 41.000 167.308 40.208 C 167.400 39.773,167.601 38.742,167.755 37.917 C 167.908 37.092,168.090 36.342,168.159 36.250 C 168.228 36.158,168.573 34.583,168.925 32.750 C 169.276 30.917,169.614 29.379,169.675 29.333 C 169.735 29.287,170.061 27.787,170.400 26.000 C 170.738 24.212,171.084 22.600,171.169 22.417 C 171.254 22.233,171.422 21.576,171.543 20.957 L 171.762 19.831 172.224 22.183 C 172.478 23.477,172.752 24.659,172.833 24.810 C 172.914 24.960,173.259 26.583,173.600 28.417 C 173.941 30.250,174.270 31.787,174.330 31.833 C 174.390 31.879,174.724 33.417,175.071 35.250 C 175.418 37.083,175.760 38.658,175.832 38.750 C 175.904 38.842,176.014 39.254,176.077 39.667 C 176.301 41.135,175.845 41.000,180.576 41.000 L 184.796 41.000 184.913 40.375 C 184.977 40.031,185.092 39.674,185.168 39.582 C 185.319 39.400,186.667 34.455,186.667 34.086 C 186.667 33.962,186.733 33.836,186.815 33.806 C 186.897 33.775,187.241 32.662,187.579 31.333 C 187.918 30.004,188.255 28.842,188.328 28.750 C 188.401 28.658,188.733 27.521,189.066 26.224 C 189.399 24.926,189.777 23.611,189.906 23.302 C 190.035 22.992,190.418 21.654,190.756 20.328 C 191.095 19.002,191.427 17.879,191.494 17.833 C 191.562 17.787,191.655 17.563,191.701 17.333 C 191.918 16.258,192.870 12.862,193.082 12.406 C 193.213 12.125,193.370 11.582,193.431 11.198 L 193.543 10.500 189.210 10.500 L 184.877 10.500 184.782 11.042 C 184.358 13.468,183.806 16.142,183.672 16.417 C 183.583 16.600,183.242 18.175,182.913 19.917 C 182.585 21.658,182.254 23.200,182.177 23.343 C 182.100 23.486,181.725 25.211,181.344 27.177 C 180.375 32.173,180.463 32.139,179.666 27.833 C 179.386 26.321,179.088 24.933,179.004 24.750 C 178.844 24.401,177.667 18.424,177.667 17.961 C 177.667 17.814,177.608 17.669,177.536 17.639 C 177.464 17.608,177.107 16.008,176.742 14.083 L 176.079 10.583 171.831 10.539 L 167.583 10.495 167.097 13.289 C 166.830 14.826,166.563 16.121,166.502 16.167 C 166.441 16.212,166.102 17.900,165.749 19.917 C 165.395 21.933,165.056 23.621,164.995 23.667 C 164.935 23.712,164.600 25.360,164.252 27.327 C 163.597 31.025,163.374 32.034,163.348 31.416 C 163.328 30.950,162.013 24.306,161.880 24.000 C 161.782 23.772,161.257 21.368,159.842 14.667 C 159.562 13.338,159.252 11.856,159.154 11.375 L 158.976 10.500 154.572 10.500 C 150.664 10.500,150.167 10.530,150.167 10.764 C 150.167 11.148,150.820 13.645,151.005 13.972 C 151.215 14.341,152.037 17.685,151.941 17.781 C 151.900 17.822,151.780 17.593,151.674 17.272 C 151.568 16.950,151.317 16.479,151.117 16.225 C 150.917 15.971,150.640 15.560,150.502 15.313 C 147.592 10.111,138.016 8.067,131.772 11.314 C 129.492 12.500,127.659 14.236,126.650 16.166 C 126.338 16.761,126.029 17.289,125.963 17.339 C 125.770 17.485,125.332 18.811,125.001 20.250 L 124.695 21.583 124.681 20.218 C 124.673 19.467,124.602 18.813,124.523 18.765 C 124.445 18.716,124.331 18.205,124.271 17.630 C 123.955 14.583,122.369 12.221,119.917 11.143 C 119.642 11.022,119.373 10.863,119.319 10.788 C 118.785 10.047,112.613 9.548,110.530 10.077 M201.250 9.938 C 201.067 9.974,200.504 10.082,200.000 10.178 C 199.077 10.354,198.154 10.652,198.000 10.824 C 197.954 10.875,197.452 11.135,196.884 11.401 C 195.922 11.853,193.500 13.904,193.500 14.268 C 193.500 14.350,193.314 14.632,193.087 14.896 C 191.750 16.452,191.299 20.468,192.168 23.085 C 192.497 24.076,193.968 26.000,194.396 26.000 C 194.499 26.000,194.795 26.183,195.055 26.406 C 195.500 26.788,198.082 27.833,198.582 27.833 C 198.710 27.833,198.856 27.902,198.908 27.987 C 198.998 28.132,199.991 28.373,203.792 29.177 C 204.685 29.366,205.567 29.585,205.750 29.664 C 205.933 29.743,206.646 29.967,207.333 30.161 C 209.224 30.696,209.441 30.810,209.905 31.512 C 211.290 33.605,209.334 35.184,205.360 35.180 C 201.812 35.177,200.017 34.296,199.498 32.301 C 199.395 31.906,199.222 31.377,199.115 31.125 L 198.919 30.667 194.776 30.667 L 190.633 30.667 190.746 31.875 C 191.070 35.324,193.190 38.765,195.751 39.998 C 196.209 40.219,196.673 40.488,196.783 40.596 C 197.825 41.620,205.535 42.218,209.472 41.580 C 210.967 41.337,212.992 40.758,213.167 40.522 C 213.212 40.461,213.438 40.318,213.667 40.206 C 216.013 39.058,217.912 36.596,218.449 34.008 C 218.865 31.999,218.489 28.413,217.839 28.196 C 217.744 28.165,217.667 28.058,217.667 27.959 C 217.667 27.358,215.474 25.000,214.914 25.000 C 214.862 25.000,214.667 24.858,214.481 24.685 C 214.154 24.380,211.966 23.498,211.542 23.499 C 211.427 23.500,211.333 23.439,211.333 23.364 C 211.333 23.208,209.812 22.844,206.917 22.307 C 205.817 22.103,204.879 21.889,204.833 21.832 C 204.787 21.776,204.300 21.632,203.750 21.513 C 200.477 20.806,199.392 19.859,200.059 18.293 C 201.408 15.123,208.654 16.080,209.365 19.522 L 209.567 20.500 213.607 20.500 C 215.829 20.500,217.677 20.444,217.715 20.375 C 218.043 19.769,216.888 15.582,216.141 14.670 C 215.880 14.352,215.667 14.007,215.667 13.904 C 215.667 13.365,212.220 11.000,211.435 11.000 C 211.303 11.000,211.168 10.921,211.136 10.825 C 210.919 10.175,203.450 9.504,201.250 9.938 M7.826 11.061 C 4.947 11.836,4.056 15.234,6.194 17.283 C 9.252 20.215,14.152 16.538,12.061 12.881 C 11.196 11.367,9.459 10.621,7.826 11.061 M140.683 16.861 C 140.995 16.967,141.287 17.099,141.333 17.153 C 141.379 17.206,141.606 17.348,141.837 17.467 C 143.070 18.100,144.204 19.772,144.432 21.293 C 144.490 21.684,144.605 22.045,144.686 22.095 C 145.504 22.601,144.830 22.667,138.855 22.667 L 132.876 22.667 133.022 21.875 C 133.304 20.346,134.616 17.978,135.302 17.760 C 135.470 17.707,135.764 17.518,135.954 17.341 C 136.634 16.707,139.412 16.425,140.683 16.861 M244.064 16.867 C 244.441 16.977,244.787 17.116,244.833 17.175 C 244.879 17.235,245.239 17.486,245.633 17.732 C 246.027 17.979,246.569 18.534,246.836 18.966 C 247.103 19.397,247.403 19.845,247.503 19.961 C 247.653 20.135,248.153 22.091,248.164 22.542 C 248.165 22.610,245.477 22.667,242.190 22.667 L 236.213 22.667 236.290 22.208 C 236.544 20.699,237.763 18.418,238.636 17.821 C 238.960 17.599,239.306 17.338,239.405 17.242 C 239.950 16.710,242.753 16.484,244.064 16.867 M283.901 17.792 C 283.672 18.410,283.383 19.142,283.258 19.417 C 282.319 21.489,282.206 29.293,283.074 32.047 C 283.196 32.434,283.491 33.256,283.730 33.875 L 284.164 35.000 282.759 35.000 C 281.209 35.000,280.538 34.823,280.400 34.378 C 280.350 34.216,280.239 33.953,280.155 33.794 C 280.065 33.627,280.000 29.937,280.000 25.086 L 280.000 16.667 282.159 16.667 L 284.318 16.667 283.901 17.792 M298.750 16.853 C 299.117 16.954,299.454 17.095,299.500 17.166 C 299.546 17.237,299.846 17.442,300.167 17.620 C 301.394 18.302,302.410 20.046,302.744 22.042 L 302.848 22.667 296.835 22.667 C 291.162 22.667,290.830 22.650,290.970 22.375 C 291.052 22.215,291.208 21.719,291.316 21.273 C 292.180 17.735,295.278 15.893,298.750 16.853 M80.833 17.777 C 78.244 18.886,77.774 22.079,79.921 23.969 C 82.872 26.567,87.141 23.499,85.793 19.750 C 85.169 18.012,82.636 17.005,80.833 17.777 M229.833 45.917 L 229.833 50.167 227.833 50.167 L 225.833 50.167 225.833 52.000 C 225.833 54.003,225.747 54.163,225.192 53.177 C 224.989 52.816,224.507 52.272,224.121 51.968 C 223.734 51.665,223.299 51.317,223.153 51.195 C 223.008 51.073,222.445 50.784,221.903 50.552 C 221.360 50.321,220.614 49.992,220.244 49.822 C 218.431 48.987,211.551 48.708,209.242 49.375 C 207.768 49.802,205.581 50.945,204.733 51.732 C 204.284 52.149,203.867 52.493,203.807 52.495 C 203.534 52.507,201.837 55.353,201.568 56.250 C 201.156 57.627,201.155 60.711,201.566 62.050 C 201.847 62.967,203.290 65.000,203.660 65.000 C 203.741 65.000,204.029 65.186,204.298 65.413 C 204.568 65.640,205.380 66.055,206.103 66.335 C 206.825 66.615,207.541 66.913,207.692 66.997 C 208.051 67.195,209.491 67.557,211.667 67.995 C 212.629 68.189,213.567 68.416,213.750 68.499 C 213.933 68.583,214.908 68.851,215.917 69.096 C 218.925 69.827,219.833 70.452,219.833 71.793 C 219.833 73.520,218.210 74.350,214.836 74.347 C 211.104 74.343,209.280 73.349,208.910 71.116 C 208.684 69.747,208.991 69.833,204.327 69.833 L 200.167 69.833 200.172 70.208 C 200.185 71.164,200.520 73.078,200.772 73.634 C 201.882 76.089,202.076 76.399,203.220 77.548 C 203.878 78.209,204.717 78.900,205.083 79.083 C 205.450 79.267,205.790 79.470,205.839 79.535 C 206.635 80.594,214.402 81.406,218.367 80.845 C 222.411 80.274,225.475 78.523,226.865 75.992 C 227.077 75.606,227.348 75.113,227.467 74.896 C 228.074 73.794,228.328 70.956,227.988 69.072 C 227.643 67.156,225.198 64.000,224.059 64.000 C 223.935 64.000,223.833 63.932,223.833 63.849 C 223.833 63.688,221.507 62.667,221.137 62.666 C 221.016 62.665,220.721 62.563,220.482 62.438 C 219.971 62.171,219.337 62.024,215.667 61.317 C 214.154 61.026,212.879 60.734,212.833 60.668 C 212.787 60.602,212.375 60.459,211.916 60.351 C 207.948 59.410,208.843 55.882,213.096 55.696 C 214.901 55.617,216.409 55.769,216.708 56.060 C 216.823 56.171,217.200 56.436,217.547 56.648 C 218.248 57.077,218.769 57.954,218.934 58.985 L 219.043 59.667 223.205 59.667 L 227.367 59.667 227.286 58.958 C 227.242 58.569,227.084 57.725,226.936 57.083 C 226.788 56.442,226.667 55.898,226.667 55.875 C 226.667 55.852,227.379 55.833,228.250 55.833 L 229.833 55.833 229.833 65.445 C 229.833 74.469,229.945 77.167,230.317 77.167 C 230.381 77.167,230.526 77.424,230.640 77.739 C 230.818 78.232,231.140 78.577,232.309 79.529 C 233.208 80.261,236.805 80.699,240.500 80.528 L 242.917 80.417 243.000 77.917 L 243.083 75.417 243.451 76.000 C 244.040 76.935,245.670 78.286,247.083 79.011 C 247.450 79.199,247.975 79.494,248.250 79.666 C 251.076 81.437,260.765 81.378,262.565 79.578 C 262.699 79.444,262.870 79.333,262.945 79.333 C 263.393 79.333,266.009 77.149,266.664 76.229 C 268.189 74.087,268.542 73.351,268.915 71.542 L 269.026 71.000 264.783 71.000 L 260.540 71.000 260.344 71.458 C 258.937 74.750,253.531 75.406,250.755 72.622 C 249.960 71.824,249.167 70.321,249.167 69.610 C 249.167 69.495,249.099 69.329,249.017 69.242 C 248.935 69.155,248.815 68.690,248.751 68.208 L 248.635 67.333 259.068 67.333 L 269.500 67.333 269.500 73.750 L 269.500 80.167 273.583 80.167 L 277.667 80.167 277.667 72.768 C 277.667 61.201,278.039 59.483,280.817 58.233 C 281.330 58.002,281.891 57.736,282.063 57.641 C 282.414 57.450,284.905 57.178,286.375 57.171 L 287.333 57.167 287.333 53.083 L 287.333 49.000 285.702 49.000 C 282.181 49.000,279.425 50.635,277.694 53.750 C 277.423 54.239,277.416 54.197,277.370 51.958 L 277.324 49.667 273.412 49.667 L 269.500 49.667 269.500 56.510 C 269.500 62.987,269.351 64.972,269.109 61.714 C 268.962 59.738,268.163 56.686,267.702 56.339 C 267.637 56.290,267.366 55.827,267.099 55.310 C 266.611 54.363,265.797 53.294,264.965 52.509 C 263.589 51.210,263.209 50.979,260.370 49.722 C 258.163 48.744,249.333 48.850,249.333 49.854 C 249.333 49.934,249.237 50.000,249.120 50.000 C 248.800 50.000,246.500 51.133,246.500 51.291 C 246.500 51.366,246.256 51.569,245.958 51.742 C 245.289 52.130,243.531 53.936,243.273 54.500 C 243.118 54.840,243.075 54.478,243.037 52.542 L 242.991 50.167 240.495 50.167 L 238.000 50.167 238.000 45.917 L 238.000 41.667 233.917 41.667 L 229.833 41.667 229.833 45.917 M110.750 49.106 C 109.909 49.277,108.500 49.730,108.500 49.830 C 108.500 49.891,108.181 50.101,107.792 50.296 C 107.108 50.639,105.692 51.978,105.114 52.829 C 104.843 53.227,104.833 53.180,104.833 51.454 L 104.833 49.667 100.833 49.667 L 96.833 49.667 96.833 64.917 L 96.833 80.167 100.906 80.167 L 104.979 80.167 105.039 69.875 C 105.109 57.741,105.133 57.583,107.105 56.578 C 107.460 56.398,107.803 56.175,107.869 56.083 C 108.185 55.639,111.547 55.892,112.327 56.419 C 114.316 57.762,114.331 57.864,114.332 70.208 L 114.333 80.167 118.494 80.167 L 122.655 80.167 122.702 69.875 L 122.750 59.583 123.417 58.343 C 124.410 56.494,125.433 55.917,127.714 55.917 C 128.615 55.917,129.399 55.992,129.464 56.084 C 129.530 56.176,129.904 56.468,130.295 56.734 C 131.804 57.758,131.743 57.242,131.799 69.458 L 131.847 80.167 136.090 80.167 L 140.333 80.167 140.353 75.458 C 140.364 72.869,140.420 69.737,140.478 68.500 L 140.583 66.250 140.700 67.583 C 140.837 69.137,141.264 71.106,141.568 71.583 C 141.684 71.767,141.917 72.292,142.085 72.750 C 142.978 75.181,146.692 79.333,147.973 79.333 C 148.079 79.333,148.167 79.403,148.167 79.488 C 148.167 79.737,149.953 80.339,151.714 80.682 C 155.559 81.432,163.361 80.708,164.158 79.527 C 164.208 79.452,164.653 79.173,165.145 78.908 C 166.228 78.324,168.407 76.050,169.080 74.801 C 169.343 74.315,169.615 73.878,169.685 73.830 C 169.867 73.706,170.819 71.287,170.943 70.632 C 171.000 70.330,171.105 70.008,171.176 69.917 C 171.892 68.988,171.888 61.570,171.170 60.189 C 171.092 60.039,170.871 59.392,170.678 58.750 C 170.241 57.300,169.827 56.333,169.641 56.333 C 169.564 56.333,169.500 56.250,169.500 56.149 C 169.500 56.048,169.275 55.632,169.000 55.224 C 168.725 54.817,168.500 54.416,168.500 54.333 C 168.500 54.251,168.389 54.121,168.253 54.045 C 168.118 53.969,167.820 53.647,167.591 53.329 C 166.661 52.034,164.055 50.364,161.750 49.586 C 159.130 48.702,152.071 48.841,149.920 49.820 C 149.551 49.987,148.781 50.335,148.209 50.593 C 147.636 50.850,147.004 51.235,146.805 51.447 C 146.605 51.660,146.355 51.833,146.248 51.833 C 145.992 51.833,144.237 53.727,143.704 54.579 C 143.473 54.948,143.224 55.289,143.152 55.337 C 143.079 55.385,142.746 56.023,142.413 56.754 C 142.079 57.485,141.728 58.228,141.633 58.405 C 141.235 59.144,140.682 61.755,140.641 63.083 C 140.627 63.542,140.556 62.417,140.483 60.583 C 140.334 56.864,139.976 55.071,139.014 53.234 C 138.587 52.418,136.796 50.691,135.918 50.250 C 135.553 50.067,135.161 49.829,135.046 49.722 C 134.033 48.779,126.556 48.839,125.841 49.795 C 125.791 49.862,125.390 50.093,124.951 50.307 C 124.061 50.742,122.378 52.296,121.910 53.116 C 121.547 53.751,121.470 53.721,121.003 52.755 C 120.589 51.901,119.036 50.253,118.477 50.076 C 118.269 50.010,118.002 49.860,117.885 49.742 C 117.326 49.184,112.491 48.753,110.750 49.106 M185.676 49.334 C 184.994 49.518,184.394 49.732,184.343 49.809 C 184.292 49.887,183.950 50.090,183.583 50.261 C 182.852 50.602,180.923 52.454,180.758 52.975 C 180.415 54.054,180.167 53.466,180.167 51.578 L 180.167 49.667 176.250 49.667 L 172.333 49.667 172.333 64.917 L 172.333 80.167 176.492 80.167 L 180.652 80.167 180.704 70.458 C 180.763 59.266,180.751 59.369,182.275 57.674 C 184.658 55.024,189.458 55.230,190.788 58.039 C 191.503 59.551,191.552 60.290,191.616 70.458 L 191.677 80.167 195.847 80.167 L 200.017 80.167 199.956 68.458 C 199.889 55.502,199.928 55.979,198.774 53.705 C 198.020 52.218,196.859 51.063,195.458 50.406 C 194.885 50.137,194.379 49.869,194.333 49.810 C 193.759 49.074,187.848 48.749,185.676 49.334 M159.305 56.590 C 161.242 57.622,162.408 59.520,162.849 62.360 C 163.227 64.792,162.834 69.139,162.119 70.428 C 161.561 71.435,160.645 72.667,160.330 72.835 C 160.134 72.940,159.838 73.162,159.671 73.329 C 158.716 74.284,154.897 74.461,153.167 73.631 C 151.560 72.861,150.450 71.513,149.832 69.583 C 149.714 69.217,149.558 68.877,149.485 68.829 C 148.972 68.492,148.955 61.701,149.467 61.343 C 149.540 61.292,149.698 60.913,149.818 60.500 C 150.992 56.476,155.558 54.594,159.305 56.590 M242.240 56.125 C 242.168 56.285,241.914 56.979,241.674 57.667 C 241.434 58.355,241.186 59.001,241.122 59.103 C 240.273 60.478,240.301 69.375,241.161 71.417 C 241.239 71.600,241.495 72.294,241.731 72.958 L 242.160 74.167 240.617 74.167 C 238.963 74.167,238.333 73.937,238.333 73.334 C 238.333 73.161,238.258 72.973,238.167 72.917 C 238.059 72.850,238.000 69.804,238.000 64.323 L 238.000 55.833 240.184 55.833 C 242.203 55.833,242.359 55.855,242.240 56.125 M257.426 56.416 C 258.276 56.825,258.802 57.210,259.189 57.708 C 259.493 58.098,259.798 58.458,259.868 58.508 C 260.053 58.642,260.597 60.301,260.726 61.125 L 260.837 61.833 254.815 61.833 C 250.020 61.833,248.826 61.791,248.958 61.625 C 249.049 61.510,249.176 61.117,249.240 60.750 C 249.940 56.775,253.859 54.700,257.426 56.416 " stroke="none" fill="#040404" fill-rule="evenodd"></path><path id="path3" d="M5.906 12.042 L 5.417 12.583 5.958 12.094 C 6.256 11.825,6.500 11.581,6.500 11.552 C 6.500 11.423,6.362 11.537,5.906 12.042 M11.500 12.083 C 11.811 12.404,12.103 12.667,12.149 12.667 C 12.195 12.667,11.978 12.404,11.667 12.083 C 11.356 11.762,11.064 11.500,11.018 11.500 C 10.972 11.500,11.189 11.762,11.500 12.083 M11.406 17.375 L 10.917 17.917 11.458 17.427 C 11.756 17.158,12.000 16.914,12.000 16.885 C 12.000 16.757,11.862 16.870,11.406 17.375 " stroke="none" fill="#7c7c7c" fill-rule="evenodd"></path><path id="path4" d="M5.398 12.755 C 5.246 12.987,5.152 13.207,5.189 13.244 C 5.226 13.281,5.383 13.092,5.537 12.823 C 5.881 12.223,5.779 12.174,5.398 12.755 M5.500 16.719 C 5.500 16.748,5.744 16.991,6.042 17.260 L 6.583 17.750 6.094 17.208 C 5.638 16.703,5.500 16.590,5.500 16.719 M10.583 17.845 C 10.308 18.021,10.169 18.165,10.273 18.166 C 10.378 18.166,10.640 18.019,10.857 17.839 C 11.352 17.426,11.233 17.429,10.583 17.845 M78.604 19.923 C 78.547 20.072,78.506 20.319,78.514 20.472 C 78.522 20.625,78.595 20.529,78.675 20.258 C 78.833 19.732,78.777 19.472,78.604 19.923 M79.167 23.385 C 79.167 23.414,79.410 23.658,79.708 23.927 L 80.250 24.417 79.760 23.875 C 79.304 23.370,79.167 23.257,79.167 23.385 " stroke="none" fill="#747474" fill-rule="evenodd"></path></g></svg>