<svg id="svg" version="1.1" xmlns="http://www.w3.org/2000/svg" xmlns:xlink="http://www.w3.org/1999/xlink" width="400" height="400" viewBox="0, 0, 400,400"><g id="svgg"><path id="path0" d="M340.400 65.200 C 340.400 65.911,340.133 66.000,338.000 66.000 C 336.667 66.000,335.600 66.178,335.600 66.400 C 335.600 66.620,335.100 66.800,334.488 66.800 C 333.835 66.800,333.139 67.130,332.800 67.600 C 332.461 68.070,331.765 68.400,331.112 68.400 C 330.267 68.400,330.000 68.592,330.000 69.200 C 330.000 69.822,329.733 70.000,328.800 70.000 C 328.140 70.000,327.600 70.180,327.600 70.400 C 327.600 70.620,327.060 70.800,326.400 70.800 C 325.588 70.800,325.200 70.999,325.200 71.413 C 325.200 72.314,322.561 74.800,321.605 74.800 C 320.653 74.800,316.400 78.879,316.400 79.791 C 316.400 80.126,316.220 80.400,316.000 80.400 C 315.780 80.400,315.600 80.678,315.600 81.018 C 315.600 81.818,313.818 83.600,313.018 83.600 C 312.598 83.600,312.400 83.984,312.400 84.800 C 312.400 85.460,312.220 86.000,312.000 86.000 C 311.780 86.000,311.600 86.360,311.600 86.800 C 311.600 87.333,311.333 87.600,310.800 87.600 C 310.141 87.600,310.000 87.867,310.000 89.112 C 310.000 90.165,309.757 90.798,309.200 91.200 C 308.760 91.517,308.400 92.200,308.400 92.717 C 308.400 94.147,307.469 94.800,305.429 94.800 C 303.867 94.800,303.600 94.917,303.600 95.600 C 303.600 96.267,303.333 96.400,302.000 96.400 C 301.120 96.400,300.400 96.580,300.400 96.800 C 300.400 97.020,299.900 97.200,299.288 97.200 C 298.635 97.200,297.939 97.530,297.600 98.000 C 297.261 98.470,296.565 98.800,295.912 98.800 C 295.300 98.800,294.800 98.980,294.800 99.200 C 294.800 99.420,294.480 99.600,294.088 99.600 C 293.697 99.600,293.117 99.960,292.800 100.400 C 292.461 100.870,291.765 101.200,291.112 101.200 C 290.267 101.200,290.000 101.392,290.000 102.000 C 290.000 102.622,289.733 102.800,288.800 102.800 C 288.140 102.800,287.600 102.980,287.600 103.200 C 287.600 103.420,287.060 103.600,286.400 103.600 C 285.467 103.600,285.200 103.778,285.200 104.400 C 285.200 104.933,284.933 105.200,284.400 105.200 C 283.960 105.200,283.600 105.380,283.600 105.600 C 283.600 105.820,283.060 106.000,282.400 106.000 C 281.576 106.000,281.200 106.197,281.200 106.629 C 281.200 107.520,280.207 108.400,279.203 108.400 C 278.704 108.400,277.538 109.232,276.400 110.400 C 275.062 111.774,274.131 112.400,273.426 112.400 C 272.760 112.400,272.400 112.621,272.400 113.029 C 272.400 113.837,271.437 114.800,270.629 114.800 C 270.267 114.800,270.000 115.139,270.000 115.600 C 270.000 116.133,269.733 116.400,269.200 116.400 C 268.739 116.400,268.400 116.667,268.400 117.029 C 268.400 117.916,267.409 118.800,266.415 118.800 C 265.879 118.800,264.126 120.257,261.600 122.800 C 258.062 126.363,257.473 126.800,256.214 126.800 C 254.778 126.800,254.087 128.089,255.300 128.505 C 255.616 128.613,255.321 129.126,254.500 129.899 C 253.785 130.571,253.200 131.409,253.200 131.760 C 253.200 132.112,253.020 132.400,252.800 132.400 C 252.580 132.400,252.400 132.760,252.400 133.200 C 252.400 133.733,252.133 134.000,251.600 134.000 C 251.139 134.000,250.800 134.267,250.800 134.629 C 250.800 135.437,249.837 136.400,249.029 136.400 C 248.683 136.400,248.400 136.683,248.400 137.029 C 248.400 137.837,247.437 138.800,246.629 138.800 C 246.267 138.800,246.000 139.139,246.000 139.600 C 246.000 140.133,245.733 140.400,245.200 140.400 C 244.609 140.400,244.400 140.667,244.400 141.422 C 244.400 142.143,243.693 143.139,242.000 144.800 C 240.585 146.189,239.600 147.498,239.600 147.991 C 239.600 148.958,237.120 151.600,236.213 151.600 C 235.799 151.600,235.600 151.988,235.600 152.800 C 235.600 153.460,235.420 154.000,235.200 154.000 C 234.980 154.000,234.800 154.360,234.800 154.800 C 234.800 155.333,234.533 155.600,234.000 155.600 C 233.467 155.600,233.200 155.867,233.200 156.400 C 233.200 156.840,233.020 157.200,232.800 157.200 C 232.580 157.200,232.400 157.520,232.400 157.912 C 232.400 158.303,232.040 158.883,231.600 159.200 C 231.160 159.517,230.800 160.200,230.800 160.717 C 230.800 161.797,229.947 162.800,229.029 162.800 C 228.618 162.800,228.400 163.161,228.400 163.840 C 228.400 164.479,227.938 165.311,227.200 166.000 C 226.462 166.689,226.000 167.521,226.000 168.160 C 226.000 168.933,225.795 169.200,225.200 169.200 C 224.667 169.200,224.400 169.467,224.400 170.000 C 224.400 170.440,224.220 170.800,224.000 170.800 C 223.780 170.800,223.600 171.078,223.600 171.418 C 223.600 171.758,223.158 172.478,222.618 173.018 L 221.636 174.000 198.218 174.000 C 182.873 174.000,174.800 173.862,174.800 173.600 C 174.800 173.380,174.440 173.200,174.000 173.200 C 173.467 173.200,173.200 172.933,173.200 172.400 C 173.200 171.960,173.020 171.600,172.800 171.600 C 172.580 171.600,172.400 171.060,172.400 170.400 C 172.400 169.467,172.222 169.200,171.600 169.200 C 171.005 169.200,170.800 168.933,170.800 168.160 C 170.800 167.521,170.338 166.689,169.600 166.000 C 168.862 165.311,168.400 164.479,168.400 163.840 C 168.400 163.161,168.182 162.800,167.771 162.800 C 166.880 162.800,166.000 161.807,166.000 160.803 C 166.000 160.304,165.168 159.138,164.000 158.000 C 162.626 156.662,162.000 155.731,162.000 155.026 C 162.000 154.360,161.779 154.000,161.371 154.000 C 160.563 154.000,159.600 153.037,159.600 152.229 C 159.600 151.867,159.261 151.600,158.800 151.600 C 158.209 151.600,158.000 151.333,158.000 150.578 C 158.000 149.857,157.293 148.861,155.600 147.200 C 153.907 145.539,153.200 144.543,153.200 143.822 C 153.200 143.067,152.991 142.800,152.400 142.800 C 151.939 142.800,151.600 142.533,151.600 142.171 C 151.600 141.363,150.637 140.400,149.829 140.400 C 149.483 140.400,149.200 140.117,149.200 139.771 C 149.200 138.963,148.237 138.000,147.429 138.000 C 147.083 138.000,146.800 137.712,146.800 137.360 C 146.800 137.009,146.260 136.217,145.600 135.600 C 144.940 134.983,144.400 134.263,144.400 134.000 C 144.400 133.737,143.860 133.017,143.200 132.400 C 142.540 131.783,142.000 130.991,142.000 130.640 C 142.000 130.288,141.727 130.000,141.393 130.000 C 140.601 130.000,135.600 124.999,135.600 124.207 C 135.600 123.799,135.207 123.600,134.400 123.600 C 133.740 123.600,133.200 123.420,133.200 123.200 C 133.200 122.980,132.840 122.800,132.400 122.800 C 131.939 122.800,131.600 122.533,131.600 122.171 C 131.600 121.363,130.637 120.400,129.829 120.400 C 129.483 120.400,129.200 120.124,129.200 119.787 C 129.200 118.878,126.557 116.400,125.587 116.400 C 125.107 116.400,123.916 115.546,122.800 114.400 C 121.729 113.300,120.570 112.400,120.226 112.400 C 119.882 112.400,119.600 112.220,119.600 112.000 C 119.600 111.780,119.240 111.600,118.800 111.600 C 118.267 111.600,118.000 111.333,118.000 110.800 C 118.000 110.205,117.733 110.000,116.960 110.000 C 116.321 110.000,115.489 109.538,114.800 108.800 C 114.111 108.062,113.279 107.600,112.640 107.600 C 111.867 107.600,111.600 107.395,111.600 106.800 C 111.600 106.205,111.333 106.000,110.560 106.000 C 109.921 106.000,109.089 105.538,108.400 104.800 C 107.711 104.062,106.879 103.600,106.240 103.600 C 105.668 103.600,105.200 103.420,105.200 103.200 C 105.200 102.980,104.660 102.800,104.000 102.800 C 103.067 102.800,102.800 102.622,102.800 102.000 C 102.800 101.307,102.533 101.200,100.800 101.200 C 99.067 101.200,98.800 101.093,98.800 100.400 C 98.800 99.778,98.533 99.600,97.600 99.600 C 96.940 99.600,96.400 99.420,96.400 99.200 C 96.400 98.980,95.720 98.800,94.888 98.800 C 93.835 98.800,93.202 98.557,92.800 98.000 C 92.483 97.560,91.903 97.200,91.512 97.200 C 91.096 97.200,90.800 96.904,90.800 96.488 C 90.800 96.097,90.440 95.517,90.000 95.200 C 89.530 94.861,89.200 94.165,89.200 93.512 C 89.200 92.667,89.008 92.400,88.400 92.400 C 87.805 92.400,87.600 92.133,87.600 91.360 C 87.600 90.721,87.138 89.889,86.400 89.200 C 85.740 88.583,85.200 87.688,85.200 87.211 C 85.200 86.194,84.324 85.200,83.429 85.200 C 83.067 85.200,82.800 84.861,82.800 84.400 C 82.800 83.960,82.620 83.600,82.400 83.600 C 82.180 83.600,82.000 83.318,82.000 82.974 C 82.000 82.630,81.100 81.471,80.000 80.400 C 78.900 79.329,78.000 78.170,78.000 77.826 C 78.000 77.397,77.622 77.200,76.800 77.200 C 76.140 77.200,75.600 77.020,75.600 76.800 C 75.600 76.580,75.240 76.400,74.800 76.400 C 74.267 76.400,74.000 76.133,74.000 75.600 C 74.000 75.005,73.733 74.800,72.960 74.800 C 72.321 74.800,71.489 74.338,70.800 73.600 C 70.111 72.862,69.279 72.400,68.640 72.400 C 67.867 72.400,67.600 72.195,67.600 71.600 C 67.600 70.978,67.333 70.800,66.400 70.800 C 65.740 70.800,65.200 70.620,65.200 70.400 C 65.200 70.180,64.300 70.000,63.200 70.000 C 61.467 70.000,61.200 69.893,61.200 69.200 C 61.200 68.467,60.933 68.400,58.000 68.400 C 55.067 68.400,54.800 68.333,54.800 67.600 C 54.800 66.831,54.533 66.800,48.000 66.800 C 41.467 66.800,41.200 66.831,41.200 67.600 C 41.200 68.333,40.933 68.400,38.000 68.400 C 35.067 68.400,34.800 68.467,34.800 69.200 C 34.800 69.893,34.533 70.000,32.800 70.000 C 31.700 70.000,30.800 70.180,30.800 70.400 C 30.800 70.620,30.260 70.800,29.600 70.800 C 28.667 70.800,28.400 70.978,28.400 71.600 C 28.400 72.222,28.133 72.400,27.200 72.400 C 26.540 72.400,26.000 72.580,26.000 72.800 C 26.000 73.020,25.460 73.200,24.800 73.200 C 23.867 73.200,23.600 73.378,23.600 74.000 C 23.600 74.533,23.333 74.800,22.800 74.800 C 22.267 74.800,22.000 75.067,22.000 75.600 C 22.000 76.188,21.733 76.400,20.995 76.400 C 19.863 76.400,11.600 84.312,11.600 85.395 C 11.600 85.728,11.420 86.000,11.200 86.000 C 10.980 86.000,10.800 86.360,10.800 86.800 C 10.800 87.333,10.533 87.600,10.000 87.600 C 9.378 87.600,9.200 87.867,9.200 88.800 C 9.200 89.460,9.020 90.000,8.800 90.000 C 8.580 90.000,8.400 90.540,8.400 91.200 C 8.400 92.133,8.222 92.400,7.600 92.400 C 6.978 92.400,6.800 92.667,6.800 93.600 C 6.800 94.260,6.620 94.800,6.400 94.800 C 6.180 94.800,6.000 95.340,6.000 96.000 C 6.000 96.660,5.820 97.200,5.600 97.200 C 5.380 97.200,5.200 97.560,5.200 98.000 C 5.200 98.440,5.020 98.800,4.800 98.800 C 4.580 98.800,4.400 99.700,4.400 100.800 C 4.400 101.900,4.220 102.800,4.000 102.800 C 3.744 102.800,3.600 106.267,3.600 112.400 C 3.600 118.533,3.744 122.000,4.000 122.000 C 4.222 122.000,4.400 123.067,4.400 124.400 C 4.400 126.533,4.489 126.800,5.200 126.800 C 5.893 126.800,6.000 127.067,6.000 128.800 C 6.000 129.900,6.180 130.800,6.400 130.800 C 6.620 130.800,6.800 131.340,6.800 132.000 C 6.800 132.933,6.978 133.200,7.600 133.200 C 8.195 133.200,8.400 133.467,8.400 134.240 C 8.400 134.879,8.862 135.711,9.600 136.400 C 10.338 137.089,10.800 137.921,10.800 138.560 C 10.800 139.239,11.018 139.600,11.429 139.600 C 12.237 139.600,13.200 140.563,13.200 141.371 C 13.200 141.717,13.483 142.000,13.829 142.000 C 14.637 142.000,15.600 142.963,15.600 143.771 C 15.600 144.117,15.876 144.400,16.213 144.400 C 17.009 144.400,19.600 146.991,19.600 147.787 C 19.600 148.133,19.948 148.400,20.400 148.400 C 20.840 148.400,21.200 148.580,21.200 148.800 C 21.200 149.020,21.484 149.200,21.831 149.200 C 22.179 149.200,23.154 149.920,24.000 150.800 C 25.014 151.855,25.888 152.400,26.569 152.400 C 27.136 152.400,27.600 152.580,27.600 152.800 C 27.600 153.020,27.920 153.200,28.312 153.200 C 28.703 153.200,29.283 153.560,29.600 154.000 C 30.002 154.557,30.635 154.800,31.688 154.800 C 32.520 154.800,33.200 154.980,33.200 155.200 C 33.200 155.421,34.237 155.600,35.512 155.600 C 37.365 155.600,37.938 155.759,38.400 156.400 C 39.294 157.640,56.706 157.640,57.600 156.400 C 58.062 155.759,58.635 155.600,60.488 155.600 C 61.763 155.600,62.800 155.421,62.800 155.200 C 62.800 154.980,63.300 154.800,63.912 154.800 C 64.565 154.800,65.261 154.470,65.600 154.000 C 66.002 153.443,66.635 153.200,67.688 153.200 C 68.796 153.200,69.200 153.032,69.200 152.571 C 69.200 151.676,70.194 150.800,71.211 150.800 C 71.688 150.800,72.583 150.260,73.200 149.600 C 73.889 148.862,74.721 148.400,75.360 148.400 C 76.133 148.400,76.400 148.195,76.400 147.600 C 76.400 147.067,76.667 146.800,77.200 146.800 C 77.661 146.800,78.000 146.533,78.000 146.171 C 78.000 145.363,78.963 144.400,79.771 144.400 C 80.117 144.400,80.400 144.117,80.400 143.771 C 80.400 142.963,81.363 142.000,82.171 142.000 C 82.533 142.000,82.800 141.661,82.800 141.200 C 82.800 140.667,83.067 140.400,83.600 140.400 C 84.195 140.400,84.400 140.133,84.400 139.360 C 84.400 138.721,84.862 137.889,85.600 137.200 C 86.338 136.511,86.800 135.679,86.800 135.040 C 86.800 134.093,86.944 134.000,88.400 134.000 C 89.733 134.000,90.000 134.133,90.000 134.800 C 90.000 135.467,90.267 135.600,91.600 135.600 C 92.480 135.600,93.200 135.780,93.200 136.000 C 93.200 136.220,93.560 136.400,94.000 136.400 C 94.533 136.400,94.800 136.667,94.800 137.200 C 94.800 137.808,95.067 138.000,95.912 138.000 C 96.565 138.000,97.261 138.330,97.600 138.800 C 97.917 139.240,98.600 139.600,99.117 139.600 C 100.197 139.600,101.200 140.453,101.200 141.371 C 101.200 141.803,101.576 142.000,102.400 142.000 C 103.060 142.000,103.600 142.180,103.600 142.400 C 103.600 142.620,103.960 142.800,104.400 142.800 C 104.855 142.800,105.200 143.067,105.200 143.418 C 105.200 144.311,107.022 146.000,107.986 146.000 C 109.253 146.000,118.800 155.708,118.800 156.996 C 118.800 157.733,119.012 158.000,119.600 158.000 C 120.062 158.000,120.400 158.267,120.400 158.631 C 120.400 158.979,121.120 159.954,122.000 160.800 C 123.055 161.814,123.600 162.688,123.600 163.369 C 123.600 164.133,123.807 164.400,124.400 164.400 C 124.995 164.400,125.200 164.667,125.200 165.440 C 125.200 166.079,125.662 166.911,126.400 167.600 C 127.138 168.289,127.600 169.121,127.600 169.760 C 127.600 170.533,127.805 170.800,128.400 170.800 C 129.022 170.800,129.200 171.067,129.200 172.000 C 129.200 172.660,129.380 173.200,129.600 173.200 C 129.820 173.200,130.000 173.380,130.000 173.600 C 130.000 173.861,123.067 174.000,110.000 174.000 C 90.267 174.000,90.000 174.011,90.000 174.800 C 90.000 175.511,89.733 175.600,87.600 175.600 C 86.267 175.600,85.200 175.778,85.200 176.000 C 85.200 176.220,84.300 176.400,83.200 176.400 C 81.467 176.400,81.200 176.507,81.200 177.200 C 81.200 177.822,80.933 178.000,80.000 178.000 C 79.067 178.000,78.800 178.178,78.800 178.800 C 78.800 179.422,78.533 179.600,77.600 179.600 C 76.940 179.600,76.400 179.780,76.400 180.000 C 76.400 180.220,75.948 180.400,75.396 180.400 C 73.955 180.400,63.600 190.755,63.600 192.196 C 63.600 192.933,63.387 193.200,62.800 193.200 C 62.178 193.200,62.000 193.467,62.000 194.400 C 62.000 195.060,61.820 195.600,61.600 195.600 C 61.380 195.600,61.200 196.140,61.200 196.800 C 61.200 197.733,61.022 198.000,60.400 198.000 C 59.707 198.000,59.600 198.267,59.600 200.000 C 59.600 201.100,59.420 202.000,59.200 202.000 C 58.979 202.000,58.800 203.037,58.800 204.312 C 58.800 206.165,58.641 206.738,58.000 207.200 C 57.240 207.748,57.200 208.235,57.200 216.888 L 57.200 226.000 59.200 226.000 C 60.933 226.000,61.200 226.107,61.200 226.800 C 61.200 227.493,61.467 227.600,63.200 227.600 C 64.933 227.600,65.200 227.707,65.200 228.400 C 65.200 229.067,65.467 229.200,66.800 229.200 C 67.680 229.200,68.400 229.380,68.400 229.600 C 68.400 229.820,69.300 230.000,70.400 230.000 L 72.400 230.000 72.400 232.400 C 72.400 233.733,72.578 234.800,72.800 234.800 C 73.027 234.800,73.200 235.971,73.200 237.512 C 73.200 239.765,73.335 240.321,74.000 240.800 C 74.635 241.258,74.800 241.835,74.800 243.600 C 74.800 245.365,74.965 245.942,75.600 246.400 C 76.295 246.901,76.400 247.435,76.400 250.488 C 76.400 252.563,76.564 254.000,76.800 254.000 C 77.020 254.000,77.200 254.540,77.200 255.200 C 77.200 256.333,77.289 256.400,78.800 256.400 C 79.988 256.400,80.400 256.238,80.400 255.771 C 80.400 254.963,81.363 254.000,82.171 254.000 C 82.582 254.000,82.800 253.639,82.800 252.960 C 82.800 252.321,83.262 251.489,84.000 250.800 C 84.738 250.111,85.200 249.279,85.200 248.640 C 85.200 247.867,85.405 247.600,86.000 247.600 C 86.461 247.600,86.800 247.333,86.800 246.971 C 86.800 246.163,87.763 245.200,88.571 245.200 C 88.982 245.200,89.200 244.839,89.200 244.160 C 89.200 243.521,89.662 242.689,90.400 242.000 C 91.060 241.383,91.600 240.488,91.600 240.011 C 91.600 239.533,91.857 238.886,92.171 238.571 C 92.820 237.922,96.400 237.777,96.400 238.400 C 96.400 238.620,97.223 238.800,98.229 238.800 C 100.441 238.800,101.200 239.457,101.200 241.371 C 101.200 242.533,101.349 242.800,102.000 242.800 C 102.756 242.800,102.800 243.067,102.800 247.600 C 102.800 250.533,102.956 252.400,103.200 252.400 C 103.446 252.400,103.600 254.400,103.600 257.600 L 103.600 262.800 105.418 262.800 C 107.337 262.800,109.200 261.528,109.200 260.218 C 109.200 259.878,109.380 259.600,109.600 259.600 C 109.820 259.600,110.000 259.322,110.000 258.982 C 110.000 258.182,111.782 256.400,112.582 256.400 C 112.979 256.400,113.200 256.033,113.200 255.374 C 113.200 254.669,113.826 253.738,115.200 252.400 C 116.300 251.329,117.200 250.170,117.200 249.826 C 117.200 249.482,117.380 249.200,117.600 249.200 C 117.820 249.200,118.000 248.922,118.000 248.582 C 118.000 247.735,120.091 245.674,120.304 246.311 C 120.403 246.608,121.240 246.800,122.433 246.800 C 123.515 246.800,124.400 246.980,124.400 247.200 C 124.400 247.420,125.036 247.600,125.813 247.600 C 128.563 247.600,130.000 249.693,130.000 253.698 C 130.000 256.565,130.110 257.103,130.800 257.600 C 131.465 258.079,131.600 258.635,131.600 260.888 C 131.600 262.429,131.773 263.600,132.000 263.600 C 132.220 263.600,132.400 264.500,132.400 265.600 L 132.400 267.600 134.800 267.600 C 136.715 267.600,137.200 267.473,137.200 266.971 C 137.200 266.163,138.163 265.200,138.971 265.200 C 139.317 265.200,139.600 264.917,139.600 264.571 C 139.600 263.763,140.563 262.800,141.371 262.800 C 141.717 262.800,142.000 262.517,142.000 262.171 C 142.000 261.363,142.963 260.400,143.771 260.400 C 144.117 260.400,144.400 260.080,144.400 259.688 C 144.400 259.297,144.760 258.717,145.200 258.400 C 145.640 258.083,146.000 257.585,146.000 257.294 C 146.000 256.509,148.105 254.515,148.304 255.111 C 148.395 255.385,149.155 255.600,150.033 255.600 C 150.895 255.600,151.600 255.780,151.600 256.000 C 151.600 256.220,152.500 256.400,153.600 256.400 C 155.333 256.400,155.600 256.507,155.600 257.200 C 155.600 257.911,155.867 258.000,158.000 258.000 C 159.333 258.000,160.400 258.178,160.400 258.400 C 160.400 258.620,160.940 258.800,161.600 258.800 C 162.667 258.800,162.800 258.933,162.800 260.000 C 162.800 260.933,162.978 261.200,163.600 261.200 C 164.324 261.200,164.400 261.467,164.400 264.000 C 164.400 265.600,164.571 266.800,164.800 266.800 C 165.026 266.800,165.200 267.939,165.200 269.418 C 165.200 272.281,166.247 274.000,167.991 274.000 C 169.208 274.000,173.200 269.869,173.200 268.609 C 173.200 267.958,173.423 267.600,173.829 267.600 C 174.637 267.600,175.600 266.637,175.600 265.829 C 175.600 265.467,175.939 265.200,176.400 265.200 C 176.840 265.200,177.200 265.020,177.200 264.800 C 177.200 264.580,177.740 264.400,178.400 264.400 C 179.060 264.400,179.600 264.580,179.600 264.800 C 179.600 265.020,180.460 265.200,181.512 265.200 C 182.965 265.200,183.562 265.392,184.000 266.000 C 184.438 266.608,185.035 266.800,186.488 266.800 C 187.540 266.800,188.400 266.980,188.400 267.200 C 188.400 267.420,189.080 267.600,189.912 267.600 C 190.965 267.600,191.598 267.843,192.000 268.400 C 192.625 269.267,197.200 269.619,197.200 268.800 C 197.200 268.580,197.560 268.400,198.000 268.400 C 198.440 268.400,198.800 268.220,198.800 268.000 C 198.800 267.780,199.160 267.600,199.600 267.600 C 200.040 267.600,200.400 267.420,200.400 267.200 C 200.400 266.980,200.760 266.800,201.200 266.800 C 201.640 266.800,202.000 266.620,202.000 266.400 C 202.000 266.180,202.360 266.000,202.800 266.000 C 203.240 266.000,203.600 265.820,203.600 265.600 C 203.600 265.380,203.878 265.200,204.217 265.200 C 204.556 265.200,205.220 264.840,205.692 264.400 C 206.164 263.960,206.967 263.600,207.475 263.600 C 207.984 263.600,208.400 263.420,208.400 263.200 C 208.400 262.980,208.745 262.800,209.167 262.800 C 209.588 262.800,209.993 262.665,210.067 262.500 C 210.140 262.335,211.280 261.641,212.600 260.957 C 217.417 258.462,218.603 257.794,218.733 257.500 C 218.807 257.335,219.212 257.200,219.633 257.200 C 220.055 257.200,220.400 257.020,220.400 256.800 C 220.400 256.580,220.760 256.400,221.200 256.400 C 221.640 256.400,222.000 256.220,222.000 256.000 C 222.000 255.780,222.360 255.600,222.800 255.600 C 223.240 255.600,223.600 255.420,223.600 255.200 C 223.600 254.980,223.960 254.800,224.400 254.800 C 224.840 254.800,225.200 254.620,225.200 254.400 C 225.200 254.180,225.560 254.000,226.000 254.000 C 226.440 254.000,226.800 253.820,226.800 253.600 C 226.800 253.380,227.160 253.200,227.600 253.200 C 228.040 253.200,228.400 253.020,228.400 252.800 C 228.400 252.580,228.760 252.400,229.200 252.400 C 229.640 252.400,230.000 252.220,230.000 252.000 C 230.000 251.780,230.360 251.600,230.800 251.600 C 231.240 251.600,231.600 251.420,231.600 251.200 C 231.600 250.980,231.960 250.800,232.400 250.800 C 232.840 250.800,233.200 250.620,233.200 250.400 C 233.200 250.180,233.560 250.000,234.000 250.000 C 234.440 250.000,234.800 249.820,234.800 249.600 C 234.800 249.380,235.160 249.200,235.600 249.200 C 236.040 249.200,236.400 249.020,236.400 248.800 C 236.400 248.580,236.760 248.400,237.200 248.400 C 237.640 248.400,238.000 248.220,238.000 248.000 C 238.000 247.780,238.345 247.600,238.767 247.600 C 239.188 247.600,239.593 247.465,239.667 247.300 C 239.740 247.135,240.880 246.441,242.200 245.757 C 247.017 243.262,248.203 242.594,248.333 242.300 C 248.407 242.135,248.812 242.000,249.233 242.000 C 249.655 242.000,250.000 241.820,250.000 241.600 C 250.000 241.380,250.360 241.200,250.800 241.200 C 251.240 241.200,251.600 241.020,251.600 240.800 C 251.600 240.580,251.960 240.400,252.400 240.400 C 252.840 240.400,253.200 240.220,253.200 240.000 C 253.200 239.780,253.560 239.600,254.000 239.600 C 254.440 239.600,254.800 239.420,254.800 239.200 C 254.800 238.980,255.160 238.800,255.600 238.800 C 256.040 238.800,256.400 238.620,256.400 238.400 C 256.400 238.180,256.760 238.000,257.200 238.000 C 257.640 238.000,258.000 237.820,258.000 237.600 C 258.000 237.380,258.360 237.200,258.800 237.200 C 259.240 237.200,259.600 237.020,259.600 236.800 C 259.600 236.580,259.960 236.400,260.400 236.400 C 260.840 236.400,261.200 236.220,261.200 236.000 C 261.200 235.780,261.560 235.600,262.000 235.600 C 262.440 235.600,262.800 235.420,262.800 235.200 C 262.800 234.980,263.160 234.800,263.600 234.800 C 264.040 234.800,264.400 234.620,264.400 234.400 C 264.400 234.180,264.678 234.000,265.017 234.000 C 265.356 234.000,266.020 233.640,266.492 233.200 C 266.964 232.760,267.562 232.400,267.820 232.400 C 268.240 232.400,270.425 231.320,276.000 228.357 C 276.990 227.831,277.860 227.265,277.933 227.100 C 278.007 226.935,278.412 226.800,278.833 226.800 C 279.255 226.800,279.600 226.620,279.600 226.400 C 279.600 226.180,279.960 226.000,280.400 226.000 C 280.840 226.000,281.200 225.820,281.200 225.600 C 281.200 225.380,281.560 225.200,282.000 225.200 C 282.440 225.200,282.800 225.020,282.800 224.800 C 282.800 224.580,283.160 224.400,283.600 224.400 C 284.040 224.400,284.400 224.220,284.400 224.000 C 284.400 223.780,284.760 223.600,285.200 223.600 C 285.640 223.600,286.000 223.420,286.000 223.200 C 286.000 222.980,286.360 222.800,286.800 222.800 C 287.240 222.800,287.600 222.620,287.600 222.400 C 287.600 222.180,287.960 222.000,288.400 222.000 C 288.840 222.000,289.200 221.820,289.200 221.600 C 289.200 221.380,289.560 221.200,290.000 221.200 C 290.440 221.200,290.800 221.020,290.800 220.800 C 290.800 220.580,291.160 220.400,291.600 220.400 C 292.040 220.400,292.400 220.220,292.400 220.000 C 292.400 219.780,292.760 219.600,293.200 219.600 C 293.640 219.600,294.000 219.420,294.000 219.200 C 294.000 218.980,294.345 218.800,294.767 218.800 C 295.188 218.800,295.593 218.665,295.667 218.500 C 295.740 218.335,296.880 217.640,298.200 216.956 C 302.983 214.477,305.408 213.139,305.780 212.773 C 305.989 212.568,306.484 212.400,306.880 212.400 C 307.276 212.400,307.600 212.220,307.600 212.000 C 307.600 211.780,307.960 211.600,308.400 211.600 C 308.840 211.600,309.200 211.420,309.200 211.200 C 309.200 210.980,309.560 210.800,310.000 210.800 C 310.440 210.800,310.800 210.620,310.800 210.400 C 310.800 210.180,311.160 210.000,311.600 210.000 C 312.040 210.000,312.400 209.820,312.400 209.600 C 312.400 209.380,312.745 209.200,313.167 209.200 C 313.588 209.200,314.014 208.975,314.112 208.700 C 314.210 208.425,314.424 208.324,314.588 208.476 C 314.937 208.800,313.043 210.800,312.387 210.800 C 312.140 210.800,311.246 211.520,310.400 212.400 C 309.554 213.280,308.657 214.000,308.405 214.000 C 308.154 214.000,307.071 214.900,306.000 216.000 C 304.929 217.100,303.856 218.000,303.615 218.000 C 303.375 218.000,302.364 218.815,301.368 219.811 C 300.371 220.808,299.360 221.499,299.117 221.349 C 298.852 221.185,298.790 221.260,298.962 221.538 C 299.119 221.792,299.039 222.000,298.784 222.000 C 298.529 222.000,297.817 222.540,297.200 223.200 C 296.583 223.860,295.899 224.400,295.680 224.400 C 295.461 224.400,294.362 225.300,293.239 226.400 C 292.115 227.500,291.003 228.400,290.767 228.400 C 290.530 228.400,289.646 229.120,288.800 230.000 C 287.954 230.880,287.057 231.600,286.805 231.600 C 286.554 231.600,285.471 232.500,284.400 233.600 C 283.329 234.700,282.256 235.600,282.015 235.600 C 281.775 235.600,280.764 236.415,279.768 237.411 C 278.771 238.408,277.760 239.099,277.517 238.949 C 277.252 238.785,277.190 238.860,277.362 239.138 C 277.519 239.392,277.439 239.600,277.184 239.600 C 276.929 239.600,276.217 240.140,275.600 240.800 C 274.983 241.460,274.299 242.000,274.080 242.000 C 273.861 242.000,272.762 242.900,271.639 244.000 C 270.515 245.100,269.403 246.000,269.167 246.000 C 268.930 246.000,268.046 246.720,267.200 247.600 C 266.354 248.480,265.454 249.200,265.200 249.200 C 264.946 249.200,264.046 249.920,263.200 250.800 C 262.354 251.680,261.493 252.400,261.285 252.400 C 261.077 252.400,259.877 253.390,258.617 254.601 C 257.357 255.811,256.135 256.683,255.901 256.539 C 255.651 256.384,255.594 256.466,255.762 256.738 C 255.919 256.992,255.839 257.200,255.584 257.200 C 255.329 257.200,254.617 257.740,254.000 258.400 C 253.383 259.060,252.699 259.600,252.480 259.600 C 252.261 259.600,251.162 260.500,250.039 261.600 C 248.915 262.700,247.803 263.600,247.567 263.600 C 247.330 263.600,246.446 264.320,245.600 265.200 C 244.754 266.080,243.854 266.800,243.600 266.800 C 243.346 266.800,242.446 267.520,241.600 268.400 C 240.754 269.280,239.893 270.000,239.685 270.000 C 239.477 270.000,238.277 270.990,237.017 272.201 C 235.757 273.411,234.535 274.283,234.301 274.139 C 234.051 273.984,233.994 274.066,234.162 274.338 C 234.319 274.592,234.239 274.800,233.984 274.800 C 233.729 274.800,233.017 275.340,232.400 276.000 C 231.783 276.660,231.099 277.200,230.880 277.200 C 230.661 277.200,229.562 278.100,228.439 279.200 C 227.315 280.300,226.203 281.200,225.967 281.200 C 225.730 281.200,224.846 281.920,224.000 282.800 C 223.154 283.680,222.254 284.400,222.000 284.400 C 221.746 284.400,220.846 285.120,220.000 286.000 C 219.154 286.880,218.293 287.600,218.085 287.600 C 217.877 287.600,216.677 288.590,215.417 289.801 C 214.157 291.011,212.935 291.883,212.701 291.739 C 212.451 291.584,212.394 291.666,212.562 291.938 C 212.719 292.192,212.639 292.400,212.384 292.400 C 212.129 292.400,211.417 292.940,210.800 293.600 C 209.401 295.098,208.999 295.098,207.600 293.600 C 206.983 292.940,206.088 292.400,205.611 292.400 C 204.594 292.400,203.600 291.524,203.600 290.629 C 203.600 290.283,203.317 290.000,202.971 290.000 C 202.163 290.000,201.200 289.037,201.200 288.229 C 201.200 287.821,200.840 287.600,200.178 287.600 C 199.457 287.600,198.461 286.893,196.800 285.200 C 195.139 283.507,194.143 282.800,193.422 282.800 C 192.667 282.800,192.400 282.591,192.400 282.000 C 192.400 281.317,192.133 281.200,190.582 281.200 C 188.284 281.200,186.800 282.492,186.800 284.494 C 186.800 285.365,186.524 286.022,186.000 286.400 C 185.530 286.739,185.200 287.435,185.200 288.088 C 185.200 288.700,185.020 289.200,184.800 289.200 C 184.580 289.200,184.400 289.880,184.400 290.712 C 184.400 291.765,184.157 292.398,183.600 292.800 C 183.160 293.117,182.800 293.697,182.800 294.088 C 182.800 294.480,182.620 294.800,182.400 294.800 C 182.180 294.800,182.000 295.300,182.000 295.912 C 182.000 296.565,181.670 297.261,181.200 297.600 C 180.730 297.939,180.400 298.635,180.400 299.288 C 180.400 300.257,180.245 300.400,179.200 300.400 C 178.540 300.400,178.000 300.580,178.000 300.800 C 178.000 301.020,177.280 301.200,176.400 301.200 C 175.520 301.200,174.800 301.020,174.800 300.800 C 174.800 300.580,174.440 300.400,174.000 300.400 C 173.551 300.400,173.200 300.133,173.200 299.793 C 173.200 299.001,168.199 294.000,167.407 294.000 C 167.073 294.000,166.800 293.717,166.800 293.371 C 166.800 292.563,165.837 291.600,165.029 291.600 C 164.683 291.600,164.400 291.327,164.400 290.993 C 164.400 290.201,159.399 285.200,158.607 285.200 C 158.267 285.200,158.000 284.849,158.000 284.400 C 158.000 283.707,157.733 283.600,156.000 283.600 L 154.000 283.600 154.000 288.000 C 154.000 290.667,153.842 292.400,153.600 292.400 C 153.380 292.400,153.200 292.760,153.200 293.200 C 153.200 293.640,153.020 294.000,152.800 294.000 C 152.563 294.000,152.400 295.467,152.400 297.600 C 152.400 299.733,152.237 301.200,152.000 301.200 C 151.780 301.200,151.600 302.100,151.600 303.200 C 151.600 304.904,151.487 305.200,150.833 305.200 C 150.412 305.200,149.995 305.416,149.907 305.680 C 149.626 306.522,143.600 300.145,143.600 299.006 C 143.600 298.267,143.388 298.000,142.800 298.000 C 142.267 298.000,142.000 297.733,142.000 297.200 C 142.000 296.667,141.733 296.400,141.200 296.400 C 140.739 296.400,140.400 296.133,140.400 295.771 C 140.400 294.963,139.437 294.000,138.629 294.000 C 138.267 294.000,138.000 293.661,138.000 293.200 C 138.000 292.760,137.820 292.400,137.600 292.400 C 137.380 292.400,137.200 291.860,137.200 291.200 C 137.200 290.388,137.001 290.000,136.587 290.000 C 136.249 290.000,135.349 289.376,134.587 288.613 C 133.824 287.851,133.200 286.951,133.200 286.613 C 133.200 286.144,132.730 286.000,131.200 286.000 L 129.200 286.000 129.200 289.200 C 129.200 292.133,129.133 292.400,128.400 292.400 C 127.692 292.400,127.600 292.667,127.600 294.712 C 127.600 296.565,127.441 297.138,126.800 297.600 C 126.159 298.062,126.000 298.635,126.000 300.488 C 126.000 301.763,125.821 302.800,125.600 302.800 C 125.378 302.800,125.200 303.867,125.200 305.200 C 125.200 307.299,125.104 307.600,124.433 307.600 C 124.012 307.600,123.592 307.823,123.501 308.096 C 123.226 308.921,122.000 307.395,122.000 306.229 C 122.000 305.571,121.779 305.200,121.387 305.200 C 120.480 305.200,118.000 302.558,118.000 301.591 C 118.000 301.098,117.015 299.789,115.600 298.400 C 113.907 296.739,113.200 295.743,113.200 295.022 C 113.200 294.267,112.991 294.000,112.400 294.000 C 111.939 294.000,111.600 293.733,111.600 293.371 C 111.600 292.563,110.637 291.600,109.829 291.600 C 109.421 291.600,109.200 291.240,109.200 290.574 C 109.200 289.869,108.574 288.938,107.200 287.600 C 106.032 286.462,105.200 285.296,105.200 284.797 C 105.200 283.793,104.320 282.800,103.429 282.800 C 103.067 282.800,102.800 282.461,102.800 282.000 C 102.800 281.307,102.533 281.200,100.800 281.200 L 98.800 281.200 98.800 283.200 C 98.800 284.933,98.693 285.200,98.000 285.200 C 97.289 285.200,97.200 285.467,97.200 287.600 C 97.200 288.933,97.022 290.000,96.800 290.000 C 96.579 290.000,96.400 291.037,96.400 292.312 C 96.400 294.165,96.241 294.738,95.600 295.200 C 94.959 295.662,94.800 296.235,94.800 298.088 C 94.800 299.363,94.621 300.400,94.400 300.400 C 94.178 300.400,94.000 301.467,94.000 302.800 C 94.000 304.933,93.911 305.200,93.200 305.200 C 92.492 305.200,92.400 305.467,92.400 307.512 C 92.400 309.365,92.241 309.938,91.600 310.400 C 91.130 310.739,90.800 311.435,90.800 312.088 C 90.800 313.401,90.397 313.505,89.600 312.400 C 89.283 311.960,88.703 311.600,88.312 311.600 C 87.812 311.600,87.600 311.290,87.600 310.560 C 87.600 309.921,87.138 309.089,86.400 308.400 C 85.662 307.711,85.200 306.879,85.200 306.240 C 85.200 305.668,85.020 305.200,84.800 305.200 C 84.580 305.200,84.400 304.660,84.400 304.000 C 84.400 303.067,84.222 302.800,83.600 302.800 C 83.067 302.800,82.800 302.533,82.800 302.000 C 82.800 301.560,82.620 301.200,82.400 301.200 C 82.180 301.200,82.000 300.916,82.000 300.569 C 82.000 300.221,81.280 299.246,80.400 298.400 C 79.506 297.541,78.800 296.483,78.800 296.003 C 78.800 294.993,77.921 294.000,77.029 294.000 C 76.622 294.000,76.400 293.641,76.400 292.982 C 76.400 291.671,74.729 290.000,73.418 290.000 C 72.572 290.000,72.400 290.187,72.400 291.112 C 72.400 291.765,72.070 292.461,71.600 292.800 C 70.935 293.279,70.800 293.835,70.800 296.088 C 70.800 297.629,70.627 298.800,70.400 298.800 C 70.168 298.800,70.000 300.104,70.000 301.912 C 70.000 304.565,69.882 305.108,69.200 305.600 C 68.518 306.092,68.400 306.635,68.400 309.288 C 68.400 311.096,68.232 312.400,68.000 312.400 C 67.767 312.400,67.600 313.733,67.600 315.600 C 67.600 317.467,67.433 318.800,67.200 318.800 C 66.980 318.800,66.800 319.160,66.800 319.600 C 66.800 320.133,66.533 320.400,66.000 320.400 C 65.560 320.400,65.200 320.580,65.200 320.800 C 65.200 321.033,63.867 321.200,62.000 321.200 C 59.067 321.200,58.800 321.267,58.800 322.000 C 58.800 322.533,58.533 322.800,58.000 322.800 C 56.751 322.800,56.751 342.300,58.000 343.200 C 58.665 343.679,58.800 344.235,58.800 346.488 C 58.800 348.029,58.973 349.200,59.200 349.200 C 59.420 349.200,59.600 350.100,59.600 351.200 C 59.600 352.933,59.707 353.200,60.400 353.200 C 60.995 353.200,61.200 353.467,61.200 354.240 C 61.200 354.879,61.662 355.711,62.400 356.400 C 63.138 357.089,63.600 357.921,63.600 358.560 C 63.600 359.132,63.780 359.600,64.000 359.600 C 64.220 359.600,64.400 360.140,64.400 360.800 C 64.400 361.733,64.578 362.000,65.200 362.000 C 65.733 362.000,66.000 362.267,66.000 362.800 C 66.000 363.261,66.267 363.600,66.629 363.600 C 67.437 363.600,68.400 364.563,68.400 365.371 C 68.400 365.717,68.688 366.000,69.040 366.000 C 69.391 366.000,70.183 366.540,70.800 367.200 C 71.417 367.860,72.137 368.400,72.400 368.400 C 72.663 368.400,73.383 368.940,74.000 369.600 C 74.689 370.338,75.521 370.800,76.160 370.800 C 76.933 370.800,77.200 371.005,77.200 371.600 C 77.200 372.222,77.467 372.400,78.400 372.400 C 79.060 372.400,79.600 372.580,79.600 372.800 C 79.600 373.020,80.100 373.200,80.712 373.200 C 81.365 373.200,82.061 373.530,82.400 374.000 C 82.838 374.608,83.435 374.800,84.888 374.800 C 85.940 374.800,86.800 374.980,86.800 375.200 C 86.800 375.466,124.533 375.600,199.200 375.600 C 273.867 375.600,311.600 375.466,311.600 375.200 C 311.600 374.980,312.500 374.800,313.600 374.800 C 315.333 374.800,315.600 374.693,315.600 374.000 C 315.600 373.307,315.867 373.200,317.600 373.200 C 318.700 373.200,319.600 373.020,319.600 372.800 C 319.600 372.580,319.888 372.400,320.240 372.400 C 320.591 372.400,321.383 371.860,322.000 371.200 C 322.689 370.462,323.521 370.000,324.160 370.000 C 324.933 370.000,325.200 369.795,325.200 369.200 C 325.200 368.748,325.467 368.400,325.813 368.400 C 326.609 368.400,329.200 365.809,329.200 365.013 C 329.200 364.676,329.483 364.400,329.829 364.400 C 330.637 364.400,331.600 363.437,331.600 362.629 C 331.600 362.283,331.878 362.000,332.218 362.000 C 333.122 362.000,334.800 360.173,334.800 359.190 C 334.800 358.192,335.683 357.200,336.571 357.200 C 337.003 357.200,337.200 356.824,337.200 356.000 C 337.200 355.340,337.380 354.800,337.600 354.800 C 337.820 354.800,338.000 354.120,338.000 353.288 C 338.000 352.235,338.243 351.602,338.800 351.200 C 339.408 350.762,339.600 350.165,339.600 348.712 C 339.600 347.660,339.780 346.800,340.000 346.800 C 340.265 346.800,340.400 322.667,340.400 275.200 C 340.400 227.733,340.265 203.600,340.000 203.600 C 339.780 203.600,339.600 202.700,339.600 201.600 C 339.600 199.867,339.493 199.600,338.800 199.600 C 338.178 199.600,338.000 199.333,338.000 198.400 C 338.000 197.740,337.820 197.200,337.600 197.200 C 337.380 197.200,337.200 196.700,337.200 196.088 C 337.200 195.435,336.870 194.739,336.400 194.400 C 335.930 194.061,335.600 193.365,335.600 192.712 C 335.600 191.968,335.392 191.600,334.971 191.600 C 334.163 191.600,333.200 190.637,333.200 189.829 C 333.200 189.467,332.861 189.200,332.400 189.200 C 331.811 189.200,331.600 188.933,331.600 188.191 C 331.600 186.923,327.608 182.800,326.380 182.800 C 325.391 182.800,324.400 181.914,324.400 181.029 C 324.400 180.597,324.024 180.400,323.200 180.400 C 322.540 180.400,322.000 180.220,322.000 180.000 C 322.000 179.780,321.640 179.600,321.200 179.600 C 320.667 179.600,320.400 179.333,320.400 178.800 C 320.400 178.192,320.133 178.000,319.288 178.000 C 318.635 178.000,317.939 177.670,317.600 177.200 C 317.198 176.643,316.565 176.400,315.512 176.400 C 314.680 176.400,314.000 176.220,314.000 176.000 C 314.000 175.779,312.963 175.600,311.688 175.600 C 309.835 175.600,309.262 175.441,308.800 174.800 C 308.236 174.018,307.765 174.000,287.512 174.000 C 273.971 174.000,266.800 173.862,266.800 173.600 C 266.800 173.380,266.980 173.200,267.200 173.200 C 267.420 173.200,267.600 172.660,267.600 172.000 C 267.600 171.067,267.778 170.800,268.400 170.800 C 269.022 170.800,269.200 170.533,269.200 169.600 C 269.200 168.940,269.380 168.400,269.600 168.400 C 269.820 168.400,270.000 167.936,270.000 167.369 C 270.000 166.688,270.545 165.814,271.600 164.800 C 272.480 163.954,273.200 162.979,273.200 162.631 C 273.200 162.284,273.380 162.000,273.600 162.000 C 273.820 162.000,274.000 161.640,274.000 161.200 C 274.000 160.667,274.267 160.400,274.800 160.400 C 275.393 160.400,275.600 160.133,275.600 159.369 C 275.600 158.688,276.145 157.814,277.200 156.800 C 278.255 155.786,278.800 154.912,278.800 154.231 C 278.800 153.467,279.007 153.200,279.600 153.200 C 280.061 153.200,280.400 152.933,280.400 152.571 C 280.400 151.763,281.363 150.800,282.171 150.800 C 282.517 150.800,282.800 150.517,282.800 150.171 C 282.800 149.363,283.763 148.400,284.571 148.400 C 284.933 148.400,285.200 148.061,285.200 147.600 C 285.200 147.067,285.467 146.800,286.000 146.800 C 286.461 146.800,286.800 146.533,286.800 146.171 C 286.800 145.363,287.763 144.400,288.571 144.400 C 288.917 144.400,289.200 144.117,289.200 143.771 C 289.200 142.880,290.193 142.000,291.197 142.000 C 291.696 142.000,292.862 141.168,294.000 140.000 C 295.153 138.816,296.301 138.000,296.814 138.000 C 297.290 138.000,298.183 137.460,298.800 136.800 C 299.417 136.140,300.209 135.600,300.560 135.600 C 300.912 135.600,301.200 135.420,301.200 135.200 C 301.200 134.980,301.700 134.800,302.312 134.800 C 302.965 134.800,303.661 134.470,304.000 134.000 C 304.339 133.530,305.035 133.200,305.688 133.200 C 306.533 133.200,306.800 133.008,306.800 132.400 C 306.800 131.778,307.067 131.600,308.000 131.600 C 308.660 131.600,309.200 131.420,309.200 131.200 C 309.200 130.980,309.740 130.800,310.400 130.800 C 311.422 130.800,311.600 130.952,311.600 131.829 C 311.600 132.986,312.427 134.000,313.371 134.000 C 313.779 134.000,314.000 134.360,314.000 135.022 C 314.000 135.743,314.707 136.739,316.400 138.400 C 317.720 139.696,318.800 141.036,318.800 141.378 C 318.800 141.720,319.076 142.000,319.413 142.000 C 320.209 142.000,322.800 144.591,322.800 145.387 C 322.800 145.801,323.188 146.000,324.000 146.000 C 324.660 146.000,325.200 146.180,325.200 146.400 C 325.200 146.620,325.560 146.800,326.000 146.800 C 326.533 146.800,326.800 147.067,326.800 147.600 C 326.800 148.222,327.067 148.400,328.000 148.400 C 328.660 148.400,329.200 148.580,329.200 148.800 C 329.200 149.020,329.740 149.200,330.400 149.200 C 331.333 149.200,331.600 149.378,331.600 150.000 C 331.600 150.608,331.867 150.800,332.712 150.800 C 333.365 150.800,334.061 151.130,334.400 151.600 C 334.802 152.157,335.435 152.400,336.488 152.400 C 337.320 152.400,338.000 152.580,338.000 152.800 C 338.000 153.033,339.333 153.200,341.200 153.200 C 344.133 153.200,344.400 153.267,344.400 154.000 C 344.400 154.764,344.667 154.800,350.312 154.800 C 355.765 154.800,356.268 154.738,356.800 154.000 C 357.279 153.335,357.835 153.200,360.088 153.200 C 361.629 153.200,362.800 153.027,362.800 152.800 C 362.800 152.580,363.700 152.400,364.800 152.400 C 366.533 152.400,366.800 152.293,366.800 151.600 C 366.800 150.992,367.067 150.800,367.912 150.800 C 368.565 150.800,369.261 150.470,369.600 150.000 C 369.939 149.530,370.635 149.200,371.288 149.200 C 371.900 149.200,372.400 149.020,372.400 148.800 C 372.400 148.580,372.940 148.400,373.600 148.400 C 374.424 148.400,374.800 148.203,374.800 147.771 C 374.800 146.883,375.792 146.000,376.790 146.000 C 377.773 146.000,379.600 144.322,379.600 143.418 C 379.600 143.078,379.883 142.800,380.229 142.800 C 381.037 142.800,382.000 141.837,382.000 141.029 C 382.000 140.683,382.283 140.400,382.629 140.400 C 382.974 140.400,383.514 140.143,383.829 139.829 C 384.143 139.514,384.400 138.974,384.400 138.629 C 384.400 138.283,384.678 138.000,385.018 138.000 C 385.922 138.000,387.600 136.173,387.600 135.190 C 387.600 134.192,388.483 133.200,389.371 133.200 C 389.803 133.200,390.000 132.824,390.000 132.000 C 390.000 131.340,390.180 130.800,390.400 130.800 C 390.620 130.800,390.800 130.300,390.800 129.688 C 390.800 129.035,391.130 128.339,391.600 128.000 C 392.041 127.682,392.400 126.965,392.400 126.400 C 392.400 125.835,392.759 125.118,393.200 124.800 C 394.026 124.204,394.307 122.800,393.600 122.800 C 393.380 122.800,393.200 122.260,393.200 121.600 C 393.200 120.667,393.378 120.400,394.000 120.400 C 394.741 120.400,394.800 120.133,394.800 116.800 C 394.800 114.667,394.963 113.200,395.200 113.200 C 395.440 113.200,395.600 111.600,395.600 109.200 C 395.600 106.800,395.440 105.200,395.200 105.200 C 394.960 105.200,394.800 103.600,394.800 101.200 C 394.800 97.467,394.747 97.200,394.000 97.200 C 393.560 97.200,393.200 97.020,393.200 96.800 C 393.200 96.580,393.380 96.400,393.600 96.400 C 394.307 96.400,394.026 94.996,393.200 94.400 C 392.592 93.962,392.400 93.365,392.400 91.912 C 392.400 90.267,392.288 90.000,391.600 90.000 C 390.978 90.000,390.800 89.733,390.800 88.800 C 390.800 88.140,390.620 87.600,390.400 87.600 C 390.180 87.600,390.000 87.280,390.000 86.888 C 390.000 86.497,389.640 85.917,389.200 85.600 C 388.760 85.283,388.400 84.775,388.400 84.472 C 388.400 84.169,387.860 83.417,387.200 82.800 C 386.540 82.183,386.000 81.474,386.000 81.222 C 386.000 80.971,384.560 79.341,382.800 77.600 C 381.040 75.859,379.600 74.157,379.600 73.817 C 379.600 73.398,379.215 73.200,378.400 73.200 C 377.740 73.200,377.200 73.020,377.200 72.800 C 377.200 72.580,376.840 72.400,376.400 72.400 C 375.867 72.400,375.600 72.133,375.600 71.600 C 375.600 70.978,375.333 70.800,374.400 70.800 C 373.740 70.800,373.200 70.620,373.200 70.400 C 373.200 70.180,372.880 70.000,372.488 70.000 C 372.097 70.000,371.517 69.640,371.200 69.200 C 370.882 68.759,370.165 68.400,369.600 68.400 C 369.035 68.400,368.318 68.041,368.000 67.600 C 367.683 67.160,367.103 66.800,366.712 66.800 C 366.320 66.800,366.000 66.620,366.000 66.400 C 366.000 66.179,364.963 66.000,363.688 66.000 C 361.835 66.000,361.262 65.841,360.800 65.200 C 360.250 64.437,359.765 64.400,350.312 64.400 C 340.667 64.400,340.400 64.422,340.400 65.200 M359.072 76.800 C 359.802 77.020,361.075 77.392,361.900 77.626 C 372.031 80.507,381.093 89.569,383.974 99.700 C 384.208 100.525,384.580 101.798,384.800 102.528 C 385.020 103.259,385.200 106.441,385.200 109.600 C 385.200 112.759,385.020 115.941,384.800 116.672 C 384.580 117.402,384.208 118.675,383.974 119.500 C 381.304 128.889,371.291 139.481,363.977 140.650 C 363.110 140.789,362.400 141.059,362.400 141.251 C 362.400 141.443,361.815 141.606,361.100 141.613 C 360.385 141.620,359.451 141.890,359.024 142.213 C 358.096 142.915,347.122 143.060,344.928 142.400 C 344.198 142.180,342.925 141.808,342.100 141.574 C 331.969 138.693,322.907 129.631,320.026 119.500 C 319.792 118.675,319.420 117.402,319.200 116.672 C 318.700 115.011,318.672 104.287,319.164 102.628 C 319.364 101.953,319.736 100.680,319.990 99.800 C 322.955 89.548,331.983 80.466,342.000 77.661 C 342.770 77.445,343.940 77.092,344.600 76.877 C 346.202 76.354,357.392 76.294,359.072 76.800 M54.272 79.200 C 55.002 79.420,56.275 79.792,57.100 80.026 C 67.231 82.907,76.293 91.969,79.174 102.100 C 79.408 102.925,79.780 104.198,80.000 104.928 C 80.220 105.659,80.400 108.841,80.400 112.000 C 80.400 115.159,80.220 118.341,80.000 119.072 C 79.780 119.802,79.408 121.075,79.174 121.900 C 76.293 132.031,67.231 141.093,57.100 143.974 C 56.275 144.208,55.002 144.580,54.272 144.800 C 52.548 145.319,41.852 145.319,40.128 144.800 C 39.398 144.580,38.125 144.208,37.300 143.974 C 27.169 141.093,18.107 132.031,15.226 121.900 C 14.992 121.075,14.620 119.802,14.400 119.072 C 13.900 117.411,13.872 106.687,14.364 105.028 C 14.564 104.353,14.936 103.080,15.190 102.200 C 18.155 91.948,27.183 82.866,37.200 80.061 C 37.970 79.845,39.140 79.492,39.800 79.277 C 41.402 78.754,52.592 78.694,54.272 79.200 " stroke="none" fill="#fc0434" fill-rule="evenodd"></path><path id="path1" d="M345.600 77.269 C 344.830 77.483,343.480 77.856,342.600 78.099 C 337.931 79.388,332.008 82.923,328.546 86.486 C 311.657 103.870,318.604 133.164,341.400 140.686 C 345.772 142.129,347.565 142.400,352.506 142.366 L 357.400 142.333 354.149 141.598 C 337.704 137.882,334.494 117.275,349.290 110.401 C 366.166 102.562,381.651 122.689,369.307 136.419 C 367.113 138.859,367.344 138.891,370.738 136.614 C 394.683 120.548,387.066 84.218,358.294 77.261 C 356.029 76.713,347.589 76.719,345.600 77.269 M41.400 79.600 C 40.960 79.789,40.116 79.956,39.524 79.972 C 38.932 79.987,38.320 80.206,38.164 80.459 C 37.959 80.791,38.422 80.856,39.838 80.697 C 58.212 78.626,65.800 104.245,49.110 111.999 C 30.774 120.517,15.428 96.505,31.226 84.017 C 33.593 82.146,33.450 81.946,30.835 83.469 C 12.153 94.350,8.686 119.613,23.746 135.114 C 40.591 152.451,70.717 145.539,78.286 122.600 C 84.635 103.360,73.784 84.567,53.494 79.661 C 51.304 79.131,42.593 79.087,41.400 79.600 " stroke="none" fill="#fbf8f8" fill-rule="evenodd"></path><path id="path2" d="M39.400 81.253 C 34.047 82.491,32.620 83.287,29.095 87.000 C 21.706 94.785,25.376 108.584,35.800 112.205 C 47.901 116.409,59.746 106.825,57.807 94.400 C 57.021 89.369,52.379 83.924,47.400 82.195 C 46.452 81.865,41.488 80.782,41.200 80.841 C 41.090 80.864,40.280 81.049,39.400 81.253 M354.600 109.253 C 349.247 110.491,347.820 111.287,344.295 115.000 C 336.906 122.785,340.576 136.584,351.000 140.205 C 363.101 144.409,374.946 134.825,373.007 122.400 C 372.221 117.369,367.579 111.924,362.600 110.195 C 361.652 109.865,356.688 108.782,356.400 108.841 C 356.290 108.864,355.480 109.049,354.600 109.253 " stroke="none" fill="#050505" fill-rule="evenodd"></path><path id="path3" d="M37.338 80.900 C 37.236 81.065,36.797 81.200,36.362 81.200 C 35.928 81.200,35.128 81.491,34.586 81.846 C 34.044 82.201,33.600 82.382,33.600 82.249 C 33.600 81.056,27.447 87.667,26.303 90.089 C 19.564 104.349,34.562 118.757,49.110 111.999 C 62.993 105.549,60.938 85.235,45.993 81.196 C 43.985 80.654,37.625 80.436,37.338 80.900 M44.000 81.358 C 55.336 83.793,61.153 94.173,56.575 103.800 C 49.866 117.907,27.769 115.214,25.393 100.000 C 24.416 93.743,26.398 88.926,31.810 84.400 C 33.741 82.785,36.077 81.899,41.200 80.841 C 41.310 80.819,42.570 81.051,44.000 81.358 M354.000 108.853 C 340.652 111.083,335.216 127.198,344.620 136.660 C 353.122 145.214,367.058 142.951,372.154 132.188 C 377.843 120.173,367.306 106.629,354.000 108.853 M359.200 109.358 C 370.536 111.793,376.353 122.173,371.775 131.800 C 365.066 145.907,342.969 143.214,340.593 128.000 C 339.616 121.743,341.598 116.926,347.010 112.400 C 348.941 110.785,351.277 109.899,356.400 108.841 C 356.510 108.819,357.770 109.051,359.200 109.358 " stroke="none" fill="#bc787c" fill-rule="evenodd"></path><path id="path4" d="" stroke="none" fill="#100403c" fill-rule="evenodd"></path></g></svg>