<?xml version="1.0" encoding="UTF-8"?>
<!-- Generator: visioncortex VTracer 0.6.3 -->
<svg width="80" height="80 viewBox=" 0, 0, 400,400">
    <path
        d="M0 0 C0.8 0.1 1.6 0.2 2.42 0.31 C15.54 2.33 26.37 10.28 36 19 C36 19.66 36 20.32 36 21 C36.58 21.27 37.15 21.54 37.75 21.81 C40.06 23.03 42.02 24.3 44 26 C44 26.66 44 27.32 44 28 C44.54 28.23 45.09 28.45 45.65 28.68 C48.74 30.41 51.04 32.65 53.62 35.06 C57.04 38.42 57.04 38.42 61 41 C61 41.66 61 42.32 61 43 C61.58 43.27 62.15 43.54 62.75 43.82 C65.04 45.02 67 46.38 69.06 47.94 C69.73 48.44 70.41 48.95 71.1 49.46 C72.87 50.9 74.5 52.28 76 54 C76 54.66 76 55.32 76 56 C76.89 56.41 76.89 56.41 77.79 56.83 C79.94 57.97 81.56 59.18 83.38 60.79 C84.3 61.58 84.3 61.58 85.23 62.39 C85.86 62.94 86.48 63.49 87.12 64.06 C88.38 65.16 89.63 66.25 90.88 67.35 C91.43 67.83 91.98 68.32 92.55 68.82 C94.01 70.1 94.01 70.1 96 71 C96 71.66 96 72.32 96 73 C96.99 73.33 97.98 73.66 99 74 C99 74.66 99 75.32 99 76 C99.57 76.27 100.14 76.54 100.73 76.81 C103.08 78.04 105.12 79.43 107.25 81 C108.31 81.77 108.31 81.77 109.39 82.56 C109.92 83.04 110.45 83.51 111 84 C111 84.66 111 85.32 111 86 C111.87 86.4 111.87 86.4 112.75 86.81 C115.06 88.03 117.02 89.3 119 91 C119 91.66 119 92.32 119 93 C119.54 93.23 120.09 93.45 120.65 93.68 C123.74 95.41 126.04 97.65 128.62 100.06 C132.04 103.42 132.04 103.42 136 106 C136 106.66 136 107.32 136 108 C136.58 108.27 137.15 108.54 137.75 108.82 C140.04 110.02 142 111.38 144.06 112.94 C145.07 113.69 145.07 113.69 146.1 114.46 C147.87 115.9 149.5 117.28 151 119 C151 119.66 151 120.32 151 121 C151.87 121.4 151.87 121.4 152.75 121.81 C155.06 123.03 157.02 124.3 159 126 C159 126.66 159 127.32 159 128 C159.57 128.27 160.14 128.54 160.73 128.81 C163.08 130.04 165.12 131.43 167.25 133 C168.31 133.77 168.31 133.77 169.39 134.56 C169.92 135.04 170.45 135.51 171 136 C171 136.66 171 137.32 171 138 C171.99 138.33 172.98 138.66 174 139 C174 139.66 174 140.32 174 141 C175.21 141 176.41 140.99 177.66 140.99 C206.33 140.93 235.01 140.88 263.68 140.85 C267.22 140.84 270.75 140.84 274.28 140.84 C274.98 140.83 275.69 140.83 276.41 140.83 C287.79 140.82 299.16 140.8 310.53 140.77 C322.21 140.74 333.89 140.72 345.57 140.72 C352.12 140.71 358.68 140.7 365.24 140.68 C371.41 140.66 377.58 140.66 383.76 140.66 C386.02 140.66 388.28 140.65 390.55 140.64 C393.64 140.63 396.74 140.63 399.84 140.64 C400.73 140.63 401.62 140.62 402.53 140.61 C416.5 140.71 427.93 146.65 438.07 155.91 C440 158 440 158 441 161 C441.66 161 442.32 161 443 161 C444.44 163.01 444.44 163.01 446 165.69 C446.52 166.56 447.03 167.43 447.56 168.32 C451.72 176.06 453.31 183.72 453.24 192.41 C453.25 193.62 453.25 193.62 453.25 194.86 C453.26 197.54 453.25 200.23 453.24 202.91 C453.24 204.85 453.24 206.78 453.25 208.71 C453.25 212.87 453.25 217.02 453.24 221.18 C453.24 227.74 453.25 234.31 453.26 240.88 C453.3 259.55 453.32 278.22 453.31 296.89 C453.3 307.22 453.31 317.54 453.34 327.86 C453.36 334.39 453.36 340.92 453.34 347.45 C453.33 351.5 453.34 355.56 453.36 359.62 C453.37 361.5 453.37 363.39 453.35 365.27 C453.34 367.84 453.35 370.4 453.37 372.97 C453.36 373.72 453.35 374.47 453.34 375.24 C453.41 379.27 453.83 380.8 456.54 383.88 C457.35 384.58 458.16 385.28 459 386 C459 386.66 459 387.32 459 388 C459.54 388.24 460.08 388.47 460.64 388.72 C463.63 390.34 466.11 392.35 468.75 394.5 C470.23 395.69 470.23 395.69 471.73 396.91 C472.48 397.6 473.23 398.29 474 399 C474 399.66 474 400.32 474 401 C474.83 401.37 474.83 401.37 475.67 401.75 C478.45 403.24 480.78 405.04 483.25 407 C484.14 407.7 485.03 408.4 485.95 409.12 C486.63 409.74 487.3 410.36 488 411 C488 411.66 488 412.32 488 413 C488.58 413.27 489.15 413.54 489.75 413.81 C492.06 415.03 494.02 416.3 496 418 C496 418.66 496 419.32 496 420 C496.9 420.43 496.9 420.43 497.81 420.88 C500 422 500 422 503 424 C503 424.66 503 425.32 503 426 C503.58 426.27 504.15 426.54 504.75 426.81 C507.06 428.03 509.02 429.3 511 431 C511 431.66 511 432.32 511 433 C511.54 433.24 512.08 433.47 512.64 433.72 C515.63 435.34 518.11 437.35 520.75 439.5 C522.23 440.69 522.23 440.69 523.73 441.91 C524.48 442.6 525.23 443.29 526 444 C526 444.66 526 445.32 526 446 C526.58 446.27 527.15 446.54 527.75 446.81 C530.06 448.03 532.02 449.3 534 451 C534 451.66 534 452.32 534 453 C534.54 453.24 535.08 453.47 535.64 453.72 C538.63 455.34 541.11 457.35 543.75 459.5 C545.23 460.69 545.23 460.69 546.73 461.91 C547.48 462.6 548.23 463.29 549 464 C549 464.66 549 465.32 549 466 C549.83 466.37 549.83 466.37 550.67 466.75 C553.45 468.24 555.78 470.04 558.25 472 C559.14 472.7 560.03 473.4 560.95 474.12 C561.63 474.74 562.3 475.36 563 476 C563 476.66 563 477.32 563 478 C563.99 478.33 564.98 478.66 566 479 C566 479.66 566 480.32 566 481 C567.65 481.66 569.3 482.32 571 483 C571 483.66 571 484.32 571 485 C571.9 485.43 571.9 485.43 572.81 485.88 C575 487 575 487 578 489 C578 489.66 578 490.32 578 491 C578.58 491.27 579.15 491.54 579.75 491.81 C582.06 493.03 584.02 494.3 586 496 C586 496.66 586 497.32 586 498 C586.54 498.24 587.08 498.47 587.64 498.72 C590.63 500.34 593.11 502.35 595.75 504.5 C597.23 505.69 597.23 505.69 598.73 506.91 C599.48 507.6 600.23 508.29 601 509 C601 509.66 601 510.32 601 511 C601.58 511.27 602.15 511.54 602.75 511.81 C605.06 513.03 607.02 514.3 609 516 C609 516.66 609 517.32 609 518 C609.54 518.24 610.08 518.47 610.64 518.72 C613.63 520.34 616.11 522.35 618.75 524.5 C620.23 525.69 620.23 525.69 621.73 526.91 C622.48 527.6 623.23 528.29 624 529 C624 529.66 624 530.32 624 531 C624.66 531 625.32 531 626 531 C626 531.66 626 532.32 626 533 C626.66 533 627.32 533 628 533 C633.52 538.82 633.71 545.1 633.63 552.73 C633.63 553.9 633.64 555.07 633.65 556.28 C633.66 559.53 633.65 562.78 633.64 566.02 C633.62 569.56 633.64 573.09 633.65 576.63 C633.67 582.82 633.66 589.01 633.65 595.21 C633.63 604.42 633.64 613.63 633.65 622.84 C633.67 639.29 633.67 655.74 633.65 672.19 C633.63 686.58 633.63 700.98 633.63 715.38 C633.63 716.81 633.63 716.81 633.63 718.27 C633.63 722.14 633.63 726.02 633.63 729.89 C633.64 766.25 633.63 802.61 633.59 838.97 C633.57 871.27 633.56 903.58 633.58 935.89 C633.58 944.16 633.58 952.43 633.59 960.7 C633.59 961.72 633.59 962.74 633.59 963.78 C633.6 990.77 633.59 1017.76 633.58 1044.75 C633.58 1047.66 633.58 1050.56 633.58 1053.46 C633.57 1055.39 633.57 1057.32 633.57 1059.24 C633.57 1073.63 633.57 1088.02 633.58 1102.4 C633.58 1118.76 633.58 1135.12 633.55 1151.48 C633.54 1160.63 633.53 1169.79 633.55 1178.95 C633.55 1185.06 633.55 1191.18 633.53 1197.29 C633.52 1200.78 633.51 1204.26 633.53 1207.75 C633.54 1211.5 633.53 1215.26 633.51 1219.02 C633.52 1220.09 633.52 1221.17 633.53 1222.28 C633.44 1231.27 630.97 1238.69 625.88 1246.12 C625.13 1247.24 625.13 1247.24 624.37 1248.38 C623.69 1249.18 623.69 1249.18 623 1250 C622.34 1250 621.68 1250 621 1250 C620.6 1250.96 620.6 1250.96 620.19 1251.94 C619 1254 619 1254 616 1255 C616 1255.66 616 1256.32 616 1257 C601.24 1269.14 584.51 1269.3 566.32 1269.25 C564.33 1269.26 562.33 1269.26 560.34 1269.26 C554.89 1269.27 549.44 1269.27 543.99 1269.26 C538.1 1269.26 532.21 1269.26 526.33 1269.27 C514.8 1269.28 503.28 1269.28 491.76 1269.27 C482.39 1269.27 473.03 1269.27 463.66 1269.27 C462.66 1269.27 462.66 1269.27 461.64 1269.27 C458.94 1269.27 456.23 1269.27 453.53 1269.27 C428.18 1269.28 402.83 1269.27 377.49 1269.26 C354.98 1269.25 332.46 1269.25 309.95 1269.26 C284.65 1269.27 259.34 1269.28 234.03 1269.27 C231.33 1269.27 228.64 1269.27 225.94 1269.27 C224.94 1269.27 224.94 1269.27 223.93 1269.27 C213.9 1269.26 203.87 1269.27 193.85 1269.27 C182.45 1269.28 171.05 1269.28 159.65 1269.27 C153.84 1269.26 148.02 1269.26 142.21 1269.27 C136.88 1269.27 131.56 1269.27 126.24 1269.26 C124.31 1269.26 122.38 1269.26 120.46 1269.26 C117.84 1269.27 115.22 1269.26 112.6 1269.25 C111.86 1269.26 111.11 1269.26 110.34 1269.27 C103.44 1269.22 96.1 1268.57 90.56 1264.12 C89.92 1263.63 89.29 1263.14 88.63 1262.63 C86.88 1260.88 85.97 1259.26 85 1257 C84.34 1257 83.68 1257 83 1257 C79.98 1251.95 79.42 1247.92 79.44 1242.19 C79.44 1241.39 79.44 1240.59 79.44 1239.77 C79.63 1233.16 81.29 1228.77 86 1224 C86.5 1223.43 87 1222.86 87.51 1222.28 C89 1221 89 1221 92 1221 C92 1220.34 92 1219.68 92 1219 C97.04 1216.53 101.1 1215.56 106.75 1215.62 C107.5 1215.61 108.25 1215.6 109.03 1215.6 C111.55 1215.59 114.07 1215.59 116.58 1215.6 C118.41 1215.6 120.23 1215.59 122.06 1215.58 C127.07 1215.56 132.08 1215.56 137.1 1215.57 C142.5 1215.57 147.91 1215.55 153.31 1215.54 C162.68 1215.51 172.05 1215.5 181.41 1215.5 C194.95 1215.49 208.49 1215.47 222.04 1215.44 C244 1215.4 265.97 1215.37 287.94 1215.35 C309.29 1215.33 330.63 1215.3 351.97 1215.26 C353.28 1215.26 354.6 1215.26 355.96 1215.26 C362.55 1215.24 369.15 1215.23 375.75 1215.22 C430.5 1215.13 485.25 1215.06 540 1215 C536.82 1211.57 536.82 1211.57 533 1209 C533 1208.34 533 1207.68 533 1207 C532.13 1206.6 532.13 1206.6 531.25 1206.19 C528.94 1204.97 526.98 1203.7 525 1202 C525 1201.34 525 1200.68 525 1200 C524.14 1199.6 524.14 1199.6 523.27 1199.19 C520.92 1197.96 518.88 1196.57 516.75 1195 C516.04 1194.48 515.34 1193.97 514.61 1193.44 C514.08 1192.96 513.55 1192.49 513 1192 C513 1191.34 513 1190.68 513 1190 C512.01 1189.67 511.02 1189.34 510 1189 C510 1188.34 510 1187.68 510 1187 C508.35 1186.34 506.7 1185.68 505 1185 C505 1184.34 505 1183.68 505 1183 C504.4 1182.71 503.8 1182.42 503.19 1182.12 C501 1181 501 1181 498 1179 C498 1178.34 498 1177.68 498 1177 C497.13 1176.6 497.13 1176.6 496.25 1176.19 C493.94 1174.97 491.98 1173.7 490 1172 C490 1171.34 490 1170.68 490 1170 C489.46 1169.76 488.92 1169.53 488.36 1169.28 C485.37 1167.66 482.89 1165.65 480.25 1163.5 C479.27 1162.71 478.28 1161.91 477.27 1161.09 C476.52 1160.4 475.77 1159.71 475 1159 C475 1158.34 475 1157.68 475 1157 C474.41 1156.73 473.82 1156.45 473.21 1156.17 C471.06 1155.03 469.44 1153.82 467.62 1152.21 C467.01 1151.68 466.4 1151.15 465.77 1150.61 C464.83 1149.78 464.83 1149.78 463.88 1148.94 C462.62 1147.84 461.37 1146.75 460.12 1145.65 C459.57 1145.17 459.02 1144.68 458.45 1144.18 C456.99 1142.9 456.99 1142.9 455 1142 C455 1141.34 455 1140.68 455 1140 C454.46 1139.76 453.92 1139.53 453.36 1139.28 C450.37 1137.66 447.89 1135.65 445.25 1133.5 C444.27 1132.71 443.28 1131.91 442.27 1131.09 C441.52 1130.4 440.77 1129.71 440 1129 C440 1128.34 440 1127.68 440 1127 C439.41 1126.73 438.82 1126.45 438.21 1126.17 C436.06 1125.03 434.44 1123.82 432.62 1122.21 C432.01 1121.68 431.4 1121.15 430.77 1120.61 C429.83 1119.78 429.83 1119.78 428.88 1118.94 C427.62 1117.84 426.37 1116.75 425.12 1115.65 C424.57 1115.17 424.02 1114.68 423.45 1114.18 C421.99 1112.9 421.99 1112.9 420 1112 C420 1111.34 420 1110.68 420 1110 C419.46 1109.76 418.92 1109.53 418.36 1109.28 C415.37 1107.66 412.89 1105.65 410.25 1103.5 C409.27 1102.71 408.28 1101.91 407.27 1101.09 C406.52 1100.4 405.77 1099.71 405 1099 C405 1098.34 405 1097.68 405 1097 C404.13 1096.6 404.13 1096.6 403.25 1096.19 C400.94 1094.97 398.98 1093.7 397 1092 C397 1091.34 397 1090.68 397 1090 C396.14 1089.6 396.14 1089.6 395.27 1089.19 C392.92 1087.96 390.88 1086.57 388.75 1085 C388.04 1084.48 387.34 1083.97 386.61 1083.44 C386.08 1082.96 385.55 1082.49 385 1082 C385 1081.34 385 1080.68 385 1080 C384.01 1079.67 383.02 1079.34 382 1079 C382 1078.34 382 1077.68 382 1077 C381.32 1076.79 380.64 1076.59 379.94 1076.38 C376.08 1074.57 372.92 1072.1 370 1069 C370 1068.34 370 1067.68 370 1067 C369.13 1066.6 369.13 1066.6 368.25 1066.19 C365.94 1064.97 363.98 1063.7 362 1062 C362 1061.34 362 1060.68 362 1060 C361.43 1059.73 360.86 1059.46 360.27 1059.19 C357.92 1057.96 355.88 1056.57 353.75 1055 C352.69 1054.23 352.69 1054.23 351.61 1053.44 C351.08 1052.96 350.55 1052.49 350 1052 C350 1051.34 350 1050.68 350 1050 C349.01 1049.67 348.02 1049.34 347 1049 C347 1048.34 347 1047.68 347 1047 C345.98 1046.69 345.98 1046.69 344.94 1046.38 C341.08 1044.57 337.92 1042.1 335 1039 C335 1038.34 335 1037.68 335 1037 C334.13 1036.6 334.13 1036.6 333.25 1036.19 C330.94 1034.97 328.98 1033.7 327 1032 C327 1031.34 327 1030.68 327 1030 C326.46 1029.76 325.92 1029.53 325.36 1029.28 C322.37 1027.66 319.89 1025.65 317.25 1023.5 C315.77 1022.31 315.77 1022.31 314.27 1021.09 C313.14 1020.06 313.14 1020.06 312 1019 C312 1018.34 312 1017.68 312 1017 C311.43 1016.73 310.86 1016.46 310.27 1016.19 C307.92 1014.96 305.88 1013.57 303.75 1012 C302.69 1011.23 302.69 1011.23 301.61 1010.44 C301.08 1009.96 300.55 1009.49 300 1009 C300 1008.34 300 1007.68 300 1007 C299.42 1006.73 298.85 1006.46 298.25 1006.19 C295.94 1004.97 293.98 1003.7 292 1002 C292 1001.34 292 1000.68 292 1000 C291.46 999.76 290.92 999.53 290.36 999.28 C287.37 997.66 284.89 995.65 282.25 993.5 C280.77 992.31 280.77 992.31 279.27 991.09 C278.14 990.06 278.14 990.06 277 989 C277 988.34 277 987.68 277 987 C276.41 986.73 275.82 986.45 275.21 986.17 C273.06 985.03 271.44 983.82 269.62 982.21 C269.01 981.68 268.4 981.15 267.77 980.61 C267.14 980.06 266.52 979.51 265.88 978.94 C264.62 977.84 263.37 976.75 262.12 975.65 C261.57 975.17 261.02 974.68 260.45 974.18 C258.99 972.9 258.99 972.9 257 972 C257 971.34 257 970.68 257 970 C256.46 969.76 255.92 969.53 255.36 969.28 C252.37 967.66 249.89 965.65 247.25 963.5 C245.77 962.31 245.77 962.31 244.27 961.09 C243.14 960.06 243.14 960.06 242 959 C242 958.34 242 957.68 242 957 C241.41 956.73 240.82 956.45 240.21 956.17 C238.06 955.03 236.44 953.82 234.62 952.21 C234.01 951.68 233.4 951.15 232.77 950.61 C232.14 950.06 231.52 949.51 230.88 948.94 C229.62 947.84 228.37 946.75 227.12 945.65 C226.57 945.17 226.02 944.68 225.45 944.18 C223.99 942.9 223.99 942.9 222 942 C222 941.34 222 940.68 222 940 C221.46 939.76 220.92 939.53 220.36 939.28 C217.37 937.66 214.89 935.65 212.25 933.5 C210.77 932.31 210.77 932.31 209.27 931.09 C208.14 930.06 208.14 930.06 207 929 C207 928.34 207 927.68 207 927 C206.34 927 205.68 927 205 927 C205 926.34 205 925.68 205 925 C204.43 924.73 203.86 924.46 203.27 924.19 C200.92 922.96 198.88 921.57 196.75 920 C195.69 919.23 195.69 919.23 194.61 918.44 C194.08 917.96 193.55 917.49 193 917 C193 916.34 193 915.68 193 915 C192.38 914.69 191.76 914.38 191.12 914.06 C189.75 913.38 188.38 912.69 187 912 C187 911.34 187 910.68 187 910 C186.46 909.76 185.92 909.53 185.36 909.28 C182.37 907.66 179.89 905.65 177.25 903.5 C175.77 902.31 175.77 902.31 174.27 901.09 C173.14 900.06 173.14 900.06 172 899 C172 898.34 172 897.68 172 897 C171.34 897 170.68 897 170 897 C170 896.34 170 895.68 170 895 C169.43 894.73 168.86 894.46 168.27 894.19 C165.92 892.96 163.88 891.57 161.75 890 C160.69 889.23 160.69 889.23 159.61 888.44 C159.08 887.96 158.55 887.49 158 887 C158 886.34 158 885.68 158 885 C157.42 884.75 156.85 884.49 156.25 884.23 C153.01 882.46 150.63 879.93 148 877.36 C146.12 875.78 146.12 875.78 143.97 876.17 C142.03 876.99 140.29 877.89 138.5 879 C136.02 880.47 133.88 881.54 131 882 C131 882.66 131 883.32 131 884 C129.38 885.24 129.38 885.24 127.13 886.6 C125.93 887.34 125.93 887.34 124.7 888.09 C123.85 888.59 123 889.1 122.12 889.62 C121.28 890.14 120.44 890.66 119.57 891.19 C113.27 895 113.27 895 111 895 C111 895.66 111 896.32 111 897 C109.55 897.8 109.55 897.8 108.06 898.62 C105.12 900.3 102.3 902.1 99.5 904 C88.74 911.24 88.74 911.24 84 912 C84 912.66 84 913.32 84 914 C81.55 915.67 79.1 917.23 76.56 918.75 C75.09 919.65 73.62 920.55 72.15 921.45 C71.08 922.1 71.08 922.1 69.98 922.77 C66.81 924.74 63.75 926.87 60.7 929.04 C59 930 59 930 56 930 C56 930.66 56 931.32 56 932 C55.01 932 54.02 932 53 932 C53 932.66 53 933.32 53 934 C51.43 935.15 51.43 935.15 49.22 936.43 C48.41 936.91 47.59 937.39 46.75 937.89 C45.86 938.4 44.98 938.91 44.06 939.44 C36.47 943.89 29.02 948.48 21.73 953.43 C10.11 961.17 -3.21 963.8 -17 961.5 C-31.36 957.91 -43.92 948.84 -55.79 940.29 C-60.29 937.08 -65.01 934.4 -70 932 C-70 931.34 -70 930.68 -70 930 C-70.66 929.76 -71.33 929.53 -72.01 929.28 C-75.81 927.65 -79.27 925.62 -82.81 923.5 C-83.51 923.1 -84.2 922.69 -84.91 922.28 C-86.64 921.24 -88.33 920.13 -90 919 C-90 918.34 -90 917.68 -90 917 C-90.56 916.9 -91.11 916.8 -91.68 916.7 C-94.52 915.84 -96.59 914.5 -99.06 912.88 C-100.53 911.92 -100.53 911.92 -102.04 910.94 C-103.01 910.3 -103.99 909.66 -105 909 C-106.66 907.93 -108.33 906.87 -110 905.81 C-110.9 905.24 -111.79 904.67 -112.71 904.08 C-115.33 902.43 -117.95 900.78 -120.57 899.14 C-122.23 898.09 -123.9 897.05 -125.56 896 C-126.39 895.48 -127.22 894.96 -128.08 894.42 C-132.35 891.72 -136.54 888.97 -140.62 886 C-144.82 882.98 -149.19 880.87 -154 879 C-154.68 879.74 -154.68 879.74 -155.38 880.5 C-157 882 -157 882 -159 882 C-159 882.66 -159 883.32 -159 884 C-160.69 885.56 -162.46 887.05 -164.25 888.5 C-165.22 889.29 -166.2 890.09 -167.2 890.91 C-169.45 892.59 -171.45 893.88 -174 895 C-174 895.66 -174 896.32 -174 897 C-175.63 898.48 -177.33 899.88 -179.06 901.25 C-182.46 903.96 -185.81 906.68 -189.06 909.56 C-192 912 -192 912 -194 912 C-194 912.66 -194 913.32 -194 914 C-195.69 915.56 -197.46 917.05 -199.25 918.5 C-200.22 919.29 -201.2 920.09 -202.2 920.91 C-204.45 922.59 -206.45 923.88 -209 925 C-209 925.66 -209 926.32 -209 927 C-214.48 932 -214.48 932 -217 932 C-217 932.66 -217 933.32 -217 934 C-218.86 935.69 -218.86 935.69 -221.31 937.56 C-222.11 938.18 -222.91 938.8 -223.74 939.44 C-226 941 -226 941 -229 942 C-229 942.66 -229 943.32 -229 944 C-230.69 945.56 -232.46 947.05 -234.25 948.5 C-235.22 949.29 -236.2 950.09 -237.2 950.91 C-239.45 952.59 -241.45 953.88 -244 955 C-244 955.66 -244 956.32 -244 957 C-249.48 962 -249.48 962 -252 962 C-252 962.66 -252 963.32 -252 964 C-256.47 968 -256.47 968 -259 968 C-259 968.66 -259 969.32 -259 970 C-259.8 970.27 -260.61 970.54 -261.44 970.81 C-262.28 971.2 -263.13 971.6 -264 972 C-264.33 972.99 -264.66 973.98 -265 975 C-265.66 975 -266.32 975 -267 975 C-267 975.66 -267 976.32 -267 977 C-268.86 978.69 -268.86 978.69 -271.31 980.56 C-272.11 981.18 -272.91 981.8 -273.74 982.44 C-276 984 -276 984 -279 985 C-279 985.66 -279 986.32 -279 987 C-280.57 988.41 -282.21 989.76 -283.88 991.06 C-288.78 994.97 -293.42 999.06 -298 1003.35 C-300 1005 -300 1005 -302 1005 C-302 1005.66 -302 1006.32 -302 1007 C-303.49 1008.35 -305.04 1009.63 -306.62 1010.88 C-311.17 1014.51 -315.65 1018.21 -320.06 1022 C-320.96 1022.77 -320.96 1022.77 -321.87 1023.55 C-325.35 1026.55 -328.79 1029.59 -332.19 1032.69 C-346.24 1045.41 -346.24 1045.41 -351 1047 C-351 1047.66 -351 1048.32 -351 1049 C-352.69 1050.56 -354.46 1052.05 -356.25 1053.5 C-357.22 1054.29 -358.2 1055.09 -359.2 1055.91 C-361.45 1057.59 -363.45 1058.88 -366 1060 C-366 1060.66 -366 1061.32 -366 1062 C-371.48 1067 -371.48 1067 -374 1067 C-374 1067.66 -374 1068.32 -374 1069 C-376.12 1070.95 -376.12 1070.95 -378.88 1073.12 C-379.78 1073.85 -380.68 1074.57 -381.62 1075.32 C-384 1077 -384 1077 -386 1077 C-386 1077.66 -386 1078.32 -386 1079 C-387.69 1080.56 -389.46 1082.05 -391.25 1083.5 C-392.22 1084.29 -393.2 1085.09 -394.2 1085.91 C-396.45 1087.59 -398.45 1088.88 -401 1090 C-401 1090.66 -401 1091.32 -401 1092 C-406.48 1097 -406.48 1097 -409 1097 C-409 1097.66 -409 1098.32 -409 1099 C-411.12 1100.95 -411.12 1100.95 -413.88 1103.12 C-414.78 1103.85 -415.68 1104.57 -416.62 1105.32 C-419 1107 -419 1107 -421 1107 C-421.33 1107.99 -421.66 1108.98 -422 1110 C-422.66 1110 -423.32 1110 -424 1110 C-424 1110.66 -424 1111.32 -424 1112 C-426.12 1113.95 -426.12 1113.95 -428.88 1116.12 C-429.78 1116.85 -430.68 1117.57 -431.62 1118.32 C-434 1120 -434 1120 -436 1120 C-436 1120.66 -436 1121.32 -436 1122 C-441.48 1127 -441.48 1127 -444 1127 C-444 1127.66 -444 1128.32 -444 1129 C-446.12 1130.95 -446.12 1130.95 -448.88 1133.12 C-449.78 1133.85 -450.68 1134.57 -451.62 1135.32 C-454 1137 -454 1137 -456 1137 C-456.33 1137.99 -456.66 1138.98 -457 1140 C-457.66 1140 -458.32 1140 -459 1140 C-459 1140.66 -459 1141.32 -459 1142 C-461.12 1143.95 -461.12 1143.95 -463.88 1146.12 C-464.78 1146.85 -465.68 1147.57 -466.62 1148.32 C-469 1150 -469 1150 -471 1150 C-471 1150.66 -471 1151.32 -471 1152 C-476.48 1157 -476.48 1157 -479 1157 C-479 1157.66 -479 1158.32 -479 1159 C-480.69 1160.56 -482.46 1162.05 -484.25 1163.5 C-485.22 1164.29 -486.2 1165.09 -487.2 1165.91 C-489.45 1167.59 -491.45 1168.88 -494 1170 C-494 1170.66 -494 1171.32 -494 1172 C-495.63 1173.48 -497.33 1174.88 -499.06 1176.25 C-502.46 1178.96 -505.81 1181.68 -509.06 1184.56 C-512 1187 -512 1187 -514 1187 C-514 1187.66 -514 1188.32 -514 1189 C-515.69 1190.56 -517.46 1192.05 -519.25 1193.5 C-520.22 1194.29 -521.2 1195.09 -522.2 1195.91 C-524.45 1197.59 -526.45 1198.88 -529 1200 C-529 1200.66 -529 1201.32 -529 1202 C-534.48 1207 -534.48 1207 -537 1207 C-537 1207.66 -537 1208.32 -537 1209 C-541.47 1213 -541.47 1213 -544 1213 C-544 1213.66 -544 1214.32 -544 1215 C-543.09 1215 -542.18 1215 -541.24 1215 C-487.38 1215.06 -433.51 1215.13 -379.64 1215.23 C-373.17 1215.24 -366.71 1215.25 -360.24 1215.26 C-358.95 1215.26 -357.67 1215.27 -356.34 1215.27 C-335.49 1215.3 -314.64 1215.33 -293.78 1215.35 C-272.39 1215.37 -251 1215.41 -229.61 1215.45 C-216.41 1215.48 -203.2 1215.49 -190 1215.5 C-180.95 1215.5 -171.9 1215.52 -162.86 1215.55 C-157.63 1215.56 -152.41 1215.57 -147.18 1215.57 C-142.4 1215.56 -137.62 1215.57 -132.84 1215.59 C-131.11 1215.6 -129.38 1215.6 -127.65 1215.59 C-125.3 1215.59 -122.94 1215.6 -120.59 1215.62 C-118.63 1215.62 -118.63 1215.62 -116.63 1215.62 C-112.46 1216.06 -109.74 1217.17 -106 1219 C-106 1219.66 -106 1220.32 -106 1221 C-105.4 1221.1 -104.81 1221.19 -104.2 1221.29 C-101.54 1222.15 -100.63 1223.17 -98.88 1225.31 C-98.38 1225.91 -97.88 1226.5 -97.37 1227.11 C-93.8 1232.04 -93.66 1235.91 -93.69 1241.88 C-93.67 1242.67 -93.66 1243.46 -93.64 1244.27 C-93.63 1249.28 -94.33 1252.61 -97 1257 C-97.66 1257 -98.32 1257 -99 1257 C-99.23 1257.58 -99.45 1258.15 -99.69 1258.75 C-102.03 1262.77 -106.52 1266.21 -110.96 1267.62 C-116.24 1268.79 -121.2 1269.29 -126.6 1269.25 C-127.42 1269.25 -128.24 1269.26 -129.09 1269.26 C-131.83 1269.27 -134.56 1269.26 -137.3 1269.25 C-139.29 1269.26 -141.27 1269.26 -143.26 1269.26 C-148.71 1269.27 -154.17 1269.27 -159.62 1269.26 C-165.5 1269.26 -171.39 1269.26 -177.27 1269.27 C-188.79 1269.28 -200.32 1269.28 -211.84 1269.27 C-221.21 1269.27 -230.57 1269.27 -239.94 1269.27 C-240.6 1269.27 -241.27 1269.27 -241.96 1269.27 C-244.66 1269.27 -247.36 1269.27 -250.07 1269.27 C-275.42 1269.28 -300.77 1269.27 -326.12 1269.26 C-348.63 1269.25 -371.15 1269.25 -393.66 1269.26 C-418.96 1269.27 -444.26 1269.28 -469.56 1269.27 C-472.26 1269.27 -474.96 1269.27 -477.66 1269.27 C-478.66 1269.27 -478.66 1269.27 -479.67 1269.27 C-489.7 1269.26 -499.72 1269.27 -509.74 1269.27 C-521.14 1269.28 -532.55 1269.28 -543.95 1269.27 C-549.76 1269.26 -555.58 1269.26 -561.4 1269.27 C-566.72 1269.27 -572.05 1269.27 -577.38 1269.26 C-579.3 1269.26 -581.23 1269.26 -583.15 1269.26 C-608.7 1269.32 -608.7 1269.32 -619.5 1263.56 C-620.64 1262.97 -621.79 1262.37 -622.97 1261.75 C-625.49 1260.29 -627.81 1258.92 -630 1257 C-630 1256.34 -630 1255.68 -630 1255 C-630.96 1254.6 -630.96 1254.6 -631.94 1254.19 C-634 1253 -634 1253 -635 1250 C-635.66 1250 -636.32 1250 -637 1250 C-638.37 1248.38 -638.37 1248.38 -639.88 1246.12 C-640.61 1245.05 -640.61 1245.05 -641.37 1243.95 C-646 1235.58 -647.59 1228.55 -647.51 1219.02 C-647.51 1217.84 -647.52 1216.67 -647.52 1215.46 C-647.54 1212.21 -647.53 1208.97 -647.52 1205.72 C-647.51 1202.18 -647.52 1198.65 -647.54 1195.11 C-647.55 1188.91 -647.55 1182.72 -647.54 1176.53 C-647.53 1167.32 -647.54 1158.1 -647.56 1148.89 C-647.58 1132.44 -647.58 1115.99 -647.57 1099.54 C-647.57 1085.15 -647.57 1070.75 -647.57 1056.36 C-647.58 1054.43 -647.58 1052.5 -647.58 1050.57 C-647.58 1047.66 -647.58 1044.75 -647.58 1041.84 C-647.59 1014.79 -647.6 987.74 -647.59 960.7 C-647.59 959.68 -647.59 958.66 -647.59 957.61 C-647.58 949.33 -647.58 941.05 -647.57 932.77 C-647.56 900.47 -647.57 868.16 -647.6 835.85 C-647.63 799.56 -647.64 763.27 -647.63 726.98 C-647.63 723.11 -647.63 719.24 -647.63 715.38 C-647.63 714.42 -647.63 713.47 -647.63 712.49 C-647.63 698.1 -647.64 683.71 -647.65 669.33 C-647.67 652.97 -647.67 636.61 -647.65 620.26 C-647.63 611.1 -647.63 601.94 -647.66 592.79 C-647.67 586.67 -647.66 580.56 -647.64 574.45 C-647.63 570.96 -647.63 567.48 -647.65 563.99 C-647.66 560.24 -647.65 556.49 -647.63 552.73 C-647.64 551.65 -647.65 550.57 -647.66 549.45 C-647.58 542.94 -646.62 537.87 -642 533 C-641.34 533 -640.68 533 -640 533 C-640 532.34 -640 531.68 -640 531 C-638.3 529.48 -636.54 528.03 -634.75 526.62 C-631.95 524.41 -629.26 522.27 -626.77 519.71 C-625 518 -625 518 -623 518 C-623 517.34 -623 516.68 -623 516 C-617.52 511 -617.52 511 -615 511 C-615 510.34 -615 509.68 -615 509 C-612.88 507.05 -612.88 507.05 -610.12 504.88 C-609.22 504.15 -608.32 503.43 -607.38 502.68 C-605 501 -605 501 -603 501 C-602.67 500.01 -602.34 499.02 -602 498 C-601.34 498 -600.68 498 -600 498 C-600 497.34 -600 496.68 -600 496 C-598.37 494.52 -596.67 493.12 -594.94 491.75 C-591.54 489.04 -588.19 486.32 -584.94 483.44 C-582 481 -582 481 -580 481 C-579.67 480.01 -579.34 479.02 -579 478 C-578.34 478 -577.68 478 -577 478 C-577 477.34 -577 476.68 -577 476 C-574.88 474.05 -574.88 474.05 -572.12 471.88 C-571.22 471.15 -570.32 470.43 -569.38 469.68 C-567 468 -567 468 -565 468 C-565 467.34 -565 466.68 -565 466 C-564.34 466 -563.68 466 -563 466 C-563 465.34 -563 464.68 -563 464 C-561.31 462.44 -559.54 460.95 -557.75 459.5 C-556.29 458.31 -556.29 458.31 -554.8 457.09 C-552.55 455.41 -550.55 454.12 -548 453 C-548 452.34 -548 451.68 -548 451 C-542.52 446 -542.52 446 -540 446 C-540 445.34 -540 444.68 -540 444 C-537.88 442.05 -537.88 442.05 -535.12 439.88 C-534.22 439.15 -533.32 438.43 -532.38 437.68 C-530 436 -530 436 -528 436 C-527.67 435.01 -527.34 434.02 -527 433 C-526.34 433 -525.68 433 -525 433 C-525 432.34 -525 431.68 -525 431 C-523.37 429.52 -521.67 428.12 -519.94 426.75 C-516.54 424.04 -513.19 421.32 -509.94 418.44 C-507 416 -507 416 -505 416 C-504.67 415.01 -504.34 414.02 -504 413 C-503.34 413 -502.68 413 -502 413 C-502 412.34 -502 411.68 -502 411 C-499.88 409.05 -499.88 409.05 -497.12 406.88 C-496.22 406.15 -495.32 405.43 -494.38 404.68 C-492 403 -492 403 -490 403 C-490 402.34 -490 401.68 -490 401 C-489.34 401 -488.68 401 -488 401 C-488 400.34 -488 399.68 -488 399 C-486.31 397.44 -484.54 395.95 -482.75 394.5 C-481.78 393.71 -480.8 392.91 -479.8 392.09 C-477.55 390.41 -475.55 389.12 -473 388 C-473 387.34 -473 386.68 -473 386 C-471.78 384.95 -471.78 384.95 -470.54 383.87 C-467.35 380.26 -467.3 377.6 -467.39 373.01 C-467.38 372.21 -467.38 371.41 -467.37 370.58 C-467.36 367.91 -467.38 365.23 -467.4 362.55 C-467.4 360.63 -467.4 358.71 -467.39 356.79 C-467.38 352.66 -467.39 348.52 -467.41 344.39 C-467.44 337.84 -467.43 331.29 -467.42 324.74 C-467.4 312.01 -467.41 299.28 -467.43 286.55 C-467.46 270.37 -467.47 254.2 -467.44 238.02 C-467.43 231.52 -467.44 225.02 -467.47 218.52 C-467.48 214.46 -467.48 210.4 -467.47 206.34 C-467.47 204.47 -467.47 202.6 -467.49 200.73 C-467.59 186.34 -466.31 172.78 -457 161 C-456.34 161 -455.68 161 -455 161 C-454.76 160.42 -454.52 159.85 -454.27 159.25 C-452.76 156.57 -451.01 154.96 -448.69 152.94 C-447.93 152.27 -447.17 151.59 -446.39 150.9 C-432.79 140.06 -417.15 140.29 -400.63 140.43 C-398.31 140.43 -395.98 140.43 -393.65 140.43 C-387.38 140.43 -381.1 140.46 -374.82 140.49 C-368.25 140.52 -361.68 140.53 -355.1 140.53 C-344.08 140.55 -333.06 140.58 -322.04 140.62 C-310.69 140.67 -299.35 140.7 -288.01 140.73 C-286.95 140.73 -286.95 140.73 -285.88 140.73 C-282.36 140.74 -278.85 140.74 -275.33 140.75 C-246.22 140.8 -217.11 140.89 -188 141 C-187.67 140.01 -187.34 139.02 -187 138 C-185.27 136.39 -183.47 134.86 -181.62 133.38 C-180.65 132.58 -179.67 131.78 -178.66 130.96 C-176 129 -176 129 -173 128 C-173 127.34 -173 126.68 -173 126 C-167.52 121 -167.52 121 -165 121 C-165 120.34 -165 119.68 -165 119 C-163.31 117.44 -161.54 115.95 -159.75 114.5 C-158.78 113.71 -157.8 112.91 -156.8 112.09 C-154.55 110.41 -152.55 109.12 -150 108 C-150 107.34 -150 106.68 -150 106 C-144.52 101 -144.52 101 -142 101 C-142 100.34 -142 99.68 -142 99 C-140.31 97.44 -138.54 95.95 -136.75 94.5 C-135.29 93.31 -135.29 93.31 -133.8 92.09 C-131.55 90.41 -129.55 89.12 -127 88 C-127 87.34 -127 86.68 -127 86 C-125.29 84.41 -123.5 82.9 -121.69 81.44 C-120.7 80.63 -119.72 79.83 -118.7 79 C-116 77 -116 77 -113 76 C-112.67 75.01 -112.34 74.02 -112 73 C-110.27 71.39 -108.47 69.86 -106.62 68.38 C-105.65 67.58 -104.67 66.78 -103.66 65.96 C-101 64 -101 64 -98 63 C-98 62.34 -98 61.68 -98 61 C-92.52 56 -92.52 56 -90 56 C-90 55.34 -90 54.68 -90 54 C-88.31 52.44 -86.54 50.95 -84.75 49.5 C-83.78 48.71 -82.8 47.91 -81.8 47.09 C-79.55 45.41 -77.55 44.12 -75 43 C-75 42.34 -75 41.68 -75 41 C-69.52 36 -69.52 36 -67 36 C-67 35.34 -67 34.68 -67 34 C-65.31 32.44 -63.54 30.95 -61.75 29.5 C-60.78 28.71 -59.8 27.91 -58.8 27.09 C-56.55 25.41 -54.55 24.12 -52 23 C-52 22.34 -52 21.68 -52 21 C-48.51 17.79 -44.72 14.93 -41 12 C-40.3 11.42 -39.6 10.84 -38.88 10.25 C-27.53 1.17 -14.31 -2.38 0 0 Z M-9 53 C-9 53.66 -9 54.32 -9 55 C-10.14 55.4 -10.14 55.4 -11.31 55.81 C-13.89 56.95 -15.27 57.81 -17 60 C-17 60.66 -17 61.32 -17 62 C-17.55 62.25 -18.1 62.5 -18.67 62.75 C-21.45 64.24 -23.78 66.04 -26.25 68 C-27.59 69.05 -27.59 69.05 -28.95 70.12 C-29.63 70.74 -30.3 71.36 -31 72 C-31 72.66 -31 73.32 -31 74 C-31.54 74.24 -32.08 74.47 -32.64 74.72 C-35.63 76.34 -38.11 78.35 -40.75 80.5 C-41.73 81.29 -42.72 82.09 -43.73 82.91 C-44.48 83.6 -45.23 84.29 -46 85 C-46 85.66 -46 86.32 -46 87 C-46.58 87.27 -47.15 87.54 -47.75 87.81 C-50.06 89.03 -52.02 90.3 -54 92 C-54 92.66 -54 93.32 -54 94 C-54.54 94.24 -55.08 94.47 -55.64 94.72 C-58.63 96.34 -61.11 98.35 -63.75 100.5 C-64.73 101.29 -65.72 102.09 -66.73 102.91 C-67.48 103.6 -68.23 104.29 -69 105 C-69 105.66 -69 106.32 -69 107 C-69.58 107.27 -70.15 107.54 -70.75 107.81 C-73.06 109.03 -75.02 110.3 -77 112 C-77 112.66 -77 113.32 -77 114 C-77.6 114.29 -78.2 114.58 -78.81 114.88 C-81.19 116.05 -81.19 116.05 -84 118 C-84 118.66 -84 119.32 -84 120 C-85.14 120.4 -85.14 120.4 -86.31 120.81 C-88.89 121.95 -90.27 122.81 -92 125 C-92 125.66 -92 126.32 -92 127 C-92.55 127.25 -93.1 127.5 -93.67 127.75 C-96.45 129.24 -98.78 131.04 -101.25 133 C-102.14 133.7 -103.03 134.4 -103.95 135.12 C-104.63 135.74 -105.3 136.36 -106 137 C-106 137.66 -106 138.32 -106 139 C-107.49 139.5 -107.49 139.5 -109 140 C-109 140.33 -109 140.66 -109 141 C-41.68 141 25.64 141 95 141 C94.67 140.34 94.34 139.68 94 139 C93.34 139 92.68 139 92 139 C92 138.34 92 137.68 92 137 C91.34 137 90.68 137 90 137 C90 136.34 90 135.68 90 135 C88.09 133.22 88.09 133.22 85.69 131.44 C84.89 130.82 84.09 130.2 83.26 129.56 C81 127.85 81 127.85 78 127 C78 126.34 78 125.68 78 125 C76.66 123.56 76.66 123.56 74.81 122.06 C74.09 121.45 73.38 120.85 72.64 120.22 C71.77 119.49 70.9 118.75 70 118 C68.88 117.03 67.76 116.06 66.64 115.09 C65.47 114.08 64.3 113.07 63.12 112.06 C62.55 111.57 61.98 111.07 61.39 110.56 C58.59 107.87 58.59 107.87 55 107 C55 106.34 55 105.68 55 105 C53.31 103.44 51.54 101.95 49.75 100.5 C48.78 99.71 47.8 98.91 46.8 98.09 C44.55 96.41 42.55 95.12 40 94 C40 93.34 40 92.68 40 92 C36.52 88.36 36.52 88.36 32 87 C32 86.34 32 85.68 32 85 C30.3 83.48 28.54 82.03 26.75 80.62 C23.95 78.41 21.26 76.27 18.77 73.71 C17.17 71.77 17.17 71.77 15 72 C15 71.34 15 70.68 15 70 C13.09 68.22 13.09 68.22 10.69 66.44 C9.89 65.82 9.09 65.2 8.26 64.56 C6 62.85 6 62.85 3 62 C3 61.34 3 60.68 3 60 C1.36 58.19 1.36 58.19 -0.75 56.38 C-1.45 55.74 -2.14 55.11 -2.86 54.46 C-5.12 52.62 -5.12 52.62 -9 53 Z M-414 194 C-414.21 268.93 -414.41 343.86 -414.62 421.06 C-414.72 444.75 -414.81 468.44 -414.9 492.85 C-414.93 514.02 -414.93 514.02 -414.95 535.19 C-414.96 544.65 -415 554.1 -415.06 563.56 C-415.12 574.46 -415.15 585.36 -415.13 596.25 C-415.13 601.83 -415.14 607.41 -415.19 612.99 C-415.24 618.03 -415.24 623.07 -415.21 628.11 C-415.2 629.93 -415.22 631.76 -415.25 633.58 C-415.72 643.21 -415.72 643.21 -411.83 651.58 C-409.28 653.39 -406.84 654.72 -404 656 C-402.74 656.79 -401.49 657.6 -400.25 658.43 C-399.18 659.09 -398.11 659.76 -397 660.44 C-395.36 661.46 -395.36 661.46 -393.69 662.5 C-391.22 664.16 -391.22 664.16 -389 664 C-389 664.66 -389 665.32 -389 666 C-388.1 666.5 -387.19 667 -386.26 667.52 C-380.66 670.71 -375.29 674.26 -369.88 677.75 C-359.5 684.42 -359.5 684.42 -349.06 691 C-348.1 691.6 -347.15 692.2 -346.16 692.81 C-344.12 694.16 -344.12 694.16 -342 694 C-342 694.66 -342 695.32 -342 696 C-341.01 696 -340.02 696 -339 696 C-339 696.66 -339 697.32 -339 698 C-338.01 698.55 -337.03 699.11 -336.01 699.68 C-331.16 702.45 -326.48 705.46 -321.79 708.46 C-318.28 710.69 -314.95 712.63 -311 714 C-311 714.66 -311 715.32 -311 716 C-310.03 716.54 -309.06 717.07 -308.06 717.62 C-305.12 719.3 -302.3 721.1 -299.5 723 C-292.26 728.14 -292.26 728.14 -284 731 C-284 731.66 -284 732.32 -284 733 C-282.32 734.33 -282.32 734.33 -280.13 735.6 C-278.93 736.34 -278.93 736.34 -277.7 737.09 C-276.85 737.59 -276 738.1 -275.12 738.62 C-274.28 739.14 -273.44 739.66 -272.57 740.19 C-268.55 742.94 -268.55 742.94 -264 744 C-264 744.66 -264 745.32 -264 746 C-263.03 746.54 -262.06 747.07 -261.06 747.62 C-257.38 749.72 -253.89 752.04 -250.41 754.44 C-248.02 755.99 -245.56 757.38 -243.08 758.78 C-238.66 761.37 -234.37 764.17 -230.06 766.94 C-227.24 768.74 -224.42 770.54 -221.6 772.34 C-219.93 773.41 -218.26 774.48 -216.6 775.56 C-215.88 776.01 -215.17 776.47 -214.43 776.94 C-213.5 777.54 -213.5 777.54 -212.56 778.15 C-211 779.16 -211 779.16 -209 779 C-209 779.66 -209 780.32 -209 781 C-208.01 781 -207.02 781 -206 781 C-206 781.66 -206 782.32 -206 783 C-205.46 783.29 -204.93 783.58 -204.37 783.87 C-198.5 787.07 -192.89 790.57 -187.31 794.25 C-185.56 795.4 -183.8 796.54 -182.05 797.69 C-179.63 799.28 -177.2 800.87 -174.78 802.46 C-172.86 803.73 -170.93 804.99 -169 806.25 C-167.39 807.31 -167.39 807.31 -165.75 808.39 C-163.4 809.77 -161.66 810.56 -159 811 C-159 811.66 -159 812.32 -159 813 C-157.61 813.77 -157.61 813.77 -156.19 814.56 C-151.79 817.06 -147.58 819.84 -143.36 822.61 C-141.17 824.17 -141.17 824.17 -139 824 C-139 824.66 -139 825.32 -139 826 C-135.2 828.2 -135.2 828.2 -131 829 C-131 829.66 -131 830.32 -131 831 C-130.03 831.54 -129.06 832.07 -128.06 832.62 C-124.22 834.8 -120.62 837.28 -117.02 839.83 C-114.96 841.25 -114.96 841.25 -112 841 C-112 841.66 -112 842.32 -112 843 C-110.19 844.36 -110.19 844.36 -107.84 845.68 C-106.96 846.2 -106.09 846.71 -105.18 847.25 C-104.26 847.78 -103.33 848.32 -102.38 848.88 C-100.57 849.93 -98.76 850.99 -96.96 852.05 C-96.1 852.56 -95.25 853.06 -94.36 853.58 C-92.35 854.79 -90.41 856.05 -88.48 857.38 C-86.21 859.18 -86.21 859.18 -84 859 C-84 859.66 -84 860.32 -84 861 C-82.99 861.57 -81.98 862.14 -80.94 862.73 C-77.22 864.86 -73.57 867.09 -69.94 869.38 C-69.27 869.79 -68.6 870.21 -67.91 870.65 C-60.82 875.09 -53.77 879.59 -46.71 884.09 C-44.96 885.21 -43.21 886.32 -41.46 887.44 C-39.85 888.46 -38.24 889.49 -36.64 890.53 C-35.92 890.99 -35.21 891.45 -34.47 891.92 C-33.53 892.52 -33.53 892.52 -32.58 893.14 C-31.01 894.16 -31.01 894.16 -29 894 C-29 894.66 -29 895.32 -29 896 C-28.01 896 -27.02 896 -26 896 C-26 896.66 -26 897.32 -26 898 C-25.43 898.3 -24.86 898.61 -24.28 898.92 C-20.41 901.01 -16.77 903.1 -13.31 905.81 C-9.45 908.36 -8.52 908.71 -4 908 C-0.44 906.14 2.82 903.9 6.12 901.62 C7.9 900.43 9.67 899.23 11.45 898.04 C12.61 897.24 12.61 897.24 13.81 896.42 C15.82 895.12 17.83 894.02 20 893 C20 892.34 20 891.68 20 891 C20.59 890.88 21.18 890.75 21.79 890.63 C25.39 889.61 28.3 887.37 31.38 885.31 C32.9 884.31 34.42 883.31 35.94 882.32 C36.75 881.78 37.56 881.25 38.4 880.7 C43.03 877.67 47.71 874.71 52.38 871.75 C53.26 871.18 54.15 870.62 55.07 870.04 C56.83 868.92 58.59 867.8 60.35 866.69 C63.06 864.96 65.76 863.24 68.47 861.52 C72.16 859.17 75.84 856.83 79.54 854.5 C80.45 853.92 81.36 853.35 82.3 852.75 C84.14 851.58 85.99 850.41 87.84 849.25 C93.28 845.8 98.6 842.23 103.85 838.49 C105.72 837.2 107.58 836.04 109.56 834.94 C113.18 832.9 116.57 830.63 119.98 828.27 C122 827 122 827 125 826 C125 825.34 125 824.68 125 824 C125.66 823.76 126.33 823.53 127.01 823.28 C130.81 821.65 134.27 819.62 137.81 817.5 C138.51 817.1 139.2 816.69 139.91 816.28 C141.64 815.24 143.33 814.13 145 813 C145 812.34 145 811.68 145 811 C145.56 810.9 146.11 810.8 146.68 810.7 C149.52 809.84 151.59 808.5 154.07 806.87 C155.05 806.24 156.02 805.6 157.02 804.95 C158 804.31 158.99 803.66 160 803 C161.8 801.85 163.59 800.71 165.39 799.57 C167.2 798.42 169.01 797.27 170.81 796.12 C171.76 795.52 172.71 794.92 173.69 794.29 C177.93 791.6 182.17 788.89 186.39 786.16 C187.03 785.75 187.68 785.34 188.33 784.91 C190 783.83 191.66 782.75 193.32 781.67 C195.51 780.31 197.67 779.09 200 778 C200 777.34 200 776.68 200 776 C200.88 775.82 200.88 775.82 201.78 775.63 C204.04 774.99 205.56 774.18 207.51 772.88 C208.18 772.45 208.85 772.01 209.53 771.56 C210.24 771.09 210.96 770.61 211.69 770.12 C213.21 769.12 214.74 768.12 216.26 767.12 C217.04 766.61 217.83 766.09 218.63 765.56 C222.4 763.08 226.2 760.63 230 758.19 C235.02 754.95 240.02 751.69 244.95 748.32 C246.62 747.24 248.34 746.24 250.07 745.27 C255.09 742.42 259.94 739.29 264.81 736.19 C266.21 735.3 266.21 735.3 267.64 734.4 C273.15 730.89 278.54 727.27 283.86 723.48 C285.72 722.19 287.58 721.04 289.56 719.94 C293.18 717.9 296.57 715.63 299.98 713.27 C302 712 302 712 305 711 C305 710.34 305 709.68 305 709 C305.66 708.76 306.33 708.53 307.01 708.28 C310.81 706.65 314.27 704.62 317.81 702.5 C318.51 702.1 319.2 701.69 319.91 701.28 C321.64 700.24 323.33 699.13 325 698 C325 697.34 325 696.68 325 696 C325.56 695.9 326.11 695.8 326.68 695.7 C329.52 694.84 331.58 693.5 334.06 691.88 C335.03 691.25 336 690.62 337 689.97 C337.99 689.32 338.98 688.67 340 688 C341.84 686.82 343.69 685.64 345.54 684.46 C346.45 683.88 347.36 683.3 348.3 682.7 C349.21 682.12 350.12 681.54 351.06 680.94 C351.98 680.35 352.89 679.77 353.84 679.16 C359.22 675.73 364.64 672.42 370.2 669.26 C370.79 668.85 371.39 668.43 372 668 C372 667.34 372 666.68 372 666 C372.58 665.88 373.15 665.75 373.75 665.62 C376.02 664.99 377.93 664.11 380 663 C380 662.34 380 661.68 380 661 C380.99 661 381.98 661 383 661 C383 660.34 383 659.68 383 659 C384.06 658.62 384.06 658.62 385.14 658.22 C388.25 656.89 390.92 655.27 393.75 653.44 C394.71 652.82 395.68 652.2 396.67 651.56 C398.87 650.2 398.87 650.2 400 649 C400.1 646.58 400.13 644.19 400.12 641.77 C400.12 641 400.13 640.23 400.13 639.44 C400.13 636.83 400.12 634.22 400.12 631.61 C400.12 629.73 400.12 627.86 400.12 625.99 C400.13 620.8 400.12 615.62 400.12 610.44 C400.11 604.78 400.11 599.11 400.11 593.45 C400.11 582.45 400.11 571.44 400.1 560.44 C400.1 547.71 400.1 534.99 400.09 522.27 C400.09 488.66 400.08 455.05 400.06 421.44 C400.04 346.38 400.02 271.33 400 194 C131.38 194 -137.24 194 -414 194 Z M-469 452 C-469 452.66 -469 453.32 -469 454 C-469.58 454.27 -470.15 454.54 -470.75 454.82 C-473.04 456.02 -475 457.38 -477.06 458.94 C-478.07 459.69 -478.07 459.69 -479.1 460.46 C-480.87 461.9 -482.5 463.28 -484 465 C-484 465.66 -484 466.32 -484 467 C-484.57 467.27 -485.14 467.54 -485.73 467.81 C-488.08 469.04 -490.12 470.43 -492.25 472 C-493.31 472.77 -493.31 472.77 -494.39 473.56 C-495.19 474.27 -495.19 474.27 -496 475 C-496 475.66 -496 476.32 -496 477 C-496.58 477.27 -497.15 477.54 -497.75 477.81 C-500.06 479.03 -502.02 480.3 -504 482 C-504 482.66 -504 483.32 -504 484 C-505.49 484.5 -505.49 484.5 -507 485 C-507 485.66 -507 486.32 -507 487 C-507.57 487.27 -508.14 487.54 -508.73 487.81 C-511.08 489.04 -513.12 490.43 -515.25 492 C-516.31 492.77 -516.31 492.77 -517.39 493.56 C-517.92 494.04 -518.45 494.51 -519 495 C-519 495.66 -519 496.32 -519 497 C-519.82 497.34 -519.82 497.34 -520.65 497.68 C-523.74 499.41 -526.04 501.65 -528.62 504.06 C-533.81 508.9 -533.81 508.9 -536 510 C-536 510.66 -536 511.32 -536 512 C-536.58 512.27 -537.15 512.54 -537.75 512.81 C-540.06 514.03 -542.02 515.3 -544 517 C-544 517.66 -544 518.32 -544 519 C-544.58 519.27 -545.15 519.54 -545.75 519.82 C-548.04 521.02 -550 522.38 -552.06 523.94 C-552.73 524.44 -553.41 524.95 -554.1 525.46 C-555.87 526.9 -557.5 528.28 -559 530 C-559 530.66 -559 531.32 -559 532 C-559.57 532.27 -560.14 532.54 -560.73 532.81 C-563.08 534.04 -565.12 535.43 -567.25 537 C-568.31 537.77 -568.31 537.77 -569.39 538.56 C-569.92 539.04 -570.45 539.51 -571 540 C-571 540.66 -571 541.32 -571 542 C-571.64 542.29 -572.28 542.58 -572.94 542.88 C-575.15 543.83 -575.15 543.83 -576 546 C-572.75 548.26 -572.75 548.26 -569 549 C-569 549.66 -569 550.32 -569 551 C-568.03 551.54 -567.06 552.07 -566.06 552.62 C-562.38 554.72 -558.89 557.04 -555.41 559.44 C-552.97 561.02 -550.47 562.44 -547.94 563.87 C-544.34 565.97 -540.86 568.28 -537.38 570.56 C-530.13 576.18 -530.13 576.18 -522 579 C-522 579.66 -522 580.32 -522 581 C-521.01 581 -520.02 581 -519 581 C-519 581.66 -519 582.32 -519 583 C-517.52 583.83 -517.52 583.83 -516.01 584.68 C-511.16 587.45 -506.48 590.46 -501.79 593.46 C-498.28 595.69 -494.95 597.63 -491 599 C-491 599.66 -491 600.32 -491 601 C-490.03 601.54 -489.06 602.07 -488.06 602.62 C-485.1 604.3 -482.3 606.13 -479.5 608.06 C-475.78 610.58 -472.19 612.4 -468 614 C-466.7 612.93 -466.7 612.93 -466.88 610.38 C-466.88 609.2 -466.88 608.02 -466.88 606.81 C-466.88 606.15 -466.88 605.5 -466.88 604.82 C-466.88 602.61 -466.88 600.41 -466.89 598.2 C-466.89 596.62 -466.89 595.05 -466.89 593.47 C-466.89 589.18 -466.89 584.88 -466.9 580.59 C-466.9 576.11 -466.91 571.63 -466.91 567.14 C-466.91 558.65 -466.92 550.16 -466.93 541.67 C-466.94 532 -466.94 522.33 -466.95 512.67 C-466.96 492.78 -466.98 472.89 -467 453 C-467.99 452.5 -467.99 452.5 -469 452 Z M454 452 C452.7 453.07 452.7 453.07 452.88 455.62 C452.88 456.8 452.88 457.98 452.88 459.19 C452.88 459.85 452.88 460.5 452.88 461.18 C452.88 463.39 452.88 465.59 452.89 467.8 C452.89 469.38 452.89 470.95 452.89 472.53 C452.89 476.82 452.89 481.12 452.9 485.41 C452.9 489.89 452.91 494.37 452.91 498.86 C452.91 507.35 452.92 515.84 452.93 524.33 C452.94 534 452.94 543.67 452.95 553.33 C452.96 573.22 452.98 593.11 453 613 C453.99 613.33 454.98 613.66 456 614 C458.34 612.7 458.34 612.7 460.75 610.81 C463.63 608.7 466.43 606.65 469.56 604.94 C473.18 602.9 476.57 600.63 479.98 598.27 C482 597 482 597 485 596 C485 595.34 485 594.68 485 594 C485.71 593.74 486.42 593.48 487.15 593.22 C490.2 591.91 492.79 590.32 495.56 588.5 C498.65 586.48 501.66 584.57 505 583 C505 582.34 505 581.68 505 581 C505.83 580.85 505.83 580.85 506.68 580.69 C509.52 579.84 511.58 578.51 514.05 576.88 C515.02 576.25 515.99 575.62 516.99 574.97 C517.98 574.32 518.98 573.67 520 573 C521.88 571.81 523.76 570.62 525.64 569.43 C526.57 568.84 527.49 568.26 528.45 567.65 C530.33 566.46 532.22 565.27 534.1 564.07 C538.13 561.52 542.13 558.95 545.98 556.13 C549 554 549 554 552 553 C552 552.34 552 551.68 552 551 C552.54 550.92 553.07 550.84 553.62 550.75 C556.84 549.74 559.26 547.93 562 546 C560.64 543.96 560.64 543.96 559 542 C558.34 542 557.68 542 557 542 C557 541.34 557 540.68 557 540 C555.15 538.32 555.15 538.32 552.81 536.62 C551.99 536 551.17 535.38 550.32 534.73 C549.55 534.16 548.79 533.59 548 533 C544.39 530.21 541.23 527.23 538 524 C536.62 522.72 535.22 521.45 533.81 520.19 C532.8 519.28 532.8 519.28 531.77 518.36 C530.11 516.8 530.11 516.8 528 517 C528 516.34 528 515.68 528 515 C526.31 513.44 524.54 511.95 522.75 510.5 C521.78 509.71 520.8 508.91 519.8 508.09 C517.55 506.41 515.55 505.12 513 504 C513 503.34 513 502.68 513 502 C509.52 498.36 509.52 498.36 505 497 C505 496.34 505 495.68 505 495 C503.31 493.44 501.54 491.95 499.75 490.5 C498.78 489.71 497.8 488.91 496.8 488.09 C494.55 486.41 492.55 485.12 490 484 C490 483.34 490 482.68 490 482 C486.52 478.36 486.52 478.36 482 477 C482 476.34 482 475.68 482 475 C480.15 473.32 480.15 473.32 477.81 471.62 C476.99 471 476.17 470.38 475.32 469.73 C474.55 469.16 473.79 468.59 473 468 C469.39 465.21 466.23 462.23 463 459 C458.92 454.53 458.92 454.53 454 452 Z M-596 595 C-596 791.02 -596 987.04 -596 1189 C-595.01 1188.67 -594.02 1188.34 -593 1188 C-593 1187.34 -593 1186.68 -593 1186 C-592.48 1185.79 -591.96 1185.57 -591.42 1185.36 C-587.99 1183.43 -585.2 1180.9 -582.25 1178.31 C-581.62 1177.77 -581 1177.23 -580.35 1176.67 C-576.51 1173.34 -572.7 1169.97 -568.89 1166.59 C-565.92 1164.09 -562.81 1161.78 -559.69 1159.48 C-559.13 1158.99 -558.57 1158.5 -558 1158 C-558 1157.34 -558 1156.68 -558 1156 C-557.42 1155.73 -556.85 1155.46 -556.25 1155.19 C-553.94 1153.97 -551.98 1152.7 -550 1151 C-550 1150.34 -550 1149.68 -550 1149 C-549.42 1148.73 -548.84 1148.46 -548.25 1148.18 C-542.39 1145.11 -537.59 1140.7 -533 1136 C-525.7 1129.35 -525.7 1129.35 -523 1128 C-523 1127.34 -523 1126.68 -523 1126 C-522.42 1125.73 -521.85 1125.46 -521.25 1125.19 C-518.94 1123.97 -516.98 1122.7 -515 1121 C-515 1120.34 -515 1119.68 -515 1119 C-514.42 1118.73 -513.85 1118.46 -513.25 1118.18 C-510.96 1116.98 -509 1115.62 -506.94 1114.06 C-505.93 1113.31 -505.93 1113.31 -504.9 1112.54 C-503.13 1111.1 -501.5 1109.72 -500 1108 C-500 1107.34 -500 1106.68 -500 1106 C-499.14 1105.6 -499.14 1105.6 -498.27 1105.19 C-495.92 1103.96 -493.88 1102.57 -491.75 1101 C-491.04 1100.48 -490.34 1099.97 -489.61 1099.44 C-489.08 1098.96 -488.55 1098.49 -488 1098 C-488 1097.34 -488 1096.68 -488 1096 C-487.13 1095.6 -487.13 1095.6 -486.25 1095.19 C-483.94 1093.97 -481.98 1092.7 -480 1091 C-480 1090.34 -480 1089.68 -480 1089 C-479.46 1088.76 -478.92 1088.53 -478.36 1088.28 C-475.37 1086.66 -472.89 1084.65 -470.25 1082.5 C-468.77 1081.31 -468.77 1081.31 -467.27 1080.09 C-466.52 1079.4 -465.77 1078.71 -465 1078 C-465 1077.34 -465 1076.68 -465 1076 C-464.41 1075.73 -463.82 1075.45 -463.21 1075.17 C-461.06 1074.03 -459.44 1072.82 -457.62 1071.21 C-457.01 1070.68 -456.4 1070.15 -455.77 1069.61 C-455.14 1069.06 -454.52 1068.51 -453.88 1067.94 C-452.62 1066.84 -451.37 1065.75 -450.12 1064.65 C-449.57 1064.17 -449.02 1063.68 -448.45 1063.18 C-447 1062 -447 1062 -445 1061 C-445 1060.34 -445 1059.68 -445 1059 C-444.46 1058.76 -443.92 1058.53 -443.36 1058.28 C-440.37 1056.66 -437.89 1054.65 -435.25 1052.5 C-434.27 1051.71 -433.28 1050.91 -432.27 1050.09 C-431.52 1049.4 -430.77 1048.71 -430 1048 C-430 1047.34 -430 1046.68 -430 1046 C-429.42 1045.73 -428.85 1045.46 -428.25 1045.19 C-425.94 1043.97 -423.98 1042.7 -422 1041 C-422 1040.34 -422 1039.68 -422 1039 C-421.14 1038.6 -421.14 1038.6 -420.25 1038.18 C-417.96 1036.98 -416 1035.62 -413.94 1034.06 C-412.93 1033.31 -412.93 1033.31 -411.9 1032.54 C-410.13 1031.1 -408.5 1029.72 -407 1028 C-407 1027.34 -407 1026.68 -407 1026 C-406.43 1025.73 -405.86 1025.46 -405.27 1025.19 C-402.92 1023.96 -400.88 1022.57 -398.75 1021 C-398.04 1020.48 -397.34 1019.97 -396.61 1019.44 C-396.08 1018.96 -395.55 1018.49 -395 1018 C-395 1017.34 -395 1016.68 -395 1016 C-394.42 1015.73 -393.85 1015.46 -393.25 1015.19 C-390.94 1013.97 -388.98 1012.7 -387 1011 C-387 1010.34 -387 1009.68 -387 1009 C-386.14 1008.6 -386.14 1008.6 -385.25 1008.18 C-382.96 1006.98 -381 1005.62 -378.94 1004.06 C-377.93 1003.31 -377.93 1003.31 -376.9 1002.54 C-375.13 1001.1 -373.5 999.72 -372 998 C-372 997.34 -372 996.68 -372 996 C-371.43 995.73 -370.86 995.46 -370.27 995.19 C-367.92 993.96 -365.88 992.57 -363.75 991 C-363.04 990.48 -362.34 989.97 -361.61 989.44 C-361.08 988.96 -360.55 988.49 -360 988 C-360 987.34 -360 986.68 -360 986 C-359.42 985.73 -358.85 985.46 -358.25 985.19 C-355.94 983.97 -353.98 982.7 -352 981 C-352 980.34 -352 979.68 -352 979 C-351.46 978.76 -350.92 978.53 -350.36 978.28 C-347.37 976.66 -344.89 974.65 -342.25 972.5 C-341.27 971.71 -340.28 970.91 -339.27 970.09 C-338.52 969.4 -337.77 968.71 -337 968 C-337 967.34 -337 966.68 -337 966 C-336.45 965.75 -335.9 965.5 -335.33 965.25 C-332.55 963.76 -330.22 961.96 -327.75 960 C-326.86 959.3 -325.97 958.6 -325.05 957.88 C-324.37 957.26 -323.7 956.64 -323 956 C-323 955.34 -323 954.68 -323 954 C-322.46 953.76 -321.92 953.53 -321.36 953.28 C-318.37 951.66 -315.89 949.65 -313.25 947.5 C-312.27 946.71 -311.28 945.91 -310.27 945.09 C-309.52 944.4 -308.77 943.71 -308 943 C-308 942.34 -308 941.68 -308 941 C-307.48 940.78 -306.95 940.57 -306.41 940.35 C-303.05 938.47 -300.31 935.97 -297.44 933.44 C-296.19 932.35 -294.94 931.26 -293.68 930.18 C-293.06 929.64 -292.44 929.1 -291.8 928.55 C-289.24 926.34 -286.62 924.2 -284 922.06 C-283.13 921.35 -282.25 920.64 -281.36 919.91 C-279.91 918.73 -278.45 917.56 -276.99 916.41 C-275.62 915.31 -274.3 914.16 -273 913 C-273 912.34 -273 911.68 -273 911 C-272.42 910.73 -271.85 910.46 -271.25 910.19 C-268.94 908.97 -266.98 907.7 -265 906 C-265 905.34 -265 904.68 -265 904 C-264.42 903.73 -263.84 903.46 -263.25 903.18 C-257.39 900.11 -252.59 895.7 -248 891 C-240.7 884.35 -240.7 884.35 -238 883 C-238 882.34 -238 881.68 -238 881 C-237.42 880.73 -236.85 880.46 -236.25 880.19 C-233.94 878.97 -231.98 877.7 -230 876 C-230 875.34 -230 874.68 -230 874 C-229.42 873.73 -228.85 873.46 -228.25 873.18 C-225.96 871.98 -224 870.62 -221.94 869.06 C-221.27 868.56 -220.59 868.05 -219.9 867.54 C-218.13 866.1 -216.5 864.72 -215 863 C-215 862.34 -215 861.68 -215 861 C-214.43 860.73 -213.86 860.46 -213.27 860.19 C-210.92 858.96 -208.88 857.57 -206.75 856 C-206.04 855.48 -205.34 854.97 -204.61 854.44 C-204.08 853.96 -203.55 853.49 -203 853 C-203 852.34 -203 851.68 -203 851 C-202.01 850.67 -201.02 850.34 -200 850 C-200 849.01 -200 848.02 -200 847 C-200.99 847 -201.98 847 -203 847 C-203 846.34 -203 845.68 -203 845 C-204.63 843.76 -204.63 843.76 -206.78 842.57 C-207.59 842.09 -208.41 841.61 -209.25 841.12 C-210.14 840.6 -211.02 840.09 -211.94 839.56 C-218.81 835.52 -225.62 831.41 -232.31 827.06 C-232.99 826.63 -233.66 826.19 -234.35 825.74 C-237.57 823.64 -240.71 821.48 -243.79 819.18 C-246.77 816.72 -246.77 816.72 -250 817 C-250 816.34 -250 815.68 -250 815 C-251.68 813.67 -251.68 813.67 -253.87 812.4 C-255.07 811.66 -255.07 811.66 -256.3 810.91 C-257.15 810.41 -258 809.9 -258.88 809.38 C-259.72 808.86 -260.56 808.34 -261.43 807.81 C-265.45 805.06 -265.45 805.06 -270 804 C-270 803.34 -270 802.68 -270 802 C-270.97 801.46 -271.94 800.93 -272.94 800.38 C-276.62 798.28 -280.11 795.96 -283.59 793.56 C-285.99 792.01 -288.44 790.61 -290.93 789.21 C-295.3 786.66 -299.55 783.91 -303.81 781.19 C-304.75 780.6 -305.68 780.01 -306.64 779.4 C-311.26 776.46 -315.8 773.47 -320.26 770.3 C-323.48 768.02 -326.7 765.95 -330.15 764.05 C-334.32 761.68 -338.33 759.02 -342.38 756.44 C-343.34 755.83 -344.3 755.21 -345.29 754.58 C-349.9 751.64 -354.5 748.68 -359.08 745.67 C-359.85 745.17 -360.62 744.66 -361.42 744.14 C-362.85 743.19 -364.29 742.24 -365.72 741.29 C-368.8 739.27 -371.4 737.75 -375 737 C-375 736.34 -375 735.68 -375 735 C-375.95 734.47 -376.91 733.94 -377.89 733.39 C-383.53 730.17 -388.96 726.6 -394.41 723.07 C-395.23 722.55 -396.05 722.02 -396.89 721.48 C-397.64 721.01 -398.38 720.53 -399.14 720.04 C-400.94 718.84 -400.94 718.84 -403 719 C-403 718.34 -403 717.68 -403 717 C-403.74 716.61 -404.47 716.23 -405.23 715.83 C-410.18 713.19 -414.68 710.6 -419 707 C-422.47 704.77 -425.87 702.66 -430 702 C-430 701.34 -430 700.68 -430 700 C-431.68 698.67 -431.68 698.67 -433.87 697.4 C-434.67 696.91 -435.47 696.42 -436.3 695.91 C-437.15 695.41 -438 694.9 -438.88 694.38 C-439.72 693.86 -440.56 693.34 -441.43 692.81 C-445.45 690.06 -445.45 690.06 -450 689 C-450 688.34 -450 687.68 -450 687 C-450.97 686.46 -451.94 685.93 -452.94 685.38 C-456.62 683.28 -460.11 680.96 -463.59 678.56 C-465.99 677.01 -468.44 675.61 -470.93 674.21 C-475.3 671.66 -479.55 668.91 -483.81 666.19 C-485.21 665.3 -485.21 665.3 -486.64 664.4 C-491.26 661.46 -495.8 658.47 -500.26 655.3 C-503.48 653.02 -506.7 650.95 -510.15 649.05 C-514.32 646.68 -518.33 644.02 -522.38 641.44 C-523.34 640.83 -524.3 640.21 -525.29 639.58 C-529.9 636.64 -534.5 633.68 -539.08 630.67 C-539.85 630.17 -540.62 629.66 -541.42 629.14 C-542.85 628.19 -544.29 627.24 -545.72 626.29 C-548.8 624.27 -551.4 622.75 -555 622 C-555 621.34 -555 620.68 -555 620 C-555.95 619.47 -556.91 618.94 -557.89 618.39 C-563.53 615.17 -568.96 611.6 -574.41 608.07 C-575.23 607.55 -576.05 607.02 -576.89 606.48 C-578.01 605.77 -578.01 605.77 -579.14 605.04 C-580.94 603.84 -580.94 603.84 -583 604 C-583 603.34 -583 602.68 -583 602 C-584.79 601.02 -586.58 600.04 -588.38 599.06 C-589.37 598.52 -590.37 597.97 -591.4 597.41 C-592.92 596.59 -594.45 595.77 -596 595 Z M574.23 599.59 C572 601 572 601 569 602 C569 602.66 569 603.32 569 604 C567.93 604.39 567.93 604.39 566.85 604.78 C563.8 606.09 561.21 607.68 558.44 609.5 C555.35 611.52 552.34 613.43 549 615 C549 615.66 549 616.32 549 617 C548.12 617.18 548.12 617.18 547.22 617.37 C544.96 618.01 543.44 618.82 541.49 620.12 C540.82 620.55 540.15 620.99 539.47 621.44 C538.76 621.91 538.04 622.39 537.31 622.88 C535.79 623.88 534.26 624.88 532.74 625.88 C531.96 626.39 531.17 626.91 530.37 627.44 C526.6 629.92 522.8 632.37 519 634.81 C514.6 637.65 510.22 640.51 505.88 643.44 C501.1 646.64 496.18 649.51 491 652 C491 652.66 491 653.32 491 654 C490.29 654.26 489.58 654.53 488.84 654.8 C483.66 656.98 478.98 660.08 474.19 663 C473.11 663.64 472.04 664.28 470.93 664.95 C469.92 665.56 468.9 666.18 467.86 666.81 C466.92 667.38 465.99 667.94 465.03 668.52 C464.36 669.01 463.69 669.5 463 670 C463 670.66 463 671.32 463 672 C462.45 672.09 461.91 672.19 461.34 672.29 C458.35 673.2 456.11 674.71 453.5 676.44 C450.39 678.48 447.37 680.42 444 682 C444 682.66 444 683.32 444 684 C443.27 684.27 442.54 684.55 441.78 684.83 C439.14 685.94 436.9 687.2 434.5 688.75 C433.26 689.54 433.26 689.54 432 690.34 C431.16 690.89 430.31 691.44 429.44 692 C427.75 693.09 426.06 694.17 424.37 695.25 C423.63 695.73 422.88 696.21 422.12 696.7 C420.12 697.92 418.11 698.99 416 700 C416 700.66 416 701.32 416 702 C415.44 702.1 414.88 702.21 414.3 702.31 C411.53 703.14 409.55 704.42 407.14 706.03 C406.2 706.65 405.25 707.27 404.28 707.92 C403.28 708.58 402.28 709.25 401.25 709.94 C399.18 711.31 397.1 712.67 395.03 714.04 C394.01 714.71 392.99 715.39 391.93 716.08 C387.92 718.71 383.88 721.27 379.81 723.81 C379.17 724.21 378.53 724.62 377.87 725.03 C374.98 726.83 372.09 728.55 369 730 C369 730.66 369 731.32 369 732 C368.12 732.18 368.12 732.18 367.22 732.37 C364.96 733.01 363.44 733.82 361.49 735.12 C360.82 735.55 360.15 735.99 359.47 736.44 C358.76 736.91 358.04 737.39 357.31 737.88 C355.79 738.88 354.26 739.88 352.74 740.88 C351.96 741.39 351.17 741.91 350.37 742.44 C346.6 744.92 342.8 747.37 339 749.81 C334.6 752.65 330.22 755.51 325.88 758.44 C321.1 761.64 316.18 764.51 311 767 C311 767.66 311 768.32 311 769 C310.27 769.27 309.54 769.55 308.78 769.83 C306.14 770.94 303.9 772.2 301.5 773.75 C300.67 774.28 299.85 774.8 299 775.34 C297.73 776.16 297.73 776.16 296.44 777 C294.75 778.09 293.06 779.17 291.37 780.25 C290.63 780.73 289.88 781.21 289.12 781.7 C287.12 782.92 285.11 783.99 283 785 C283 785.66 283 786.32 283 787 C282.45 787.09 281.91 787.19 281.34 787.29 C278.35 788.2 276.11 789.71 273.5 791.44 C270.39 793.48 267.37 795.42 264 797 C264 797.66 264 798.32 264 799 C263.27 799.27 262.54 799.55 261.78 799.83 C259.14 800.94 256.9 802.2 254.5 803.75 C253.26 804.54 253.26 804.54 252 805.34 C250.73 806.16 250.73 806.16 249.44 807 C247.75 808.09 246.06 809.17 244.37 810.25 C243.63 810.73 242.88 811.21 242.12 811.7 C240.12 812.92 238.11 813.99 236 815 C236 815.66 236 816.32 236 817 C235.44 817.1 234.88 817.21 234.3 817.31 C231.53 818.14 229.55 819.42 227.14 821.03 C226.2 821.65 225.25 822.27 224.28 822.92 C223.28 823.58 222.28 824.25 221.25 824.94 C219.18 826.31 217.11 827.68 215.04 829.04 C214.01 829.72 212.99 830.39 211.94 831.08 C207.26 834.14 202.5 837.07 197.7 839.94 C194.69 841.78 192.99 843.01 191 846 C191.66 846 192.32 846 193 846 C193 846.66 193 847.32 193 848 C194.57 849.41 196.21 850.76 197.88 852.06 C202.78 855.97 207.42 860.06 212 864.35 C213.82 866.21 213.82 866.21 216 866 C216 866.66 216 867.32 216 868 C217.91 869.78 217.91 869.78 220.31 871.56 C221.11 872.18 221.91 872.8 222.74 873.44 C225 875.15 225 875.15 228 876 C228 876.66 228 877.32 228 878 C229.57 879.41 231.21 880.76 232.88 882.06 C237.78 885.97 242.42 890.06 247 894.35 C248.82 896.21 248.82 896.21 251 896 C251 896.66 251 897.32 251 898 C253.17 900.04 253.17 900.04 255.88 902.12 C256.78 902.85 257.68 903.57 258.62 904.32 C260.79 906.19 260.79 906.19 263 906 C263 906.66 263 907.32 263 908 C266.48 911.64 266.48 911.64 271 913 C271 913.66 271 914.32 271 915 C274.06 918.03 274.06 918.03 278 919 C278 919.66 278 920.32 278 921 C281.48 924.64 281.48 924.64 286 926 C286 926.66 286 927.32 286 928 C288.17 930.04 288.17 930.04 290.88 932.12 C291.78 932.85 292.68 933.57 293.62 934.32 C295.79 936.19 295.79 936.19 298 936 C298.5 937.49 298.5 937.49 299 939 C299.66 939 300.32 939 301 939 C301 939.66 301 940.32 301 941 C302.21 941.4 302.21 941.4 303.44 941.81 C304.28 942.2 305.13 942.6 306 943 C306.5 944.49 306.5 944.49 307 946 C309.64 948.41 309.64 948.41 313 949 C313 949.66 313 950.32 313 951 C316.48 954.64 316.48 954.64 321 956 C321 956.66 321 957.32 321 958 C323.17 960.04 323.17 960.04 325.88 962.12 C326.78 962.85 327.68 963.57 328.62 964.32 C330.79 966.19 330.79 966.19 333 966 C333.33 966.99 333.66 967.98 334 969 C334.66 969 335.32 969 336 969 C336 969.66 336 970.32 336 971 C337.63 972.48 339.33 973.88 341.06 975.25 C344.46 977.96 347.81 980.68 351.06 983.56 C353.62 986.21 353.62 986.21 356 986 C356 986.66 356 987.32 356 988 C357.69 989.56 359.46 991.05 361.25 992.5 C362.22 993.29 363.2 994.09 364.2 994.91 C366.45 996.59 368.45 997.88 371 999 C371 999.66 371 1000.32 371 1001 C372.63 1002.48 374.33 1003.88 376.06 1005.25 C379.46 1007.96 382.81 1010.68 386.06 1013.56 C388.62 1016.21 388.62 1016.21 391 1016 C391 1016.66 391 1017.32 391 1018 C392.69 1019.56 394.46 1021.05 396.25 1022.5 C397.22 1023.29 398.2 1024.09 399.2 1024.91 C401.45 1026.59 403.45 1027.88 406 1029 C406 1029.66 406 1030.32 406 1031 C409.48 1034.64 409.48 1034.64 414 1036 C414 1036.66 414 1037.32 414 1038 C415.91 1039.78 415.91 1039.78 418.31 1041.56 C419.11 1042.18 419.91 1042.8 420.74 1043.44 C423 1045.15 423 1045.15 426 1046 C426 1046.66 426 1047.32 426 1048 C427.69 1049.56 429.46 1051.05 431.25 1052.5 C432.22 1053.29 433.2 1054.09 434.2 1054.91 C436.45 1056.59 438.45 1057.88 441 1059 C441 1059.66 441 1060.32 441 1061 C444.48 1064.64 444.48 1064.64 449 1066 C449 1066.66 449 1067.32 449 1068 C450.91 1069.78 450.91 1069.78 453.31 1071.56 C454.51 1072.49 454.51 1072.49 455.74 1073.44 C458 1075.15 458 1075.15 461 1076 C461 1076.66 461 1077.32 461 1078 C462.69 1079.56 464.46 1081.05 466.25 1082.5 C467.22 1083.29 468.2 1084.09 469.2 1084.91 C471.45 1086.59 473.45 1087.88 476 1089 C476 1089.66 476 1090.32 476 1091 C479.48 1094.64 479.48 1094.64 484 1096 C484 1096.66 484 1097.32 484 1098 C486.17 1100.04 486.17 1100.04 488.88 1102.12 C489.78 1102.85 490.68 1103.57 491.62 1104.32 C493.79 1106.19 493.79 1106.19 496 1106 C496 1106.66 496 1107.32 496 1108 C497.69 1109.56 499.46 1111.05 501.25 1112.5 C502.22 1113.29 503.2 1114.09 504.2 1114.91 C506.45 1116.59 508.45 1117.88 511 1119 C511 1119.66 511 1120.32 511 1121 C514.48 1124.64 514.48 1124.64 519 1126 C519 1126.66 519 1127.32 519 1128 C520.69 1129.56 522.46 1131.05 524.25 1132.5 C525.22 1133.29 526.2 1134.09 527.2 1134.91 C529.45 1136.59 531.45 1137.88 534 1139 C534 1139.66 534 1140.32 534 1141 C536.17 1143.04 536.17 1143.04 538.88 1145.12 C539.78 1145.85 540.68 1146.57 541.62 1147.32 C543.79 1149.19 543.79 1149.19 546 1149 C546 1149.66 546 1150.32 546 1151 C549.48 1154.64 549.48 1154.64 554 1156 C554 1156.66 554 1157.32 554 1158 C555.69 1159.56 557.46 1161.05 559.25 1162.5 C560.22 1163.29 561.2 1164.09 562.2 1164.91 C564.45 1166.59 566.45 1167.88 569 1169 C569 1169.66 569 1170.32 569 1171 C571.17 1173.04 571.17 1173.04 573.88 1175.12 C574.78 1175.85 575.68 1176.57 576.62 1177.32 C578.79 1179.19 578.79 1179.19 581 1179 C581.33 1179.66 581.66 1180.32 582 1181 C582 987.62 582 794.24 582 595 C579.39 595 576.32 598.15 574.23 599.59 Z "
        fill="#000000" transform="translate(647,6)" />
    <path
        d="M0 0 C2.78 -0.04 5.54 0.01 8.31 0.08 C9.02 0.06 9.72 0.05 10.45 0.03 C20.69 0.3 32.01 7.23 39.31 14.08 C39.31 14.74 39.31 15.4 39.31 16.08 C39.97 16.08 40.63 16.08 41.31 16.08 C49.85 26.21 54.45 38.4 55.14 51.6 C55.36 54.79 56.08 57.77 56.84 60.88 C57.5 63.97 57.79 67.08 58.07 70.23 C58.22 72.17 58.22 72.17 59.31 74.08 C59.49 75.95 59.63 77.83 59.75 79.71 C60.07 83.97 60.63 87.86 61.77 91.97 C63.43 98.45 64.28 105.12 64.81 111.77 C65.15 115.87 65.82 119.71 66.77 123.71 C68.28 130.32 69.27 137.01 69.81 143.77 C70.15 147.87 70.82 151.71 71.77 155.71 C73.28 162.32 74.27 169.01 74.81 175.77 C75.15 179.93 75.85 183.82 76.84 187.88 C77.5 190.97 77.79 194.08 78.07 197.23 C78.22 199.17 78.22 199.17 79.31 201.08 C79.49 202.95 79.63 204.83 79.75 206.71 C80.07 210.97 80.63 214.86 81.77 218.97 C83.43 225.45 84.28 232.12 84.81 238.77 C85.15 242.87 85.82 246.71 86.77 250.71 C88.28 257.32 89.27 264.01 89.81 270.77 C90.15 274.87 90.82 278.71 91.77 282.71 C93.28 289.32 94.27 296.01 94.81 302.77 C95.15 306.93 95.85 310.82 96.84 314.88 C97.5 317.97 97.79 321.08 98.07 324.23 C98.22 326.17 98.22 326.17 99.31 328.08 C99.49 329.77 99.63 331.45 99.75 333.14 C100.03 336.63 100.43 339.89 101.31 343.27 C105.15 359.5 103.38 375.42 95.69 390.21 C95.23 390.83 94.78 391.44 94.31 392.08 C93.65 392.08 92.99 392.08 92.31 392.08 C92.09 392.64 91.86 393.2 91.62 393.77 C89.36 397.77 86.69 400.62 82.31 402.08 C82.31 402.74 82.31 403.4 82.31 404.08 C79.82 405.41 77.32 406.72 74.81 408.02 C74.12 408.39 73.42 408.77 72.7 409.15 C61.96 414.67 46.81 414.91 35.24 411.47 C34.54 411.22 33.84 410.98 33.11 410.73 C32.33 410.46 31.54 410.19 30.74 409.92 C29.94 409.64 29.14 409.37 28.31 409.08 C26.79 408.57 25.27 408.06 23.74 407.55 C21.46 406.78 19.17 406.01 16.89 405.24 C12.39 403.74 7.88 402.37 3.31 401.08 C1.91 400.61 0.52 400.14 -0.88 399.64 C-5.51 398.07 -10.22 396.93 -14.99 395.83 C-17.69 395.08 -17.69 395.08 -19.67 394.09 C-22.26 392.8 -24.82 392.23 -27.62 391.58 C-31.48 390.68 -35.03 389.6 -38.69 388.08 C-41.02 387.41 -43.35 386.74 -45.69 386.08 C-47.09 385.61 -48.48 385.13 -49.88 384.64 C-53.2 383.52 -56.52 382.63 -59.94 381.83 C-66.68 380.2 -73.18 377.94 -79.75 375.71 C-85.12 373.89 -90.5 372.24 -96 370.83 C-101.07 369.53 -105.82 368.01 -110.69 366.08 C-115.48 364.34 -120.29 362.9 -125.25 361.71 C-130.27 360.49 -135.2 359.06 -140.12 357.52 C-140.8 357.31 -141.47 357.1 -142.17 356.88 C-144.97 356 -147.72 355.07 -150.44 353.97 C-159.5 350.39 -170.69 352.02 -179.69 355.08 C-179.91 360.93 -179.63 366.16 -178.2 371.84 C-177.49 374.95 -177.21 378.06 -176.93 381.23 C-176.78 383.17 -176.78 383.17 -175.69 385.08 C-175.51 386.95 -175.37 388.83 -175.25 390.71 C-174.98 394.26 -174.68 397.64 -173.75 401.08 C-167.44 424.51 -169.77 447.09 -181.5 468.33 C-182.22 469.59 -182.95 470.84 -183.69 472.08 C-184.35 472.08 -185.01 472.08 -185.69 472.08 C-185.92 472.8 -186.15 473.52 -186.38 474.26 C-187.95 477.64 -189.89 479.62 -192.56 482.21 C-193.43 483.06 -194.29 483.9 -195.18 484.78 C-200.95 490.08 -200.95 490.08 -203.69 490.08 C-203.69 490.74 -203.69 491.4 -203.69 492.08 C-206.25 493.38 -208.81 494.67 -211.38 495.96 C-212.1 496.32 -212.82 496.69 -213.56 497.06 C-231.4 506.02 -250.46 507 -269.69 502.08 C-272.63 500.98 -274.96 499.7 -277.69 498.08 C-278.76 497.67 -279.83 497.26 -280.94 496.83 C-286.6 494.47 -291.85 490.82 -296.69 487.08 C-296.69 486.42 -296.69 485.76 -296.69 485.08 C-297.68 484.75 -298.67 484.42 -299.69 484.08 C-299.69 483.42 -299.69 482.76 -299.69 482.08 C-300.35 482.08 -301.01 482.08 -301.69 482.08 C-301.69 481.42 -301.69 480.76 -301.69 480.08 C-302.68 479.75 -303.67 479.42 -304.69 479.08 C-304.69 478.42 -304.69 477.76 -304.69 477.08 C-305.35 477.08 -306.01 477.08 -306.69 477.08 C-309.69 472.7 -309.69 472.7 -309.69 470.08 C-310.35 470.08 -311.01 470.08 -311.69 470.08 C-320.76 455.49 -323.06 440.35 -325.29 423.59 C-325.64 420.96 -325.64 420.96 -326.69 418.08 C-326.86 416.38 -327.01 414.67 -327.12 412.96 C-327.49 408.59 -328.19 404.51 -329.22 400.26 C-329.85 397.33 -330.11 394.41 -330.4 391.43 C-330.91 387.27 -331.81 383.18 -332.69 379.08 C-333.88 379.11 -335.08 379.13 -336.31 379.15 C-351.25 379.36 -361.9 377.61 -374.69 369.08 C-374.69 368.42 -374.69 367.76 -374.69 367.08 C-375.55 366.73 -375.55 366.73 -376.43 366.36 C-379.17 364.81 -380.81 362.96 -382.88 360.58 C-383.92 359.39 -383.92 359.39 -384.98 358.18 C-386.69 356.08 -386.69 356.08 -387.69 354.08 C-390.79 354.39 -393.9 354.7 -397 355.02 C-397.88 355.11 -398.76 355.19 -399.67 355.28 C-400.52 355.37 -401.37 355.46 -402.24 355.55 C-403.02 355.63 -403.8 355.7 -404.6 355.78 C-406.88 356.05 -406.88 356.05 -409.69 357.08 C-411.56 357.26 -413.44 357.4 -415.31 357.52 C-419.78 357.86 -423.94 358.49 -428.29 359.54 C-443.31 362.94 -457.67 363.83 -471.64 356.39 C-476.98 352.98 -482.5 348.87 -486.69 344.08 C-486.69 343.42 -486.69 342.76 -486.69 342.08 C-487.35 342.08 -488.01 342.08 -488.69 342.08 C-490.12 340.07 -490.12 340.07 -491.69 337.39 C-492.2 336.52 -492.72 335.65 -493.25 334.76 C-499.92 322.35 -501.29 306.55 -502.41 292.67 C-502.75 289.47 -503.45 286.42 -504.21 283.29 C-504.88 280.19 -505.17 277.08 -505.44 273.93 C-505.6 271.99 -505.6 271.99 -506.69 270.08 C-507.62 252.69 -504.62 239.96 -493.69 226.08 C-493.03 226.08 -492.37 226.08 -491.69 226.08 C-491.36 225.09 -491.03 224.1 -490.69 223.08 C-490.03 223.08 -489.37 223.08 -488.69 223.08 C-488.69 222.42 -488.69 221.76 -488.69 221.08 C-486.13 218.79 -485.21 218.08 -481.69 218.08 C-481.69 217.42 -481.69 216.76 -481.69 216.08 C-473.24 212.09 -465.37 210.02 -456.12 208.83 C-453.83 208.52 -451.54 208.2 -449.25 207.88 C-447.75 207.68 -447.75 207.68 -446.22 207.48 C-443.57 207.14 -443.57 207.14 -440.69 206.08 C-438.96 205.91 -437.23 205.76 -435.5 205.64 C-431.39 205.3 -427.64 204.66 -423.68 203.56 C-420.07 202.69 -416.38 202.41 -412.69 202.08 C-412.47 201.4 -412.25 200.73 -412.02 200.03 C-409.05 191.29 -405.05 182.9 -398.69 176.08 C-398.03 176.08 -397.37 176.08 -396.69 176.08 C-396.69 175.42 -396.69 174.76 -396.69 174.08 C-387.34 165.28 -375.11 160.71 -362.35 160.32 C-359.47 160.06 -356.83 159.34 -354.04 158.61 C-348.3 157.32 -342.37 156.88 -336.53 156.23 C-330.75 155.55 -325.3 154.59 -319.69 153.08 C-313.82 151.92 -307.96 151.06 -302 150.58 C-297.9 150.25 -294.06 149.58 -290.06 148.62 C-283.44 147.12 -276.76 146.12 -270 145.58 C-265.9 145.25 -262.06 144.58 -258.06 143.62 C-251.67 142.17 -245.22 141.15 -238.69 140.71 C-232.36 140.21 -226.24 138.82 -220.04 137.53 C-214.72 136.44 -209.52 135.65 -204.1 135.3 C-199.9 134.92 -195.8 134 -191.69 133.08 C-191.69 132.42 -191.69 131.76 -191.69 131.08 C-187.3 128.08 -187.3 128.08 -184.69 128.08 C-184.69 127.42 -184.69 126.76 -184.69 126.08 C-183.7 126.08 -182.71 126.08 -181.69 126.08 C-181.69 125.42 -181.69 124.76 -181.69 124.08 C-180.07 122.66 -180.07 122.66 -177.82 121.04 C-177.02 120.46 -176.21 119.88 -175.39 119.29 C-174.54 118.68 -173.69 118.08 -172.81 117.46 C-171.97 116.85 -171.13 116.24 -170.26 115.61 C-163.95 111.08 -163.95 111.08 -161.69 111.08 C-161.69 110.42 -161.69 109.76 -161.69 109.08 C-160.07 107.66 -160.07 107.66 -157.82 106.04 C-157.02 105.46 -156.21 104.88 -155.39 104.29 C-154.54 103.68 -153.69 103.08 -152.81 102.46 C-151.97 101.85 -151.13 101.24 -150.26 100.61 C-143.95 96.08 -143.95 96.08 -141.69 96.08 C-141.69 95.42 -141.69 94.76 -141.69 94.08 C-140.15 92.74 -140.15 92.74 -138 91.22 C-137.22 90.66 -136.44 90.1 -135.63 89.53 C-134.8 88.95 -133.98 88.37 -133.12 87.77 C-132.33 87.2 -131.53 86.63 -130.7 86.04 C-129.12 84.92 -127.53 83.8 -125.94 82.68 C-124.49 81.65 -123.04 80.61 -121.61 79.55 C-116.89 76.08 -116.89 76.08 -114.69 76.08 C-114.69 75.42 -114.69 74.76 -114.69 74.08 C-113.07 72.66 -113.07 72.66 -110.82 71.04 C-110.02 70.46 -109.21 69.88 -108.39 69.29 C-107.54 68.68 -106.69 68.08 -105.81 67.46 C-104.97 66.85 -104.13 66.24 -103.26 65.61 C-96.95 61.08 -96.95 61.08 -94.69 61.08 C-94.69 60.42 -94.69 59.76 -94.69 59.08 C-93.16 57.76 -93.16 57.76 -91.03 56.25 C-89.87 55.42 -89.87 55.42 -88.68 54.58 C-87.86 54 -87.03 53.43 -86.19 52.83 C-84.59 51.7 -83 50.57 -81.41 49.44 C-80.61 48.88 -79.82 48.32 -79 47.74 C-76.2 45.73 -73.45 43.67 -70.71 41.6 C-67.79 39.4 -64.84 37.25 -61.89 35.08 C-55.5 30.4 -49.13 25.7 -42.88 20.83 C-16.52 0.5 -16.52 0.5 0 0 Z M1.31 54.08 C-4.76 58.08 -10.73 62.19 -16.62 66.46 C-17.41 67.03 -18.2 67.6 -19.01 68.18 C-23.87 71.71 -28.59 75.35 -33.23 79.17 C-36.88 82.01 -40.71 84.58 -44.58 87.11 C-45.98 88.05 -47.34 89.06 -48.69 90.08 C-48.69 90.74 -48.69 91.4 -48.69 92.08 C-49.47 92.39 -50.25 92.7 -51.06 93.02 C-53.61 94.01 -53.61 94.01 -55.69 95.08 C-55.69 95.74 -55.69 96.4 -55.69 97.08 C-56.25 97.35 -56.81 97.62 -57.39 97.89 C-59.84 99.16 -62.13 100.57 -64.44 102.08 C-65.24 102.6 -66.04 103.11 -66.86 103.64 C-67.46 104.12 -68.07 104.59 -68.69 105.08 C-68.69 105.74 -68.69 106.4 -68.69 107.08 C-69.47 107.39 -70.25 107.7 -71.06 108.02 C-73.61 109.01 -73.61 109.01 -75.69 110.08 C-75.69 110.74 -75.69 111.4 -75.69 112.08 C-76.37 112.31 -77.06 112.53 -77.77 112.77 C-81.43 114.42 -84.26 116.65 -87.38 119.14 C-93.49 123.98 -93.49 123.98 -95.69 125.08 C-95.69 125.74 -95.69 126.4 -95.69 127.08 C-96.47 127.39 -97.25 127.7 -98.06 128.02 C-100.61 129.01 -100.61 129.01 -102.69 130.08 C-102.69 130.74 -102.69 131.4 -102.69 132.08 C-103.37 132.31 -104.06 132.53 -104.77 132.77 C-108.43 134.42 -111.26 136.65 -114.38 139.14 C-120.49 143.98 -120.49 143.98 -122.69 145.08 C-122.69 145.74 -122.69 146.4 -122.69 147.08 C-123.39 147.33 -124.1 147.58 -124.82 147.83 C-128.06 149.24 -130.65 151.01 -133.5 153.08 C-134.96 154.13 -134.96 154.13 -136.46 155.21 C-137.19 155.83 -137.93 156.44 -138.69 157.08 C-138.69 157.74 -138.69 158.4 -138.69 159.08 C-139.86 159.55 -139.86 159.55 -141.06 160.02 C-143.61 161.01 -143.61 161.01 -145.69 162.08 C-145.69 162.74 -145.69 163.4 -145.69 164.08 C-146.49 164.45 -146.49 164.45 -147.31 164.83 C-150.25 166.38 -152.95 168.21 -155.69 170.08 C-155.54 170.91 -155.4 171.74 -155.25 172.6 C-154.44 177.62 -153.83 182.67 -153.19 187.72 C-152.79 191.07 -152.79 191.07 -151.69 194.08 C-151.51 195.79 -151.37 197.5 -151.25 199.21 C-150.89 203.5 -150.23 207.53 -149.23 211.71 C-147.72 218.32 -146.73 225.01 -146.19 231.77 C-145.85 235.87 -145.18 239.71 -144.23 243.71 C-142.72 250.32 -141.73 257.01 -141.19 263.77 C-140.85 267.93 -140.15 271.82 -139.16 275.88 C-138.5 278.97 -138.21 282.08 -137.93 285.23 C-137.78 287.17 -137.78 287.17 -136.69 289.08 C-136.49 292.1 -136.37 295.11 -136.26 298.14 C-135.55 301.81 -134.69 302.88 -131.69 305.08 C-129.26 306.05 -127 306.82 -124.5 307.52 C-123.46 307.83 -123.46 307.83 -122.39 308.14 C-120.16 308.8 -117.92 309.44 -115.69 310.08 C-113.42 310.74 -111.15 311.4 -108.88 312.07 C-107.46 312.48 -106.04 312.89 -104.62 313.29 C-101.32 314.25 -98.1 315.28 -94.89 316.54 C-88.9 318.84 -82.67 320.3 -76.47 321.92 C-75.53 322.17 -74.58 322.42 -73.61 322.68 C-72.76 322.9 -71.91 323.12 -71.03 323.35 C-68.76 324.06 -66.8 325 -64.69 326.08 C-62.7 326.62 -60.7 327.12 -58.69 327.58 C-55.04 328.42 -52.02 329.4 -48.69 331.08 C-46.86 331.58 -45.03 332.04 -43.19 332.46 C-36.08 334.17 -29.25 336.49 -22.36 338.9 C-17.1 340.71 -11.8 342.08 -6.39 343.34 C-3.91 344.02 -1.96 344.93 0.31 346.08 C1.95 346.52 3.6 346.91 5.25 347.27 C11.23 348.7 16.99 350.6 22.81 352.58 C29.47 354.85 36.06 356.95 42.94 358.48 C45.51 359.13 47.87 360.05 50.31 361.08 C50.1 359.19 50.1 359.19 49.88 357.27 C49.47 353.71 49.16 350.15 48.88 346.58 C48.51 342.43 47.82 338.51 46.85 334.45 C45.35 327.84 44.35 321.15 43.81 314.39 C43.48 310.23 42.77 306.34 41.79 302.29 C41.12 299.19 40.83 296.08 40.56 292.93 C40.4 290.99 40.4 290.99 39.31 289.08 C39.13 287.21 38.99 285.33 38.88 283.46 C38.55 279.19 37.99 275.3 36.85 271.2 C35.2 264.72 34.34 258.05 33.81 251.39 C33.48 247.29 32.81 243.45 31.85 239.45 C30.35 232.84 29.35 226.15 28.81 219.39 C28.48 215.23 27.77 211.34 26.79 207.29 C26.12 204.19 25.83 201.08 25.56 197.93 C25.4 195.99 25.4 195.99 24.31 194.08 C24.13 192.21 23.99 190.33 23.88 188.46 C23.55 184.19 22.99 180.3 21.85 176.2 C20.2 169.72 19.34 163.05 18.81 156.39 C18.48 152.29 17.81 148.45 16.85 144.45 C15.35 137.84 14.35 131.15 13.81 124.39 C13.48 120.29 12.81 116.45 11.85 112.45 C10.35 105.84 9.35 99.15 8.81 92.39 C8.48 88.23 7.77 84.34 6.79 80.29 C6.12 77.19 5.83 74.08 5.56 70.93 C5.4 68.99 5.4 68.99 4.31 67.08 C4.04 63.97 3.87 60.86 3.69 57.73 C3.57 56.86 3.44 55.98 3.31 55.08 C2.32 54.59 2.32 54.59 1.31 54.08 Z M-214.25 189.96 C-219.15 190.85 -223.95 191.43 -228.92 191.74 C-231.85 192.04 -231.85 192.04 -235.27 193.02 C-241.67 194.69 -248.28 195.2 -254.84 195.94 C-260.62 196.62 -266.07 197.57 -271.69 199.08 C-277.74 200.3 -283.78 201.14 -289.94 201.58 C-293.99 201.88 -297.67 202.46 -301.57 203.54 C-308.88 205.41 -316.41 206.27 -323.92 206.74 C-326.85 207.04 -326.85 207.04 -330.24 208.03 C-336.81 209.74 -343.63 210.14 -350.37 210.76 C-351.93 210.93 -351.93 210.93 -353.52 211.11 C-354.94 211.24 -354.94 211.24 -356.38 211.38 C-358.84 211.87 -358.84 211.87 -360.02 214.02 C-360.81 216.47 -360.63 217.62 -359.94 220.08 C-358.04 227.55 -356.8 235.08 -356.19 242.77 C-355.85 246.93 -355.15 250.82 -354.16 254.88 C-353.5 257.97 -353.21 261.08 -352.93 264.23 C-352.78 266.17 -352.78 266.17 -351.69 268.08 C-351.51 269.95 -351.37 271.83 -351.25 273.71 C-350.93 277.97 -350.37 281.86 -349.23 285.97 C-347.61 292.32 -346.74 298.86 -346.25 305.39 C-345.7 312.4 -344.16 319.22 -342.69 326.08 C-336.83 326.28 -331.49 326.28 -325.84 324.66 C-319.37 322.93 -312.66 322.11 -306 321.58 C-301.84 321.25 -297.95 320.54 -293.89 319.55 C-290.8 318.89 -287.69 318.6 -284.54 318.33 C-282.6 318.17 -282.6 318.17 -280.69 317.08 C-277.83 316.8 -274.98 316.64 -272.12 316.46 C-269.46 316.17 -267.07 315.75 -264.47 315.14 C-258.33 313.71 -252.11 313.01 -245.86 312.23 C-240.72 311.56 -235.71 310.72 -230.67 309.54 C-224.36 308.08 -217.95 307.13 -211.5 306.64 C-203.81 306.03 -196.26 304.49 -188.69 303.08 C-187.26 299.16 -187.97 295.47 -188.56 291.46 C-188.7 290.44 -188.7 290.44 -188.84 289.39 C-189.35 285.62 -189.35 285.62 -190.69 282.08 C-190.87 280.23 -191.01 278.38 -191.12 276.52 C-191.47 271.95 -192.12 267.69 -193.21 263.25 C-193.89 260.17 -194.17 257.07 -194.44 253.93 C-194.6 251.99 -194.6 251.99 -195.69 250.08 C-195.87 248.21 -196.01 246.33 -196.12 244.46 C-196.45 240.19 -197.01 236.3 -198.15 232.2 C-199.76 225.88 -200.63 219.38 -201.12 212.89 C-201.74 205.21 -203.28 197.65 -204.69 190.08 C-208.17 188.91 -210.68 189.26 -214.25 189.96 Z M-417.69 256.08 C-419.39 256.26 -421.1 256.4 -422.81 256.52 C-427.1 256.88 -431.12 257.53 -435.29 258.54 C-439.16 259.41 -443.07 260 -446.99 260.62 C-449.26 261.01 -451.46 261.48 -453.69 262.08 C-453.55 264.21 -453.4 266.33 -453.25 268.46 C-453.17 269.64 -453.09 270.82 -453 272.04 C-452.88 275 -452.88 275 -451.69 277.08 C-451.51 278.95 -451.37 280.83 -451.25 282.71 C-450.98 286.34 -450.65 289.76 -449.69 293.27 C-448.72 296.96 -448.34 300.32 -448.13 304.1 C-447.55 306.68 -446.79 307.5 -444.69 309.08 C-442.19 309.25 -442.19 309.25 -439.43 308.79 C-438.39 308.65 -437.35 308.52 -436.28 308.38 C-435.2 308.22 -434.12 308.06 -433 307.89 C-431.94 307.75 -430.87 307.61 -429.78 307.47 C-423.95 306.68 -418.37 305.57 -412.69 304.08 C-409.51 303.52 -406.32 303.03 -403.13 302.55 C-400.75 302.33 -400.75 302.33 -399.69 301.08 C-399.89 298.97 -400.11 296.85 -400.37 294.75 C-400.69 292.03 -400.91 289.31 -401.12 286.58 C-401.5 282.36 -402.22 278.38 -403.22 274.27 C-403.7 272.01 -403.97 269.81 -404.19 267.52 C-404.6 263.22 -405.55 259.24 -406.69 255.08 C-408.57 255.05 -408.57 255.05 -410.5 255.02 C-411.21 255.01 -411.92 255 -412.64 254.98 C-414.89 255 -414.89 255 -417.69 256.08 Z M-242.07 363.37 C-248.61 365.15 -255.38 366.03 -262.12 366.52 C-268.47 367.02 -274.53 368.53 -280.69 370.08 C-280.54 371.08 -280.4 372.07 -280.25 373.09 C-279.5 378.34 -278.85 383.6 -278.19 388.85 C-277.87 391.96 -277.87 391.96 -276.69 394.08 C-276.41 396.97 -276.24 399.85 -276.07 402.75 C-275.71 405.9 -275 408.81 -274.19 411.88 C-273.45 415.14 -273.12 418.42 -272.75 421.75 C-271.59 431.78 -270.32 439.79 -262.68 446.96 C-255.92 452.17 -249.23 452.16 -241 452.02 C-235.29 450.4 -230.65 446.46 -226.69 442.08 C-221.87 432.45 -223.25 422.27 -225.18 411.99 C-225.68 409.12 -225.97 406.3 -226.19 403.39 C-226.52 399.29 -227.19 395.45 -228.15 391.45 C-229.68 384.72 -230.67 377.97 -231.06 371.08 C-231.35 367.85 -231.64 366.17 -233.19 363.27 C-236.6 361.65 -238.51 362.38 -242.07 363.37 Z "
        fill="#000000" transform="translate(788.6875,255.91796875)" />
    <path
        d="M0 0 C3.19 1.33 6.39 2.19 9.73 3.07 C21.3 6.3 29.46 10.54 35.73 21.14 C38.23 26.77 38.77 32.49 37.08 38.43 C33.54 47.24 27.66 53.58 18.98 57.32 C9.24 59.76 0.68 57.04 -8.23 52.94 C-11 51.85 -13.84 51.12 -16.71 50.32 C-23 48.43 -29.16 45.96 -32.48 39.95 C-32.74 39.35 -33 38.75 -33.27 38.14 C-33.93 38.14 -34.59 38.14 -35.27 38.14 C-38.27 33.12 -38.73 29.31 -38.64 23.64 C-38.66 22.9 -38.67 22.17 -38.68 21.41 C-38.65 16.59 -37.8 13.37 -35.27 9.14 C-34.61 9.14 -33.95 9.14 -33.27 9.14 C-33.02 8.54 -32.77 7.95 -32.51 7.33 C-31.11 4.85 -29.75 3.68 -27.46 2.01 C-26.79 1.51 -26.12 1.02 -25.44 0.5 C-17.14 -4.73 -8.64 -3.92 0 0 Z "
        fill="#000000" transform="translate(965.26953125,509.86328125)" />
    <path
        d="M0 0 C4.91 5.95 7.08 12.71 6.78 20.41 C6.09 24.59 4.37 28.17 2.38 31.88 C1.88 32.87 1.88 32.87 1.38 33.88 C0.72 33.88 0.06 33.88 -0.62 33.88 C-0.83 34.45 -1.04 35.03 -1.25 35.62 C-3.95 40.05 -8.8 42.34 -13.62 43.88 C-20.07 45.38 -26.62 46.39 -33.16 47.41 C-35.62 47.76 -35.62 47.76 -37.62 48.88 C-45.89 49.75 -52.52 49.57 -59.44 44.7 C-66.14 39.1 -70.28 33.69 -71.62 24.88 C-71.44 21.19 -71.44 21.19 -70.62 17.88 C-70.4 16.74 -70.17 15.61 -69.94 14.44 C-67.43 7.62 -63.29 2.51 -56.96 -1.1 C-52.36 -3.12 -47.52 -4.1 -42.62 -5.12 C-41.82 -5.32 -41.01 -5.51 -40.17 -5.71 C-25.33 -9.27 -12.41 -10.05 0 0 Z "
        fill="#000000" transform="translate(988.625,414.125)" />
    <path
        d="M0 0 C1.17 0.72 2.32 1.46 3.44 2.25 C4.32 2.83 5.21 3.4 6.12 4 C12.11 9.83 14.1 15.07 14.44 23.43 C14.44 33.05 11.18 38.63 4.56 45.38 C-5.74 55.25 -5.74 55.25 -8.56 55.25 C-8.56 55.91 -8.56 56.57 -8.56 57.25 C-10.76 59.12 -10.76 59.12 -13.69 61.25 C-14.64 61.95 -15.59 62.65 -16.57 63.38 C-22.68 67.21 -28.49 68.1 -35.56 67.25 C-43.37 65.09 -49.96 60.16 -54.44 53.44 C-57.54 44.64 -58.29 38.05 -54.56 29.25 C-50.97 22.84 -45.4 17.64 -39.56 13.25 C-38.9 13.25 -38.24 13.25 -37.56 13.25 C-37.56 12.59 -37.56 11.93 -37.56 11.25 C-36.9 11.25 -36.24 11.25 -35.56 11.25 C-35.56 10.59 -35.56 9.93 -35.56 9.25 C-25.91 0.1 -13.18 -6.34 0 0 Z "
        fill="#000000" transform="translate(954.5625,310.75)" />
    <path
        d="M0 0 C0.47 0.47 0.95 0.95 1.44 1.44 C1.44 2.1 1.44 2.76 1.44 3.44 C2.1 3.44 2.76 3.44 3.44 3.44 C8.25 11.61 10.58 17.76 9.44 27.44 C6.73 36.32 0.98 41.73 -6.81 46.38 C-14.05 48.43 -20.93 48.57 -27.88 45.44 C-34.96 41.41 -40.32 35.34 -42.56 27.44 C-43.62 17.98 -41.78 11.26 -36.56 3.44 C-35.9 3.44 -35.24 3.44 -34.56 3.44 C-34.56 2.78 -34.56 2.12 -34.56 1.44 C-24.38 -6.68 -11.02 -6.72 0 0 Z "
        fill="#000000" transform="translate(656.5625,1225.5625)" />
</svg>