<?xml version="1.0" encoding="UTF-8"?>
<!DOCTYPE svg PUBLIC "-//W3C//DTD SVG 1.1//EN" "http://www.w3.org/Graphics/SVG/1.1/DTD/svg11.dtd">
<svg xmlns="http://www.w3.org/2000/svg" version="1.1" width="512px" height="512px" style="shape-rendering:geometricPrecision; text-rendering:geometricPrecision; image-rendering:optimizeQuality; fill-rule:evenodd; clip-rule:evenodd" xmlns:xlink="http://www.w3.org/1999/xlink">
<g><path style="opacity:0.987" fill="#fc0136" d="M 90.5,-0.5 C 101.167,-0.5 111.833,-0.5 122.5,-0.5C 148.045,6.03319 167.545,20.6999 181,43.5C 195.131,19.1869 215.964,4.52022 243.5,-0.5C 250.833,-0.5 258.167,-0.5 265.5,-0.5C 281.47,2.65172 295.803,9.31838 308.5,19.5C 311.5,21.8333 314.167,24.5 316.5,27.5C 318.515,30.8384 321.015,33.8384 324,36.5C 325.569,39.9712 327.403,43.3045 329.5,46.5C 342.446,21.7087 362.446,6.04205 389.5,-0.5C 400.167,-0.5 410.833,-0.5 421.5,-0.5C 425.841,1.66819 430.508,3.16819 435.5,4C 442.571,7.26165 449.238,11.095 455.5,15.5C 461.5,20.1667 466.833,25.5 471.5,31.5C 485.754,51.1514 490.921,73.1514 487,97.5C 482.081,118.527 471.248,135.694 454.5,149C 471.675,152.178 482.342,162.178 486.5,179C 468.998,194.337 451.664,209.837 434.5,225.5C 417.872,239.624 401.372,253.957 385,268.5C 372.712,299.045 361.045,329.711 350,360.5C 357.73,353.264 365.563,346.264 373.5,339.5C 384.797,330.206 395.797,320.539 406.5,310.5C 422.394,297.059 438.061,283.393 453.5,269.5C 463.851,259.817 474.517,250.483 485.5,241.5C 486.667,322.165 486.833,402.831 486,483.5C 484.666,489.832 482,495.499 478,500.5C 473.036,505.059 467.536,508.725 461.5,511.5C 323.833,511.5 186.167,511.5 48.5,511.5C 36.5184,507.017 28.3517,498.684 24,486.5C 23.3333,405.167 23.3333,323.833 24,242.5C 29.3726,247.377 34.8726,252.044 40.5,256.5C 64.5,277.5 88.5,298.5 112.5,319.5C 123.178,329.51 134.178,339.177 145.5,348.5C 149.806,352.635 154.306,356.635 159,360.5C 159.167,360.167 159.333,359.833 159.5,359.5C 147.729,329.621 136.229,299.621 125,269.5C 92.295,240.624 59.4617,211.958 26.5,183.5C 24.3227,182.635 23.3227,180.968 23.5,178.5C 28.1567,161.012 39.49,151.179 57.5,149C 27.2264,124.028 17.3931,92.5276 28,54.5C 31.6343,44.5579 36.8009,35.5579 43.5,27.5C 45.8333,24.5 48.5,21.8333 51.5,19.5C 53.1911,18.1363 54.8577,16.803 56.5,15.5C 66.5123,8.16904 77.8456,2.8357 90.5,-0.5 Z M 316.5,137.5 C 322.37,131.408 326.87,124.408 330,116.5C 335.926,129.754 344.76,140.588 356.5,149C 339.167,149.667 321.833,149.667 304.5,149C 309.029,145.636 313.029,141.803 316.5,137.5 Z M 179.5,120.5 C 185.82,131.66 194.153,141.16 204.5,149C 188.167,149.667 171.833,149.667 155.5,149C 165.871,141.465 173.871,131.965 179.5,120.5 Z M 323.5,337.5 C 331.302,346.141 338.968,354.974 346.5,364C 344.34,365.332 342.34,366.832 340.5,368.5C 329.464,378.872 318.13,388.872 306.5,398.5C 295.525,408.138 284.525,417.804 273.5,427.5C 267.794,433.528 261.46,438.861 254.5,443.5C 253.099,442.479 251.765,441.479 250.5,440.5C 226.525,419.529 202.525,398.529 178.5,377.5C 173.383,372.77 168.05,368.27 162.5,364C 166.365,359.306 170.365,354.806 174.5,350.5C 175.078,351.547 175.744,351.38 176.5,350C 176.272,349.601 175.938,349.435 175.5,349.5C 181.079,342.581 187.079,335.914 193.5,329.5C 213.538,347.54 233.871,365.207 254.5,382.5C 275.47,365.03 295.97,347.03 316,328.5C 318.964,331.082 321.464,334.082 323.5,337.5 Z"/></g>
<g><path style="opacity:0.004" fill="#fb0035" d="M 56.5,15.5 C 55.8333,14.1667 55.8333,14.1667 56.5,15.5 Z"/></g>
<g><path style="opacity:0.004" fill="#fb0035" d="M 455.5,14.5 C 456.833,15.1667 456.833,15.1667 455.5,14.5 Z"/></g>
<g><path style="opacity:1" fill="#fdfbfb" d="M 91.5,17.5 C 117.796,13.5744 139.63,21.5744 157,41.5C 169.775,59.8265 173.108,79.8265 167,101.5C 152.731,134.724 127.564,148.891 91.5,144C 55.4846,132.29 38.9846,107.457 42,69.5C 48.5091,42.4943 65.0091,25.1609 91.5,17.5 Z"/></g>
<g><path style="opacity:1" fill="#fdfcfc" d="M 240.5,17.5 C 261.742,13.8644 280.742,18.6977 297.5,32C 315.6,49.4026 322.434,70.5692 318,95.5C 305.561,132.814 279.728,148.98 240.5,144C 215.667,136.5 199.5,120.333 192,95.5C 187.13,56.2125 203.297,30.2125 240.5,17.5 Z"/></g>
<g><path style="opacity:1" fill="#fdfcfc" d="M 422.5,18.5 C 420.5,19.1667 418.5,19.8333 416.5,20.5C 401.221,22.9439 391.387,31.6105 387,46.5C 384.413,72.0151 395.747,86.6818 421,90.5C 448.145,86.3464 459.478,70.6797 455,43.5C 453.007,41.1825 451.841,38.5158 451.5,35.5C 467.848,52.1904 473.681,72.1904 469,95.5C 456.33,132.474 430.497,148.641 391.5,144C 354.175,131.534 338.008,105.7 343,66.5C 349.825,41.0088 365.991,24.8421 391.5,18C 401.88,17.2148 412.213,17.3815 422.5,18.5 Z"/></g>
<g><path style="opacity:0.004" fill="#fb0035" d="M 51.5,19.5 C 50.8333,18.1667 50.8333,18.1667 51.5,19.5 Z"/></g>
<g><path style="opacity:0.004" fill="#fb0035" d="M 308.5,18.5 C 309.833,19.1667 309.833,19.1667 308.5,18.5 Z"/></g>
<g><path style="opacity:1" fill="#917172" d="M 422.5,18.5 C 424.153,18.6596 425.486,19.3263 426.5,20.5C 423.167,20.5 419.833,20.5 416.5,20.5C 418.5,19.8333 420.5,19.1667 422.5,18.5 Z"/></g>
<g><path style="opacity:1" fill="#010101" d="M 416.5,20.5 C 419.833,20.5 423.167,20.5 426.5,20.5C 431.014,21.4208 435.347,22.9208 439.5,25C 443.668,28.3362 447.668,31.8362 451.5,35.5C 451.841,38.5158 453.007,41.1825 455,43.5C 459.478,70.6797 448.145,86.3464 421,90.5C 395.747,86.6818 384.413,72.0151 387,46.5C 391.387,31.6105 401.221,22.9439 416.5,20.5 Z"/></g>
<g><path style="opacity:0.004" fill="#fb0035" d="M 43.5,27.5 C 42.8333,26.1667 42.8333,26.1667 43.5,27.5 Z"/></g>
<g><path style="opacity:0.004" fill="#fb0035" d="M 316.5,26.5 C 317.833,27.1667 317.833,27.1667 316.5,26.5 Z"/></g>
<g><path style="opacity:0.004" fill="#fb0035" d="M 471.5,30.5 C 472.833,31.1667 472.833,31.1667 471.5,30.5 Z"/></g>
<g><path style="opacity:1" fill="#010101" d="M 99.5,45.5 C 123.855,44.8623 137.855,56.529 141.5,80.5C 139.009,102.658 126.676,114.658 104.5,116.5C 77.6311,110.782 67.1311,94.4489 73,67.5C 78.7205,56.268 87.5539,48.9347 99.5,45.5 Z"/></g>
<g><path style="opacity:1" fill="#010101" d="M 249.5,45.5 C 272.855,45.8617 286.188,57.5284 289.5,80.5C 287.041,102.625 274.708,114.625 252.5,116.5C 226.707,111.19 216.207,95.5237 221,69.5C 226.137,56.1872 235.637,48.1872 249.5,45.5 Z"/></g>
<g><path style="opacity:0.004" fill="#fb0035" d="M 26.5,183.5 C 25.8333,184.167 25.8333,184.167 26.5,183.5 Z"/></g>
<g><path style="opacity:0.004" fill="#fc0035" d="M 434.5,225.5 C 435.833,226.167 435.833,226.167 434.5,225.5 Z"/></g>
<g><path style="opacity:0.004" fill="#fc0035" d="M 40.5,255.5 C 41.8333,256.167 41.8333,256.167 40.5,255.5 Z"/></g>
<g><path style="opacity:0.004" fill="#fc0035" d="M 453.5,269.5 C 452.833,268.167 452.833,268.167 453.5,269.5 Z"/></g>
<g><path style="opacity:0.004" fill="#fc0035" d="M 406.5,310.5 C 405.833,309.167 405.833,309.167 406.5,310.5 Z"/></g>
<g><path style="opacity:0.004" fill="#fc0035" d="M 112.5,318.5 C 113.833,319.167 113.833,319.167 112.5,318.5 Z"/></g>
<g><path style="opacity:0.004" fill="#fc0035" d="M 373.5,339.5 C 372.833,338.167 372.833,338.167 373.5,339.5 Z"/></g>
<g><path style="opacity:0.004" fill="#fc0035" d="M 145.5,347.5 C 146.833,348.167 146.833,348.167 145.5,347.5 Z"/></g>
</svg>
